%TF.GenerationSoftware,KiCad,Pcbnew,7.0.1*%
%TF.CreationDate,2023-03-24T14:18:28-04:00*%
%TF.ProjectId,kurp,6b757270-2e6b-4696-9361-645f70636258,v1.0.0*%
%TF.SameCoordinates,Original*%
%TF.FileFunction,Legend,Bot*%
%TF.FilePolarity,Positive*%
%FSLAX46Y46*%
G04 Gerber Fmt 4.6, Leading zero omitted, Abs format (unit mm)*
G04 Created by KiCad (PCBNEW 7.0.1) date 2023-03-24 14:18:28*
%MOMM*%
%LPD*%
G01*
G04 APERTURE LIST*
%ADD10C,1.801800*%
%ADD11C,2.850000*%
%ADD12C,3.529000*%
%ADD13O,3.100000X31.580000*%
%ADD14C,2.300000*%
%ADD15O,11.260000X3.100000*%
%ADD16O,8.220000X3.640000*%
G04 APERTURE END LIST*
%LPC*%
D10*
%TO.C,SW11*%
X66500000Y17000000D03*
D11*
X67000000Y13250000D03*
D12*
X72000000Y17000000D03*
D11*
X72000000Y11050000D03*
D10*
X77500000Y17000000D03*
%TD*%
D13*
%TO.C,U1*%
X109380000Y24893700D03*
X124620000Y24500000D03*
%TD*%
D10*
%TO.C,SW20*%
X210500000Y17000000D03*
D11*
X211000000Y13250000D03*
D12*
X216000000Y17000000D03*
D11*
X216000000Y11050000D03*
D10*
X221500000Y17000000D03*
%TD*%
D14*
%TO.C,H10*%
X153000000Y25500000D03*
%TD*%
D10*
%TO.C,SW25*%
X174500000Y0D03*
D11*
X175000000Y-3750000D03*
D12*
X180000000Y0D03*
D11*
X180000000Y-5950000D03*
D10*
X185500000Y0D03*
%TD*%
%TO.C,SW8*%
X48500000Y17000000D03*
D11*
X49000000Y13250000D03*
D12*
X54000000Y17000000D03*
D11*
X54000000Y11050000D03*
D10*
X59500000Y17000000D03*
%TD*%
%TO.C,SW19*%
X210500000Y0D03*
D11*
X211000000Y-3750000D03*
D12*
X216000000Y0D03*
D11*
X216000000Y-5950000D03*
D10*
X221500000Y0D03*
%TD*%
%TO.C,SW6*%
X30500000Y34000000D03*
D11*
X31000000Y30250000D03*
D12*
X36000000Y34000000D03*
D11*
X36000000Y28050000D03*
D10*
X41500000Y34000000D03*
%TD*%
D15*
%TO.C,J1*%
X117000000Y5500000D03*
%TD*%
D14*
%TO.C,H9*%
X81000000Y25500000D03*
%TD*%
%TO.C,H11*%
X81000000Y-8500000D03*
%TD*%
D10*
%TO.C,SW30*%
X156500000Y34000000D03*
D11*
X157000000Y30250000D03*
D12*
X162000000Y34000000D03*
D11*
X162000000Y28050000D03*
D10*
X167500000Y34000000D03*
%TD*%
%TO.C,SW5*%
X30500000Y17000000D03*
D11*
X31000000Y13250000D03*
D12*
X36000000Y17000000D03*
D11*
X36000000Y11050000D03*
D10*
X41500000Y17000000D03*
%TD*%
%TO.C,SW33*%
X138500000Y34000000D03*
D11*
X139000000Y30250000D03*
D12*
X144000000Y34000000D03*
D11*
X144000000Y28050000D03*
D10*
X149500000Y34000000D03*
%TD*%
D14*
%TO.C,H3*%
X27000000Y8500000D03*
%TD*%
D10*
%TO.C,SW36*%
X120500000Y-17000000D03*
D11*
X121000000Y-20750000D03*
D12*
X126000000Y-17000000D03*
D11*
X126000000Y-22950000D03*
D10*
X131500000Y-17000000D03*
%TD*%
%TO.C,SW2*%
X12500000Y17000000D03*
D11*
X13000000Y13250000D03*
D12*
X18000000Y17000000D03*
D11*
X18000000Y11050000D03*
D10*
X23500000Y17000000D03*
%TD*%
%TO.C,SW1*%
X12500000Y0D03*
D11*
X13000000Y-3750000D03*
D12*
X18000000Y0D03*
D11*
X18000000Y-5950000D03*
D10*
X23500000Y0D03*
%TD*%
D14*
%TO.C,H12*%
X153000000Y-8500000D03*
%TD*%
%TO.C,H7*%
X103500000Y-4200000D03*
%TD*%
D10*
%TO.C,SW17*%
X84500000Y-17000000D03*
D11*
X85000000Y-20750000D03*
D12*
X90000000Y-17000000D03*
D11*
X90000000Y-22950000D03*
D10*
X95500000Y-17000000D03*
%TD*%
%TO.C,SW4*%
X30500000Y0D03*
D11*
X31000000Y-3750000D03*
D12*
X36000000Y0D03*
D11*
X36000000Y-5950000D03*
D10*
X41500000Y0D03*
%TD*%
%TO.C,SW24*%
X192500000Y34000000D03*
D11*
X193000000Y30250000D03*
D12*
X198000000Y34000000D03*
D11*
X198000000Y28050000D03*
D10*
X203500000Y34000000D03*
%TD*%
%TO.C,SW7*%
X48500000Y0D03*
D11*
X49000000Y-3750000D03*
D12*
X54000000Y0D03*
D11*
X54000000Y-5950000D03*
D10*
X59500000Y0D03*
%TD*%
%TO.C,SW34*%
X156500000Y-17000000D03*
D11*
X157000000Y-20750000D03*
D12*
X162000000Y-17000000D03*
D11*
X162000000Y-22950000D03*
D10*
X167500000Y-17000000D03*
%TD*%
%TO.C,SW15*%
X84500000Y34000000D03*
D11*
X85000000Y30250000D03*
D12*
X90000000Y34000000D03*
D11*
X90000000Y28050000D03*
D10*
X95500000Y34000000D03*
%TD*%
%TO.C,SW21*%
X210500000Y34000000D03*
D11*
X211000000Y30250000D03*
D12*
X216000000Y34000000D03*
D11*
X216000000Y28050000D03*
D10*
X221500000Y34000000D03*
%TD*%
%TO.C,SW32*%
X138500000Y17000000D03*
D11*
X139000000Y13250000D03*
D12*
X144000000Y17000000D03*
D11*
X144000000Y11050000D03*
D10*
X149500000Y17000000D03*
%TD*%
%TO.C,SW12*%
X66500000Y34000000D03*
D11*
X67000000Y30250000D03*
D12*
X72000000Y34000000D03*
D11*
X72000000Y28050000D03*
D10*
X77500000Y34000000D03*
%TD*%
D14*
%TO.C,H5*%
X103500000Y39400000D03*
%TD*%
D10*
%TO.C,SW35*%
X138500000Y-17000000D03*
D11*
X139000000Y-20750000D03*
D12*
X144000000Y-17000000D03*
D11*
X144000000Y-22950000D03*
D10*
X149500000Y-17000000D03*
%TD*%
%TO.C,SW29*%
X156500000Y17000000D03*
D11*
X157000000Y13250000D03*
D12*
X162000000Y17000000D03*
D11*
X162000000Y11050000D03*
D10*
X167500000Y17000000D03*
%TD*%
D14*
%TO.C,H1*%
X27000000Y25500000D03*
%TD*%
D10*
%TO.C,SW26*%
X174500000Y17000000D03*
D11*
X175000000Y13250000D03*
D12*
X180000000Y17000000D03*
D11*
X180000000Y11050000D03*
D10*
X185500000Y17000000D03*
%TD*%
D14*
%TO.C,H4*%
X207000000Y8500000D03*
%TD*%
D10*
%TO.C,SW10*%
X66500000Y0D03*
D11*
X67000000Y-3750000D03*
D12*
X72000000Y0D03*
D11*
X72000000Y-5950000D03*
D10*
X77500000Y0D03*
%TD*%
%TO.C,SW9*%
X48500000Y34000000D03*
D11*
X49000000Y30250000D03*
D12*
X54000000Y34000000D03*
D11*
X54000000Y28050000D03*
D10*
X59500000Y34000000D03*
%TD*%
%TO.C,SW16*%
X66500000Y-17000000D03*
D11*
X67000000Y-20750000D03*
D12*
X72000000Y-17000000D03*
D11*
X72000000Y-22950000D03*
D10*
X77500000Y-17000000D03*
%TD*%
D14*
%TO.C,H2*%
X207000000Y25500000D03*
%TD*%
D10*
%TO.C,SW14*%
X84500000Y17000000D03*
D11*
X85000000Y13250000D03*
D12*
X90000000Y17000000D03*
D11*
X90000000Y11050000D03*
D10*
X95500000Y17000000D03*
%TD*%
%TO.C,SW31*%
X138500000Y0D03*
D11*
X139000000Y-3750000D03*
D12*
X144000000Y0D03*
D11*
X144000000Y-5950000D03*
D10*
X149500000Y0D03*
%TD*%
D14*
%TO.C,H8*%
X130500000Y-4200000D03*
%TD*%
D10*
%TO.C,SW23*%
X192500000Y17000000D03*
D11*
X193000000Y13250000D03*
D12*
X198000000Y17000000D03*
D11*
X198000000Y11050000D03*
D10*
X203500000Y17000000D03*
%TD*%
D14*
%TO.C,H6*%
X130500000Y39400000D03*
%TD*%
D10*
%TO.C,SW13*%
X84500000Y0D03*
D11*
X85000000Y-3750000D03*
D12*
X90000000Y0D03*
D11*
X90000000Y-5950000D03*
D10*
X95500000Y0D03*
%TD*%
%TO.C,SW3*%
X12500000Y34000000D03*
D11*
X13000000Y30250000D03*
D12*
X18000000Y34000000D03*
D11*
X18000000Y28050000D03*
D10*
X23500000Y34000000D03*
%TD*%
D16*
%TO.C,BT1*%
X112000000Y-3000000D03*
%TD*%
D10*
%TO.C,SW18*%
X102500000Y-17000000D03*
D11*
X103000000Y-20750000D03*
D12*
X108000000Y-17000000D03*
D11*
X108000000Y-22950000D03*
D10*
X113500000Y-17000000D03*
%TD*%
%TO.C,SW22*%
X192500000Y0D03*
D11*
X193000000Y-3750000D03*
D12*
X198000000Y0D03*
D11*
X198000000Y-5950000D03*
D10*
X203500000Y0D03*
%TD*%
%TO.C,SW27*%
X174500000Y34000000D03*
D11*
X175000000Y30250000D03*
D12*
X180000000Y34000000D03*
D11*
X180000000Y28050000D03*
D10*
X185500000Y34000000D03*
%TD*%
%TO.C,SW28*%
X156500000Y0D03*
D11*
X157000000Y-3750000D03*
D12*
X162000000Y0D03*
D11*
X162000000Y-5950000D03*
D10*
X167500000Y0D03*
%TD*%
M02*
