M48
; DRILL file {KiCad 7.0.1} date Fri Mar 24 14:18:28 2023
; FORMAT={-:-/ absolute / inch / decimal}
; #@! TF.CreationDate,2023-03-24T14:18:28-04:00
; #@! TF.GenerationSoftware,Kicad,Pcbnew,7.0.1
; #@! TF.FileFunction,NonPlated,1,2,NPTH
FMAT,2
INCH
; #@! TA.AperFunction,NonPlated,NPTH,ComponentDrill
T1C0.0670
; #@! TA.AperFunction,NonPlated,NPTH,ComponentDrill
T2C0.0866
; #@! TA.AperFunction,NonPlated,NPTH,ComponentDrill
T3C0.1083
; #@! TA.AperFunction,NonPlated,NPTH,ComponentDrill
T4C0.1181
; #@! TA.AperFunction,NonPlated,NPTH,ComponentDrill
T5C0.1350
; #@! TA.AperFunction,NonPlated,NPTH,ComponentDrill
T6C0.1394
%
G90
G05
T1
X0.4921Y1.3386
X0.4921Y0.6693
X0.4921Y0.0
X0.9252Y1.3386
X0.9252Y0.6693
X0.9252Y0.0
X1.2008Y1.3386
X1.2008Y0.6693
X1.2008Y0.0
X1.6339Y1.3386
X1.6339Y0.6693
X1.6339Y0.0
X1.9094Y1.3386
X1.9094Y0.6693
X1.9094Y0.0
X2.3425Y1.3386
X2.3425Y0.6693
X2.3425Y0.0
X2.6181Y1.3386
X2.6181Y0.6693
X2.6181Y0.0
X2.6181Y-0.6693
X3.0512Y1.3386
X3.0512Y0.6693
X3.0512Y0.0
X3.0512Y-0.6693
X3.3268Y1.3386
X3.3268Y0.6693
X3.3268Y0.0
X3.3268Y-0.6693
X3.7598Y1.3386
X3.7598Y0.6693
X3.7598Y0.0
X3.7598Y-0.6693
X4.0354Y-0.6693
X4.4685Y-0.6693
X4.7441Y-0.6693
X5.1772Y-0.6693
X5.4528Y1.3386
X5.4528Y0.6693
X5.4528Y0.0
X5.4528Y-0.6693
X5.8858Y1.3386
X5.8858Y0.6693
X5.8858Y0.0
X5.8858Y-0.6693
X6.1614Y1.3386
X6.1614Y0.6693
X6.1614Y0.0
X6.1614Y-0.6693
X6.5945Y1.3386
X6.5945Y0.6693
X6.5945Y0.0
X6.5945Y-0.6693
X6.8701Y1.3386
X6.8701Y0.6693
X6.8701Y0.0
X7.3031Y1.3386
X7.3031Y0.6693
X7.3031Y0.0
X7.5787Y1.3386
X7.5787Y0.6693
X7.5787Y0.0
X8.0118Y1.3386
X8.0118Y0.6693
X8.0118Y0.0
X8.2874Y1.3386
X8.2874Y0.6693
X8.2874Y0.0
X8.7205Y1.3386
X8.7205Y0.6693
X8.7205Y0.0
T2
X1.063Y1.0039
X1.063Y0.3346
X3.189Y1.0039
X3.189Y-0.3346
X4.0748Y1.5512
X4.0748Y-0.1654
X5.1378Y1.5512
X5.1378Y-0.1654
X6.0236Y1.0039
X6.0236Y-0.3346
X8.1496Y1.0039
X8.1496Y0.3346
T3
X0.5118Y1.1909
X0.5118Y0.5217
X0.5118Y-0.1476
X0.7087Y1.1043
X0.7087Y0.435
X0.7087Y-0.2343
X1.2205Y1.1909
X1.2205Y0.5217
X1.2205Y-0.1476
X1.4173Y1.1043
X1.4173Y0.435
X1.4173Y-0.2343
X1.9291Y1.1909
X1.9291Y0.5217
X1.9291Y-0.1476
X2.126Y1.1043
X2.126Y0.435
X2.126Y-0.2343
X2.6378Y1.1909
X2.6378Y0.5217
X2.6378Y-0.1476
X2.6378Y-0.8169
X2.8346Y1.1043
X2.8346Y0.435
X2.8346Y-0.2343
X2.8346Y-0.9035
X3.3465Y1.1909
X3.3465Y0.5217
X3.3465Y-0.1476
X3.3465Y-0.8169
X3.5433Y1.1043
X3.5433Y0.435
X3.5433Y-0.2343
X3.5433Y-0.9035
X4.0551Y-0.8169
X4.252Y-0.9035
X4.7638Y-0.8169
X4.9606Y-0.9035
X5.4724Y1.1909
X5.4724Y0.5217
X5.4724Y-0.1476
X5.4724Y-0.8169
X5.6693Y1.1043
X5.6693Y0.435
X5.6693Y-0.2343
X5.6693Y-0.9035
X6.1811Y1.1909
X6.1811Y0.5217
X6.1811Y-0.1476
X6.1811Y-0.8169
X6.378Y1.1043
X6.378Y0.435
X6.378Y-0.2343
X6.378Y-0.9035
X6.8898Y1.1909
X6.8898Y0.5217
X6.8898Y-0.1476
X7.0866Y1.1043
X7.0866Y0.435
X7.0866Y-0.2343
X7.5984Y1.1909
X7.5984Y0.5217
X7.5984Y-0.1476
X7.7953Y1.1043
X7.7953Y0.435
X7.7953Y-0.2343
X8.3071Y1.1909
X8.3071Y0.5217
X8.3071Y-0.1476
X8.5039Y1.1043
X8.5039Y0.435
X8.5039Y-0.2343
T5
X0.7087Y1.3386
X0.7087Y0.6693
X0.7087Y0.0
X1.4173Y1.3386
X1.4173Y0.6693
X1.4173Y0.0
X2.126Y1.3386
X2.126Y0.6693
X2.126Y0.0
X2.8346Y1.3386
X2.8346Y0.6693
X2.8346Y0.0
X2.8346Y-0.6693
X3.5433Y1.3386
X3.5433Y0.6693
X3.5433Y0.0
X3.5433Y-0.6693
X4.252Y-0.6693
X4.9606Y-0.6693
X5.6693Y1.3386
X5.6693Y0.6693
X5.6693Y0.0
X5.6693Y-0.6693
X6.378Y1.3386
X6.378Y0.6693
X6.378Y0.0
X6.378Y-0.6693
X7.0866Y1.3386
X7.0866Y0.6693
X7.0866Y0.0
X7.7953Y1.3386
X7.7953Y0.6693
X7.7953Y0.0
X8.5039Y1.3386
X8.5039Y0.6693
X8.5039Y0.0
T4
G00X4.3063Y1.5407
M15
G01X4.3063Y0.4194
M16
G05
G00X4.7669Y0.2165
M15
G01X4.4457Y0.2165
M16
G05
G00X4.9063Y1.5252
M15
G01X4.9063Y0.4039
M16
G05
T6
G00X4.4996Y-0.1181
M15
G01X4.3193Y-0.1181
M16
G05
T0
M30
