%TF.GenerationSoftware,KiCad,Pcbnew,7.0.1*%
%TF.CreationDate,2023-04-11T18:30:42-04:00*%
%TF.ProjectId,kurp,6b757270-2e6b-4696-9361-645f70636258,v1.0.0*%
%TF.SameCoordinates,Original*%
%TF.FileFunction,Profile,NP*%
%FSLAX46Y46*%
G04 Gerber Fmt 4.6, Leading zero omitted, Abs format (unit mm)*
G04 Created by KiCad (PCBNEW 7.0.1) date 2023-04-11 18:30:42*
%MOMM*%
%LPD*%
G01*
G04 APERTURE LIST*
%TA.AperFunction,Profile*%
%ADD10C,0.150000*%
%TD*%
G04 APERTURE END LIST*
D10*
X222800000Y-8500000D02*
G75*
G03*
X225000000Y-6300000I0J2200000D01*
G01*
X225000000Y40300000D02*
G75*
G03*
X222800000Y42500000I-2200000J0D01*
G01*
X63000000Y-23300000D02*
G75*
G03*
X65200000Y-25500000I2200000J0D01*
G01*
X123700000Y42500000D02*
X222800000Y42500000D01*
X112500000Y38500000D02*
G75*
G03*
X113500000Y37500000I1000000J0D01*
G01*
X63000000Y-10700000D02*
G75*
G03*
X60800000Y-8500000I-2200000J0D01*
G01*
X168800000Y-25500000D02*
G75*
G03*
X171000000Y-23300000I0J2200000D01*
G01*
X113500000Y37500000D02*
X120500000Y37500000D01*
X123700000Y42500000D02*
G75*
G03*
X121500000Y40300000I0J-2200000D01*
G01*
X222800000Y-8500000D02*
X173200000Y-8500000D01*
X11200000Y42500000D02*
G75*
G03*
X9000000Y40300000I0J-2200000D01*
G01*
X9000000Y-6300000D02*
X9000000Y40300000D01*
X173200000Y-8500000D02*
G75*
G03*
X171000000Y-10700000I0J-2200000D01*
G01*
X112500000Y40300000D02*
X112500000Y38500000D01*
X60800000Y-8500000D02*
X11200000Y-8500000D01*
X63000000Y-23300000D02*
X63000000Y-10700000D01*
X120500000Y37500000D02*
G75*
G03*
X121500000Y38500000I0J1000000D01*
G01*
X168800000Y-25500000D02*
X65200000Y-25500000D01*
X225000000Y40300000D02*
X225000000Y-6300000D01*
X121500000Y38500000D02*
X121500000Y40300000D01*
X11200000Y42500000D02*
X110300000Y42500000D01*
X112500000Y40300000D02*
G75*
G03*
X110300000Y42500000I-2200000J0D01*
G01*
X9000000Y-6300000D02*
G75*
G03*
X11200000Y-8500000I2200000J0D01*
G01*
X171000000Y-10700000D02*
X171000000Y-23300000D01*
M02*
