M48
; DRILL file {KiCad 7.0.1} date Fri Mar 24 13:46:13 2023
; FORMAT={-:-/ absolute / inch / decimal}
; #@! TF.CreationDate,2023-03-24T13:46:13-04:00
; #@! TF.GenerationSoftware,Kicad,Pcbnew,7.0.1
; #@! TF.FileFunction,Plated,1,2,PTH
FMAT,2
INCH
; #@! TA.AperFunction,Plated,PTH,ViaDrill
T1C0.0118
; #@! TA.AperFunction,Plated,PTH,ComponentDrill
T2C0.0118
; #@! TA.AperFunction,Plated,PTH,ComponentDrill
T3C0.0394
; #@! TA.AperFunction,Plated,PTH,ComponentDrill
T4C0.0430
; #@! TA.AperFunction,Plated,PTH,ComponentDrill
T5C0.0591
; #@! TA.AperFunction,Plated,PTH,ComponentDrill
T6C0.1260
%
G90
G05
T1
X3.9251Y-4.8715
X4.6338Y-4.8235
X5.3425Y-4.8029
X6.0511Y-4.7784
X6.7598Y-4.7551
X7.0567Y-4.2505
X7.0568Y-4.8964
X7.1818Y-4.3579
X7.1819Y-5.5657
X7.4241Y-4.7561
X7.4495Y-4.7818
X7.4768Y-4.8026
X7.4996Y-4.8237
X7.5239Y-4.8464
X8.0415Y-4.0012
X8.0702Y-4.1017
X8.1204Y-3.7993
X8.1836Y-3.7562
X8.3968Y-5.3479
X8.4683Y-5.5109
X8.4686Y-5.9317
X8.6503Y-4.7034
X8.6503Y-5.566
X8.6833Y-4.8967
X8.6834Y-4.6013
X8.8366Y-5.5114
X8.8858Y-4.7559
X9.1796Y-5.933
X9.5944Y-4.7819
X9.8907Y-5.933
X10.3031Y-4.8025
X11.0118Y-4.8235
X11.7204Y-4.8624
T2
X4.1828Y-3.5903
X4.1828Y-4.2596
X4.1828Y-4.9289
X4.8914Y-3.5903
X4.8914Y-4.2596
X4.8914Y-4.9289
X5.6001Y-3.5903
X5.6001Y-4.2596
X5.6001Y-4.9289
X6.3088Y-3.5903
X6.3088Y-4.2596
X6.3088Y-4.9289
X6.3088Y-5.5982
X7.0174Y-3.5903
X7.0174Y-4.2596
X7.0174Y-4.9289
X7.0174Y-5.5982
X7.7261Y-5.5982
X8.4348Y-5.5982
X9.1434Y-3.5903
X9.1434Y-4.2596
X9.1434Y-4.9289
X9.1434Y-5.5982
X9.8521Y-3.5903
X9.8521Y-4.2596
X9.8521Y-4.9289
X9.8521Y-5.5982
X10.5607Y-3.5903
X10.5607Y-4.2596
X10.5607Y-4.9289
X11.2694Y-3.5903
X11.2694Y-4.2596
X11.2694Y-4.9289
X11.9781Y-3.5903
X11.9781Y-4.2596
X11.9781Y-4.9289
T3
X7.8204Y-4.8994
X7.9204Y-4.8994
X8.0204Y-4.8994
X8.1204Y-4.8994
X8.2202Y-4.8994
T4
X7.6704Y-3.6014
X7.6704Y-3.7014
X7.6704Y-3.8014
X7.6704Y-3.9014
X7.6704Y-4.0014
X7.6704Y-4.1014
X7.6704Y-4.2014
X7.6704Y-4.3014
X7.6704Y-4.4014
X7.6704Y-4.5014
X7.6704Y-4.6014
X7.6704Y-4.7014
X7.6948Y-5.234
X7.7736Y-5.234
X7.8523Y-5.234
X8.2704Y-3.6014
X8.2704Y-3.7014
X8.2704Y-3.8014
X8.2704Y-3.9014
X8.2704Y-4.0014
X8.2704Y-4.1014
X8.2704Y-4.2014
X8.2704Y-4.3014
X8.2704Y-4.4014
X8.2704Y-4.5014
X8.2704Y-4.6014
X8.2704Y-4.7014
T5
X3.8759Y-3.925
X3.8759Y-4.5943
X3.8759Y-5.2636
X4.0728Y-4.0116
X4.0728Y-4.6809
X4.0728Y-5.3502
X4.5846Y-3.925
X4.5846Y-4.5943
X4.5846Y-5.2636
X4.7814Y-4.0116
X4.7814Y-4.6809
X4.7814Y-5.3502
X5.2933Y-3.925
X5.2933Y-4.5943
X5.2933Y-5.2636
X5.4901Y-4.0116
X5.4901Y-4.6809
X5.4901Y-5.3502
X6.0019Y-3.925
X6.0019Y-4.5943
X6.0019Y-5.2636
X6.0019Y-5.9329
X6.1988Y-4.0116
X6.1988Y-4.6809
X6.1988Y-5.3502
X6.1988Y-6.0195
X6.7106Y-3.925
X6.7106Y-4.5943
X6.7106Y-5.2636
X6.7106Y-5.9329
X6.9074Y-4.0116
X6.9074Y-4.6809
X6.9074Y-5.3502
X6.9074Y-6.0195
X7.4192Y-5.9329
X7.6161Y-6.0195
X8.1279Y-5.9329
X8.3248Y-6.0195
X8.8366Y-3.925
X8.8366Y-4.5943
X8.8366Y-5.2636
X8.8366Y-5.9329
X9.0334Y-4.0116
X9.0334Y-4.6809
X9.0334Y-5.3502
X9.0334Y-6.0195
X9.5452Y-3.925
X9.5452Y-4.5943
X9.5452Y-5.2636
X9.5452Y-5.9329
X9.7421Y-4.0116
X9.7421Y-4.6809
X9.7421Y-5.3502
X9.7421Y-6.0195
X10.2539Y-3.925
X10.2539Y-4.5943
X10.2539Y-5.2636
X10.4507Y-4.0116
X10.4507Y-4.6809
X10.4507Y-5.3502
X10.9625Y-3.925
X10.9625Y-4.5943
X10.9625Y-5.2636
X11.1594Y-4.0116
X11.1594Y-4.6809
X11.1594Y-5.3502
X11.6712Y-3.925
X11.6712Y-4.5943
X11.6712Y-5.2636
X11.8681Y-4.0116
X11.8681Y-4.6809
X11.8681Y-5.3502
T6
X4.4271Y-4.112
X4.4271Y-4.7813
X6.5531Y-4.112
X6.5531Y-5.4506
X7.4389Y-3.5647
X7.4389Y-5.2813
X8.5019Y-3.5647
X8.5019Y-5.2813
X9.3877Y-4.112
X9.3877Y-5.4506
X11.5137Y-4.112
X11.5137Y-4.7813
T0
M30
