M48
; DRILL file {KiCad 7.0.1} date Fri Mar 24 13:46:13 2023
; FORMAT={-:-/ absolute / inch / decimal}
; #@! TF.CreationDate,2023-03-24T13:46:13-04:00
; #@! TF.GenerationSoftware,Kicad,Pcbnew,7.0.1
; #@! TF.FileFunction,NonPlated,1,2,NPTH
FMAT,2
INCH
; #@! TA.AperFunction,NonPlated,NPTH,ComponentDrill
T1C0.0354
; #@! TA.AperFunction,NonPlated,NPTH,ComponentDrill
T2C0.0670
; #@! TA.AperFunction,NonPlated,NPTH,ComponentDrill
T3C0.1350
%
G90
G05
T1
X7.9114Y-3.5116
X8.0295Y-3.5116
T2
X3.8562Y-3.7773
X3.8562Y-4.4466
X3.8562Y-5.1159
X4.2893Y-3.7773
X4.2893Y-4.4466
X4.2893Y-5.1159
X4.5649Y-3.7773
X4.5649Y-4.4466
X4.5649Y-5.1159
X4.998Y-3.7773
X4.998Y-4.4466
X4.998Y-5.1159
X5.2736Y-3.7773
X5.2736Y-4.4466
X5.2736Y-5.1159
X5.7066Y-3.7773
X5.7066Y-4.4466
X5.7066Y-5.1159
X5.9822Y-3.7773
X5.9822Y-4.4466
X5.9822Y-5.1159
X5.9822Y-5.7852
X6.4153Y-3.7773
X6.4153Y-4.4466
X6.4153Y-5.1159
X6.4153Y-5.7852
X6.6909Y-3.7773
X6.6909Y-4.4466
X6.6909Y-5.1159
X6.6909Y-5.7852
X7.124Y-3.7773
X7.124Y-4.4466
X7.124Y-5.1159
X7.124Y-5.7852
X7.3996Y-5.7852
X7.8326Y-5.7852
X8.1082Y-5.7852
X8.5413Y-5.7852
X8.8169Y-3.7773
X8.8169Y-4.4466
X8.8169Y-5.1159
X8.8169Y-5.7852
X9.25Y-3.7773
X9.25Y-4.4466
X9.25Y-5.1159
X9.25Y-5.7852
X9.5255Y-3.7773
X9.5255Y-4.4466
X9.5255Y-5.1159
X9.5255Y-5.7852
X9.9586Y-3.7773
X9.9586Y-4.4466
X9.9586Y-5.1159
X9.9586Y-5.7852
X10.2342Y-3.7773
X10.2342Y-4.4466
X10.2342Y-5.1159
X10.6673Y-3.7773
X10.6673Y-4.4466
X10.6673Y-5.1159
X10.9429Y-3.7773
X10.9429Y-4.4466
X10.9429Y-5.1159
X11.3759Y-3.7773
X11.3759Y-4.4466
X11.3759Y-5.1159
X11.6515Y-3.7773
X11.6515Y-4.4466
X11.6515Y-5.1159
X12.0846Y-3.7773
X12.0846Y-4.4466
X12.0846Y-5.1159
T3
X4.0728Y-3.7773
X4.0728Y-4.4466
X4.0728Y-5.1159
X4.7814Y-3.7773
X4.7814Y-4.4466
X4.7814Y-5.1159
X5.4901Y-3.7773
X5.4901Y-4.4466
X5.4901Y-5.1159
X6.1988Y-3.7773
X6.1988Y-4.4466
X6.1988Y-5.1159
X6.1988Y-5.7852
X6.9074Y-3.7773
X6.9074Y-4.4466
X6.9074Y-5.1159
X6.9074Y-5.7852
X7.6161Y-5.7852
X8.3248Y-5.7852
X9.0334Y-3.7773
X9.0334Y-4.4466
X9.0334Y-5.1159
X9.0334Y-5.7852
X9.7421Y-3.7773
X9.7421Y-4.4466
X9.7421Y-5.1159
X9.7421Y-5.7852
X10.4507Y-3.7773
X10.4507Y-4.4466
X10.4507Y-5.1159
X11.1594Y-3.7773
X11.1594Y-4.4466
X11.1594Y-5.1159
X11.8681Y-3.7773
X11.8681Y-4.4466
X11.8681Y-5.1159
T0
M30
