%TF.GenerationSoftware,KiCad,Pcbnew,7.0.1*%
%TF.CreationDate,2023-03-24T13:46:13-04:00*%
%TF.ProjectId,kurp,6b757270-2e6b-4696-9361-645f70636258,v1.0.0*%
%TF.SameCoordinates,Original*%
%TF.FileFunction,Copper,L2,Bot*%
%TF.FilePolarity,Positive*%
%FSLAX46Y46*%
G04 Gerber Fmt 4.6, Leading zero omitted, Abs format (unit mm)*
G04 Created by KiCad (PCBNEW 7.0.1) date 2023-03-24 13:46:13*
%MOMM*%
%LPD*%
G01*
G04 APERTURE LIST*
G04 Aperture macros list*
%AMRoundRect*
0 Rectangle with rounded corners*
0 $1 Rounding radius*
0 $2 $3 $4 $5 $6 $7 $8 $9 X,Y pos of 4 corners*
0 Add a 4 corners polygon primitive as box body*
4,1,4,$2,$3,$4,$5,$6,$7,$8,$9,$2,$3,0*
0 Add four circle primitives for the rounded corners*
1,1,$1+$1,$2,$3*
1,1,$1+$1,$4,$5*
1,1,$1+$1,$6,$7*
1,1,$1+$1,$8,$9*
0 Add four rect primitives between the rounded corners*
20,1,$1+$1,$2,$3,$4,$5,0*
20,1,$1+$1,$4,$5,$6,$7,0*
20,1,$1+$1,$6,$7,$8,$9,0*
20,1,$1+$1,$8,$9,$2,$3,0*%
%AMOutline5P*
0 Free polygon, 5 corners , with rotation*
0 The origin of the aperture is its center*
0 number of corners: always 5*
0 $1 to $10 corner X, Y*
0 $11 Rotation angle, in degrees counterclockwise*
0 create outline with 5 corners*
4,1,5,$1,$2,$3,$4,$5,$6,$7,$8,$9,$10,$1,$2,$11*%
%AMOutline6P*
0 Free polygon, 6 corners , with rotation*
0 The origin of the aperture is its center*
0 number of corners: always 6*
0 $1 to $12 corner X, Y*
0 $13 Rotation angle, in degrees counterclockwise*
0 create outline with 6 corners*
4,1,6,$1,$2,$3,$4,$5,$6,$7,$8,$9,$10,$11,$12,$1,$2,$13*%
%AMOutline7P*
0 Free polygon, 7 corners , with rotation*
0 The origin of the aperture is its center*
0 number of corners: always 7*
0 $1 to $14 corner X, Y*
0 $15 Rotation angle, in degrees counterclockwise*
0 create outline with 7 corners*
4,1,7,$1,$2,$3,$4,$5,$6,$7,$8,$9,$10,$11,$12,$13,$14,$1,$2,$15*%
%AMOutline8P*
0 Free polygon, 8 corners , with rotation*
0 The origin of the aperture is its center*
0 number of corners: always 8*
0 $1 to $16 corner X, Y*
0 $17 Rotation angle, in degrees counterclockwise*
0 create outline with 8 corners*
4,1,8,$1,$2,$3,$4,$5,$6,$7,$8,$9,$10,$11,$12,$13,$14,$15,$16,$1,$2,$17*%
G04 Aperture macros list end*
%TA.AperFunction,ComponentPad*%
%ADD10C,1.752600*%
%TD*%
%TA.AperFunction,ComponentPad*%
%ADD11R,1.752600X1.752600*%
%TD*%
%TA.AperFunction,ComponentPad*%
%ADD12C,0.600000*%
%TD*%
%TA.AperFunction,ComponentPad*%
%ADD13R,1.500000X2.250000*%
%TD*%
%TA.AperFunction,ComponentPad*%
%ADD14RoundRect,0.375000X0.375000X0.750000X-0.375000X0.750000X-0.375000X-0.750000X0.375000X-0.750000X0*%
%TD*%
%TA.AperFunction,ComponentPad*%
%ADD15C,2.500000*%
%TD*%
%TA.AperFunction,ComponentPad*%
%ADD16C,3.700000*%
%TD*%
%TA.AperFunction,ComponentPad*%
%ADD17Outline5P,-0.850000X0.510000X-0.510000X0.850000X0.850000X0.850000X0.850000X-0.850000X-0.850000X-0.850000X90.000000*%
%TD*%
%TA.AperFunction,ComponentPad*%
%ADD18RoundRect,0.425000X-0.425000X0.425000X-0.425000X-0.425000X0.425000X-0.425000X0.425000X0.425000X0*%
%TD*%
%TA.AperFunction,ComponentPad*%
%ADD19R,1.700000X1.700000*%
%TD*%
%TA.AperFunction,ComponentPad*%
%ADD20O,1.700000X1.700000*%
%TD*%
%TA.AperFunction,SMDPad,CuDef*%
%ADD21R,0.900000X3.100000*%
%TD*%
%TA.AperFunction,WasherPad*%
%ADD22C,1.000000*%
%TD*%
%TA.AperFunction,SMDPad,CuDef*%
%ADD23R,0.900000X1.250000*%
%TD*%
%TA.AperFunction,ViaPad*%
%ADD24C,0.600000*%
%TD*%
%TA.AperFunction,Conductor*%
%ADD25C,1.000000*%
%TD*%
%TA.AperFunction,Conductor*%
%ADD26C,0.200000*%
%TD*%
%TA.AperFunction,Conductor*%
%ADD27C,0.500000*%
%TD*%
G04 APERTURE END LIST*
D10*
%TO.P,U1,1,TX0/PD3*%
%TO.N,/NV_CS*%
X194828733Y-91474608D03*
%TO.P,U1,2,RX1/PD2*%
%TO.N,unconnected-(U1-RX1{slash}PD2-Pad2)*%
X194828733Y-94014608D03*
%TO.P,U1,3,GND*%
%TO.N,/GND*%
X194828733Y-96554608D03*
%TO.P,U1,4,GND*%
X194828733Y-99094608D03*
%TO.P,U1,5,2/PD1*%
%TO.N,/SDA*%
X194828733Y-101634608D03*
%TO.P,U1,6,3/PD0*%
%TO.N,/SCL*%
X194828733Y-104174608D03*
%TO.P,U1,7,4/PD4*%
%TO.N,unconnected-(U1-4{slash}PD4-Pad7)*%
X194828733Y-106714608D03*
%TO.P,U1,8,5/PC6*%
%TO.N,/col4*%
X194828733Y-109254608D03*
%TO.P,U1,9,6/PD7*%
%TO.N,/col3*%
X194828733Y-111794608D03*
%TO.P,U1,10,7/PE6*%
%TO.N,/col2*%
X194828733Y-114334608D03*
%TO.P,U1,11,8/PB4*%
%TO.N,/col1*%
X194828733Y-116874608D03*
%TO.P,U1,12,9/PB5*%
%TO.N,/col0*%
X194828733Y-119414608D03*
%TO.P,U1,13,10/PB6*%
%TO.N,/row7*%
X210068733Y-119414608D03*
%TO.P,U1,14,16/PB2*%
%TO.N,/row6*%
X210068733Y-116874608D03*
%TO.P,U1,15,14/PB3*%
%TO.N,/row5*%
X210068733Y-114334608D03*
%TO.P,U1,16,15/PB1*%
%TO.N,/row4*%
X210068733Y-111794608D03*
%TO.P,U1,17,A0/PF7*%
%TO.N,/row3*%
X210068733Y-109254608D03*
%TO.P,U1,18,A1/PF6*%
%TO.N,/row2*%
X210068733Y-106714608D03*
%TO.P,U1,19,A2/PF5*%
%TO.N,/row1*%
X210068733Y-104174608D03*
%TO.P,U1,20,A3/PF4*%
%TO.N,/row0*%
X210068733Y-101634608D03*
%TO.P,U1,21,VCC*%
%TO.N,/VCC*%
X210068733Y-99094608D03*
%TO.P,U1,22,RST*%
%TO.N,/RST*%
X210068733Y-96554608D03*
%TO.P,U1,23,GND*%
%TO.N,/GND*%
X210068733Y-94014608D03*
D11*
%TO.P,U1,24,RAW*%
%TO.N,/RAW*%
X210068733Y-91474608D03*
%TD*%
D12*
%TO.P,D17,2*%
%TO.N,Net-(D17-Pad2)*%
X178242733Y-142194608D03*
%TD*%
D13*
%TO.P,BT1,1,+*%
%TO.N,Net-(BT1-+)*%
X195448733Y-132944608D03*
X199448733Y-132944608D03*
D14*
%TO.P,BT1,2,-*%
%TO.N,/GND*%
X197448733Y-132944608D03*
%TD*%
D15*
%TO.P,SW15,1*%
%TO.N,Net-(D15-Pad2)*%
X175448733Y-101894608D03*
%TO.P,SW15,2*%
%TO.N,/col4*%
X170448733Y-99694608D03*
%TD*%
D12*
%TO.P,D35,2*%
%TO.N,Net-(D35-Pad2)*%
X232242733Y-142194608D03*
%TD*%
D15*
%TO.P,SW33,1*%
%TO.N,Net-(D33-Pad2)*%
X229448733Y-101894608D03*
%TO.P,SW33,2*%
%TO.N,/col4*%
X224448733Y-99694608D03*
%TD*%
D16*
%TO.P,H6,1*%
%TO.N,N/C*%
X215948733Y-90544608D03*
%TD*%
D12*
%TO.P,D32,2*%
%TO.N,Net-(D32-Pad2)*%
X232242733Y-108194608D03*
%TD*%
%TO.P,D27,2*%
%TO.N,Net-(D27-Pad2)*%
X268242733Y-91194608D03*
%TD*%
D15*
%TO.P,SW20,1*%
%TO.N,Net-(D20-Pad2)*%
X301448733Y-118894608D03*
%TO.P,SW20,2*%
%TO.N,/col0*%
X296448733Y-116694608D03*
%TD*%
D16*
%TO.P,H10,1*%
%TO.N,N/C*%
X238448733Y-104444608D03*
%TD*%
D15*
%TO.P,SW26,1*%
%TO.N,Net-(D26-Pad2)*%
X265448733Y-118894608D03*
%TO.P,SW26,2*%
%TO.N,/col2*%
X260448733Y-116694608D03*
%TD*%
D12*
%TO.P,D15,2*%
%TO.N,Net-(D15-Pad2)*%
X178242733Y-91194608D03*
%TD*%
%TO.P,D31,2*%
%TO.N,Net-(D31-Pad2)*%
X232242733Y-125194608D03*
%TD*%
D15*
%TO.P,SW28,1*%
%TO.N,Net-(D28-Pad2)*%
X247448733Y-135894608D03*
%TO.P,SW28,2*%
%TO.N,/col3*%
X242448733Y-133694608D03*
%TD*%
D12*
%TO.P,D10,2*%
%TO.N,Net-(D10-Pad2)*%
X160242733Y-125194608D03*
%TD*%
%TO.P,D21,2*%
%TO.N,Net-(D21-Pad2)*%
X304242733Y-91194608D03*
%TD*%
D15*
%TO.P,SW13,1*%
%TO.N,Net-(D13-Pad2)*%
X175448733Y-135894608D03*
%TO.P,SW13,2*%
%TO.N,/col4*%
X170448733Y-133694608D03*
%TD*%
%TO.P,SW11,1*%
%TO.N,Net-(D11-Pad2)*%
X157448733Y-118894608D03*
%TO.P,SW11,2*%
%TO.N,/col3*%
X152448733Y-116694608D03*
%TD*%
D16*
%TO.P,H1,1*%
%TO.N,N/C*%
X112448733Y-104444608D03*
%TD*%
%TO.P,H12,1*%
%TO.N,N/C*%
X238448733Y-138444608D03*
%TD*%
%TO.P,H7,1*%
%TO.N,N/C*%
X188948733Y-134144608D03*
%TD*%
%TO.P,H5,1*%
%TO.N,N/C*%
X188948733Y-90544608D03*
%TD*%
D15*
%TO.P,SW19,1*%
%TO.N,Net-(D19-Pad2)*%
X301448733Y-135894608D03*
%TO.P,SW19,2*%
%TO.N,/col0*%
X296448733Y-133694608D03*
%TD*%
%TO.P,SW30,1*%
%TO.N,Net-(D30-Pad2)*%
X247448733Y-101894608D03*
%TO.P,SW30,2*%
%TO.N,/col3*%
X242448733Y-99694608D03*
%TD*%
%TO.P,SW36,1*%
%TO.N,Net-(D36-Pad2)*%
X211448733Y-152894608D03*
%TO.P,SW36,2*%
%TO.N,/col4*%
X206448733Y-150694608D03*
%TD*%
D16*
%TO.P,H9,1*%
%TO.N,N/C*%
X166448733Y-104444608D03*
%TD*%
D12*
%TO.P,D20,2*%
%TO.N,Net-(D20-Pad2)*%
X304242733Y-108194608D03*
%TD*%
%TO.P,D11,2*%
%TO.N,Net-(D11-Pad2)*%
X160242733Y-108194608D03*
%TD*%
D15*
%TO.P,SW8,1*%
%TO.N,Net-(D8-Pad2)*%
X139448733Y-118894608D03*
%TO.P,SW8,2*%
%TO.N,/col2*%
X134448733Y-116694608D03*
%TD*%
D16*
%TO.P,H2,1*%
%TO.N,N/C*%
X292448733Y-104444608D03*
%TD*%
D15*
%TO.P,SW14,1*%
%TO.N,Net-(D14-Pad2)*%
X175448733Y-118894608D03*
%TO.P,SW14,2*%
%TO.N,/col4*%
X170448733Y-116694608D03*
%TD*%
%TO.P,SW34,1*%
%TO.N,Net-(D34-Pad2)*%
X247448733Y-152894608D03*
%TO.P,SW34,2*%
%TO.N,/col2*%
X242448733Y-150694608D03*
%TD*%
D12*
%TO.P,D33,2*%
%TO.N,Net-(D33-Pad2)*%
X232242733Y-91194608D03*
%TD*%
D15*
%TO.P,SW4,1*%
%TO.N,Net-(D4-Pad2)*%
X121448733Y-135894608D03*
%TO.P,SW4,2*%
%TO.N,/col1*%
X116448733Y-133694608D03*
%TD*%
%TO.P,SW6,1*%
%TO.N,Net-(D6-Pad2)*%
X121448733Y-101894608D03*
%TO.P,SW6,2*%
%TO.N,/col1*%
X116448733Y-99694608D03*
%TD*%
D12*
%TO.P,D14,2*%
%TO.N,Net-(D14-Pad2)*%
X178242733Y-108194608D03*
%TD*%
D15*
%TO.P,SW22,1*%
%TO.N,Net-(D22-Pad2)*%
X283448733Y-135894608D03*
%TO.P,SW22,2*%
%TO.N,/col1*%
X278448733Y-133694608D03*
%TD*%
D12*
%TO.P,D28,2*%
%TO.N,Net-(D28-Pad2)*%
X250242733Y-125194608D03*
%TD*%
D15*
%TO.P,SW25,1*%
%TO.N,Net-(D25-Pad2)*%
X265448733Y-135894608D03*
%TO.P,SW25,2*%
%TO.N,/col2*%
X260448733Y-133694608D03*
%TD*%
%TO.P,SW7,1*%
%TO.N,Net-(D7-Pad2)*%
X139448733Y-135894608D03*
%TO.P,SW7,2*%
%TO.N,/col2*%
X134448733Y-133694608D03*
%TD*%
%TO.P,SW24,1*%
%TO.N,Net-(D24-Pad2)*%
X283448733Y-101894608D03*
%TO.P,SW24,2*%
%TO.N,/col1*%
X278448733Y-99694608D03*
%TD*%
%TO.P,SW9,1*%
%TO.N,Net-(D9-Pad2)*%
X139448733Y-101894608D03*
%TO.P,SW9,2*%
%TO.N,/col2*%
X134448733Y-99694608D03*
%TD*%
D12*
%TO.P,D12,2*%
%TO.N,Net-(D12-Pad2)*%
X160242733Y-91194608D03*
%TD*%
%TO.P,D29,2*%
%TO.N,Net-(D29-Pad2)*%
X250242733Y-108194608D03*
%TD*%
D15*
%TO.P,SW16,1*%
%TO.N,Net-(D16-Pad2)*%
X157448733Y-152894608D03*
%TO.P,SW16,2*%
%TO.N,/col2*%
X152448733Y-150694608D03*
%TD*%
D12*
%TO.P,D18,2*%
%TO.N,Net-(D18-Pad2)*%
X196242733Y-142194608D03*
%TD*%
%TO.P,D16,2*%
%TO.N,Net-(D16-Pad2)*%
X160242733Y-142194608D03*
%TD*%
%TO.P,D13,2*%
%TO.N,Net-(D13-Pad2)*%
X178242733Y-125194608D03*
%TD*%
%TO.P,D1,2*%
%TO.N,Net-(D1-Pad2)*%
X106242733Y-125194608D03*
%TD*%
%TO.P,D3,2*%
%TO.N,Net-(D3-Pad2)*%
X106242733Y-91194608D03*
%TD*%
D15*
%TO.P,SW21,1*%
%TO.N,Net-(D21-Pad2)*%
X301448733Y-101894608D03*
%TO.P,SW21,2*%
%TO.N,/col0*%
X296448733Y-99694608D03*
%TD*%
D12*
%TO.P,D9,2*%
%TO.N,Net-(D9-Pad2)*%
X142242733Y-91194608D03*
%TD*%
D15*
%TO.P,SW23,1*%
%TO.N,Net-(D23-Pad2)*%
X283448733Y-118894608D03*
%TO.P,SW23,2*%
%TO.N,/col1*%
X278448733Y-116694608D03*
%TD*%
D12*
%TO.P,D34,2*%
%TO.N,Net-(D34-Pad2)*%
X250242733Y-142194608D03*
%TD*%
D15*
%TO.P,SW12,1*%
%TO.N,Net-(D12-Pad2)*%
X157448733Y-101894608D03*
%TO.P,SW12,2*%
%TO.N,/col3*%
X152448733Y-99694608D03*
%TD*%
D12*
%TO.P,D36,2*%
%TO.N,Net-(D36-Pad2)*%
X214242733Y-142194608D03*
%TD*%
D15*
%TO.P,SW17,1*%
%TO.N,Net-(D17-Pad2)*%
X175448733Y-152894608D03*
%TO.P,SW17,2*%
%TO.N,/col3*%
X170448733Y-150694608D03*
%TD*%
D12*
%TO.P,D6,2*%
%TO.N,Net-(D6-Pad2)*%
X124242733Y-91194608D03*
%TD*%
D15*
%TO.P,SW35,1*%
%TO.N,Net-(D35-Pad2)*%
X229448733Y-152894608D03*
%TO.P,SW35,2*%
%TO.N,/col3*%
X224448733Y-150694608D03*
%TD*%
D17*
%TO.P,J2,1,Pin_1*%
%TO.N,/NV_CS*%
X208793650Y-124444608D03*
%TD*%
D12*
%TO.P,D24,2*%
%TO.N,Net-(D24-Pad2)*%
X286242733Y-91194608D03*
%TD*%
D15*
%TO.P,SW1,1*%
%TO.N,Net-(D1-Pad2)*%
X103448733Y-135894608D03*
%TO.P,SW1,2*%
%TO.N,/col0*%
X98448733Y-133694608D03*
%TD*%
%TO.P,SW31,1*%
%TO.N,Net-(D31-Pad2)*%
X229448733Y-135894608D03*
%TO.P,SW31,2*%
%TO.N,/col4*%
X224448733Y-133694608D03*
%TD*%
%TO.P,SW5,1*%
%TO.N,Net-(D5-Pad2)*%
X121448733Y-118894608D03*
%TO.P,SW5,2*%
%TO.N,/col1*%
X116448733Y-116694608D03*
%TD*%
%TO.P,SW32,1*%
%TO.N,Net-(D32-Pad2)*%
X229448733Y-118894608D03*
%TO.P,SW32,2*%
%TO.N,/col4*%
X224448733Y-116694608D03*
%TD*%
D16*
%TO.P,H4,1*%
%TO.N,N/C*%
X292448733Y-121444608D03*
%TD*%
D15*
%TO.P,SW27,1*%
%TO.N,Net-(D27-Pad2)*%
X265448733Y-101894608D03*
%TO.P,SW27,2*%
%TO.N,/col2*%
X260448733Y-99694608D03*
%TD*%
D16*
%TO.P,H3,1*%
%TO.N,N/C*%
X112448733Y-121444608D03*
%TD*%
D12*
%TO.P,D2,2*%
%TO.N,Net-(D2-Pad2)*%
X106242733Y-108194608D03*
%TD*%
D18*
%TO.P,J1,1,GND*%
%TO.N,/GND*%
X206258733Y-124444608D03*
D19*
%TO.P,J1,2,VCC*%
%TO.N,/VCC*%
X203718733Y-124444608D03*
D20*
%TO.P,J1,3,SCL*%
%TO.N,/SCL*%
X201178733Y-124444608D03*
%TO.P,J1,4,SDA*%
%TO.N,/SDA*%
X198638733Y-124444608D03*
%TD*%
D12*
%TO.P,D26,2*%
%TO.N,Net-(D26-Pad2)*%
X268242733Y-108194608D03*
%TD*%
%TO.P,D23,2*%
%TO.N,Net-(D23-Pad2)*%
X286242733Y-108194608D03*
%TD*%
D15*
%TO.P,SW2,1*%
%TO.N,Net-(D2-Pad2)*%
X103448733Y-118894608D03*
%TO.P,SW2,2*%
%TO.N,/col0*%
X98448733Y-116694608D03*
%TD*%
D12*
%TO.P,D7,2*%
%TO.N,Net-(D7-Pad2)*%
X142242733Y-125194608D03*
%TD*%
D16*
%TO.P,H11,1*%
%TO.N,N/C*%
X166448733Y-138444608D03*
%TD*%
D15*
%TO.P,SW18,1*%
%TO.N,Net-(D18-Pad2)*%
X193448733Y-152894608D03*
%TO.P,SW18,2*%
%TO.N,/col4*%
X188448733Y-150694608D03*
%TD*%
D16*
%TO.P,H8,1*%
%TO.N,N/C*%
X215948733Y-134144608D03*
%TD*%
D12*
%TO.P,D5,2*%
%TO.N,Net-(D5-Pad2)*%
X124242733Y-108194608D03*
%TD*%
D15*
%TO.P,SW10,1*%
%TO.N,Net-(D10-Pad2)*%
X157448733Y-135894608D03*
%TO.P,SW10,2*%
%TO.N,/col3*%
X152448733Y-133694608D03*
%TD*%
D12*
%TO.P,D25,2*%
%TO.N,Net-(D25-Pad2)*%
X268242733Y-125194608D03*
%TD*%
%TO.P,D8,2*%
%TO.N,Net-(D8-Pad2)*%
X142242733Y-108194608D03*
%TD*%
D15*
%TO.P,SW3,1*%
%TO.N,Net-(D3-Pad2)*%
X103448733Y-101894608D03*
%TO.P,SW3,2*%
%TO.N,/col0*%
X98448733Y-99694608D03*
%TD*%
D12*
%TO.P,D22,2*%
%TO.N,Net-(D22-Pad2)*%
X286242733Y-125194608D03*
%TD*%
%TO.P,D30,2*%
%TO.N,Net-(D30-Pad2)*%
X250242733Y-91194608D03*
%TD*%
%TO.P,D19,2*%
%TO.N,Net-(D19-Pad2)*%
X304242733Y-125194608D03*
%TD*%
%TO.P,D4,2*%
%TO.N,Net-(D4-Pad2)*%
X124242733Y-125194608D03*
%TD*%
D15*
%TO.P,SW29,1*%
%TO.N,Net-(D29-Pad2)*%
X247448733Y-118894608D03*
%TO.P,SW29,2*%
%TO.N,/col3*%
X242448733Y-116694608D03*
%TD*%
D21*
%TO.P,PWR1,*%
%TO.N,*%
X198748733Y-89194608D03*
D22*
X200948733Y-89194608D03*
X203948733Y-89194608D03*
D21*
X206148733Y-89194608D03*
D23*
%TO.P,PWR1,1,A*%
%TO.N,unconnected-(PWR1-A-Pad1)*%
X200198733Y-91269608D03*
%TO.P,PWR1,2,B*%
%TO.N,Net-(BT1-+)*%
X203198733Y-91269608D03*
%TO.P,PWR1,3,C*%
%TO.N,/RAW*%
X204698733Y-91269608D03*
%TD*%
D24*
%TO.N,/GND*%
X206258733Y-96501235D03*
%TO.N,/row2*%
X179239417Y-107962423D03*
X179243948Y-124369355D03*
%TO.N,/row3*%
X182421430Y-141367608D03*
X182418157Y-110689899D03*
%TO.N,/row6*%
X220556390Y-124375171D03*
X220557835Y-116871891D03*
%TO.N,/row7*%
X219717983Y-119467582D03*
X219717983Y-141375297D03*
%TO.N,/SCL*%
X204983235Y-104181961D03*
%TO.N,/SDA*%
X204253576Y-101630293D03*
%TO.N,/RST*%
X213278618Y-135837308D03*
%TO.N,/col0*%
X191106716Y-123099763D03*
X297698732Y-123506027D03*
X99698732Y-123735712D03*
%TO.N,/col1*%
X117698732Y-122516769D03*
X279698732Y-122516831D03*
X190490712Y-122522134D03*
%TO.N,/col2*%
X189911904Y-121985788D03*
X261698732Y-121983515D03*
X135698732Y-121993278D03*
X251224312Y-150697564D03*
%TO.N,/col3*%
X153698732Y-121370801D03*
X233161853Y-150697963D03*
X189216755Y-121458788D03*
X243698732Y-121459288D03*
%TO.N,/col4*%
X224448784Y-139988942D03*
X188571864Y-120804955D03*
X215094780Y-139977020D03*
X171698732Y-120779748D03*
X225698732Y-120800566D03*
X215101717Y-150664450D03*
%TO.N,/NV_CS*%
X207862869Y-95406671D03*
%TD*%
D25*
%TO.N,Net-(BT1-+)*%
X203198733Y-120224649D02*
X203198733Y-91269608D01*
X199448733Y-132944608D02*
X199448733Y-133516113D01*
X196948733Y-121724649D02*
X201698733Y-121724649D01*
X195448733Y-133516113D02*
X195448733Y-132944608D01*
X197948733Y-135016113D02*
X196948733Y-135016113D01*
X195448733Y-132944608D02*
X195448733Y-123224649D01*
X195448687Y-133516113D02*
G75*
G03*
X196948733Y-135016113I1500013J13D01*
G01*
X201698733Y-121724633D02*
G75*
G03*
X203198733Y-120224649I-33J1500033D01*
G01*
X197948733Y-135016133D02*
G75*
G03*
X199448733Y-133516113I-33J1500033D01*
G01*
X196948733Y-121724633D02*
G75*
G03*
X195448733Y-123224649I-33J-1499967D01*
G01*
%TO.N,/GND*%
X206258733Y-124444608D02*
X206258733Y-96501235D01*
X194828733Y-96554608D02*
X194828733Y-99094608D01*
X207758733Y-94014608D02*
X210068733Y-94014608D01*
X206258733Y-96501235D02*
X206258733Y-95514608D01*
X207758733Y-94014633D02*
G75*
G03*
X206258733Y-95514608I-33J-1499967D01*
G01*
D26*
%TO.N,/row2*%
X179240053Y-124365460D02*
X179243948Y-124369355D01*
X179240053Y-107963059D02*
X179240053Y-124365460D01*
X179239417Y-107962423D02*
X179240053Y-107963059D01*
%TO.N,Net-(D1-Pad2)*%
X106242733Y-125194608D02*
X106242733Y-134394608D01*
X104742733Y-135894608D02*
X103448733Y-135894608D01*
X104742733Y-135894633D02*
G75*
G03*
X106242733Y-134394608I-33J1500033D01*
G01*
%TO.N,Net-(D2-Pad2)*%
X104742733Y-118894608D02*
X103448733Y-118894608D01*
X106242733Y-108194608D02*
X106242733Y-117394608D01*
X104742733Y-118894633D02*
G75*
G03*
X106242733Y-117394608I-33J1500033D01*
G01*
%TO.N,Net-(D3-Pad2)*%
X104742733Y-101894608D02*
X103448733Y-101894608D01*
X106242733Y-91194608D02*
X106242733Y-100394608D01*
X104742733Y-101894633D02*
G75*
G03*
X106242733Y-100394608I-33J1500033D01*
G01*
%TO.N,Net-(D4-Pad2)*%
X124242733Y-125194608D02*
X124242733Y-134394608D01*
X122742733Y-135894608D02*
X121448733Y-135894608D01*
X122742733Y-135894633D02*
G75*
G03*
X124242733Y-134394608I-33J1500033D01*
G01*
%TO.N,Net-(D5-Pad2)*%
X124242733Y-108194608D02*
X124242733Y-117394608D01*
X122742733Y-118894608D02*
X121448733Y-118894608D01*
X122742733Y-118894633D02*
G75*
G03*
X124242733Y-117394608I-33J1500033D01*
G01*
%TO.N,Net-(D6-Pad2)*%
X122742733Y-101894608D02*
X121448733Y-101894608D01*
X124242733Y-91194608D02*
X124242733Y-100394608D01*
X122742733Y-101894633D02*
G75*
G03*
X124242733Y-100394608I-33J1500033D01*
G01*
%TO.N,Net-(D7-Pad2)*%
X142242733Y-125194608D02*
X142242733Y-134394608D01*
X140742733Y-135894608D02*
X139448733Y-135894608D01*
X140742733Y-135894633D02*
G75*
G03*
X142242733Y-134394608I-33J1500033D01*
G01*
%TO.N,Net-(D8-Pad2)*%
X140742733Y-118894608D02*
X139448733Y-118894608D01*
X142242733Y-108194608D02*
X142242733Y-117394608D01*
X140742733Y-118894633D02*
G75*
G03*
X142242733Y-117394608I-33J1500033D01*
G01*
%TO.N,Net-(D9-Pad2)*%
X140742733Y-101894608D02*
X139448733Y-101894608D01*
X142242733Y-91194608D02*
X142242733Y-100394608D01*
X140742733Y-101894633D02*
G75*
G03*
X142242733Y-100394608I-33J1500033D01*
G01*
%TO.N,Net-(D10-Pad2)*%
X158742733Y-135894608D02*
X157448733Y-135894608D01*
X160242733Y-125194608D02*
X160242733Y-134394608D01*
X158742733Y-135894633D02*
G75*
G03*
X160242733Y-134394608I-33J1500033D01*
G01*
%TO.N,Net-(D11-Pad2)*%
X160242733Y-108194608D02*
X160242733Y-117394608D01*
X158742733Y-118894608D02*
X157448733Y-118894608D01*
X158742733Y-118894633D02*
G75*
G03*
X160242733Y-117394608I-33J1500033D01*
G01*
%TO.N,Net-(D12-Pad2)*%
X158742733Y-101894608D02*
X157448733Y-101894608D01*
X160242733Y-91194608D02*
X160242733Y-100394608D01*
X158742733Y-101894633D02*
G75*
G03*
X160242733Y-100394608I-33J1500033D01*
G01*
%TO.N,Net-(D13-Pad2)*%
X178242733Y-125194608D02*
X178242733Y-134394608D01*
X176742733Y-135894608D02*
X175448733Y-135894608D01*
X176742733Y-135894633D02*
G75*
G03*
X178242733Y-134394608I-33J1500033D01*
G01*
%TO.N,Net-(D14-Pad2)*%
X178242733Y-108194608D02*
X178242733Y-117394608D01*
X176742733Y-118894608D02*
X175448733Y-118894608D01*
X176742733Y-118894633D02*
G75*
G03*
X178242733Y-117394608I-33J1500033D01*
G01*
%TO.N,Net-(D15-Pad2)*%
X176742733Y-101894608D02*
X175448733Y-101894608D01*
X178242733Y-91194608D02*
X178242733Y-100394608D01*
X176742733Y-101894633D02*
G75*
G03*
X178242733Y-100394608I-33J1500033D01*
G01*
%TO.N,/row3*%
X182421430Y-110693172D02*
X182421430Y-141367608D01*
X182418157Y-110689899D02*
X182421430Y-110693172D01*
%TO.N,Net-(D16-Pad2)*%
X158742733Y-152894608D02*
X157448733Y-152894608D01*
X160242733Y-142194608D02*
X160242733Y-151394608D01*
X158742733Y-152894633D02*
G75*
G03*
X160242733Y-151394608I-33J1500033D01*
G01*
%TO.N,Net-(D17-Pad2)*%
X178242733Y-142194608D02*
X178242733Y-151394608D01*
X176742733Y-152894608D02*
X175448733Y-152894608D01*
X176742733Y-152894633D02*
G75*
G03*
X178242733Y-151394608I-33J1500033D01*
G01*
%TO.N,Net-(D18-Pad2)*%
X196242733Y-142194608D02*
X196242733Y-151394608D01*
X194742733Y-152894608D02*
X193448733Y-152894608D01*
X194742733Y-152894633D02*
G75*
G03*
X196242733Y-151394608I-33J1500033D01*
G01*
%TO.N,/row6*%
X220556390Y-124375171D02*
X220557835Y-124373726D01*
X220557835Y-124373726D02*
X220557835Y-116871891D01*
%TO.N,Net-(D19-Pad2)*%
X301448733Y-135894608D02*
X302742733Y-135894608D01*
X304242733Y-134394608D02*
X304242733Y-125194608D01*
X302742733Y-135894633D02*
G75*
G03*
X304242733Y-134394608I-33J1500033D01*
G01*
%TO.N,Net-(D20-Pad2)*%
X304242733Y-117394608D02*
X304242733Y-108194608D01*
X301448733Y-118894608D02*
X302742733Y-118894608D01*
X302742733Y-118894633D02*
G75*
G03*
X304242733Y-117394608I-33J1500033D01*
G01*
%TO.N,Net-(D21-Pad2)*%
X301448733Y-101894608D02*
X302742733Y-101894608D01*
X304242733Y-100394608D02*
X304242733Y-91194608D01*
X302742733Y-101894633D02*
G75*
G03*
X304242733Y-100394608I-33J1500033D01*
G01*
%TO.N,Net-(D22-Pad2)*%
X283448733Y-135894608D02*
X284742733Y-135894608D01*
X286242733Y-134394608D02*
X286242733Y-125194608D01*
X284742733Y-135894633D02*
G75*
G03*
X286242733Y-134394608I-33J1500033D01*
G01*
%TO.N,Net-(D23-Pad2)*%
X286242733Y-117394608D02*
X286242733Y-108194608D01*
X283448733Y-118894608D02*
X284742733Y-118894608D01*
X284742733Y-118894633D02*
G75*
G03*
X286242733Y-117394608I-33J1500033D01*
G01*
%TO.N,Net-(D24-Pad2)*%
X286242733Y-100394608D02*
X286242733Y-91194608D01*
X283448733Y-101894608D02*
X284742733Y-101894608D01*
X284742733Y-101894633D02*
G75*
G03*
X286242733Y-100394608I-33J1500033D01*
G01*
%TO.N,Net-(D25-Pad2)*%
X268242733Y-134394608D02*
X268242733Y-125194608D01*
X265448733Y-135894608D02*
X266742733Y-135894608D01*
X266742733Y-135894633D02*
G75*
G03*
X268242733Y-134394608I-33J1500033D01*
G01*
%TO.N,Net-(D26-Pad2)*%
X268242733Y-117394608D02*
X268242733Y-108194608D01*
X265448733Y-118894608D02*
X266742733Y-118894608D01*
X266742733Y-118894633D02*
G75*
G03*
X268242733Y-117394608I-33J1500033D01*
G01*
%TO.N,Net-(D27-Pad2)*%
X268242733Y-100394608D02*
X268242733Y-91194608D01*
X265448733Y-101894608D02*
X266742733Y-101894608D01*
X266742733Y-101894633D02*
G75*
G03*
X268242733Y-100394608I-33J1500033D01*
G01*
%TO.N,Net-(D28-Pad2)*%
X247448733Y-135894608D02*
X248742733Y-135894608D01*
X250242733Y-134394608D02*
X250242733Y-125194608D01*
X248742733Y-135894633D02*
G75*
G03*
X250242733Y-134394608I-33J1500033D01*
G01*
%TO.N,Net-(D29-Pad2)*%
X247448733Y-118894608D02*
X248742733Y-118894608D01*
X250242733Y-117394608D02*
X250242733Y-108194608D01*
X248742733Y-118894633D02*
G75*
G03*
X250242733Y-117394608I-33J1500033D01*
G01*
%TO.N,Net-(D30-Pad2)*%
X247448733Y-101894608D02*
X248742733Y-101894608D01*
X250242733Y-100394608D02*
X250242733Y-91194608D01*
X248742733Y-101894633D02*
G75*
G03*
X250242733Y-100394608I-33J1500033D01*
G01*
%TO.N,Net-(D31-Pad2)*%
X229448733Y-135894608D02*
X230742733Y-135894608D01*
X232242733Y-134394608D02*
X232242733Y-125194608D01*
X230742733Y-135894633D02*
G75*
G03*
X232242733Y-134394608I-33J1500033D01*
G01*
%TO.N,Net-(D32-Pad2)*%
X232242733Y-117394608D02*
X232242733Y-108194608D01*
X229448733Y-118894608D02*
X230742733Y-118894608D01*
X230742733Y-118894633D02*
G75*
G03*
X232242733Y-117394608I-33J1500033D01*
G01*
%TO.N,Net-(D33-Pad2)*%
X232242733Y-100394608D02*
X232242733Y-91194608D01*
X229448733Y-101894608D02*
X230742733Y-101894608D01*
X230742733Y-101894633D02*
G75*
G03*
X232242733Y-100394608I-33J1500033D01*
G01*
%TO.N,/row7*%
X219717983Y-119467582D02*
X219717983Y-141375297D01*
%TO.N,Net-(D34-Pad2)*%
X248742733Y-152894608D02*
X247448733Y-152894608D01*
X250242733Y-142194608D02*
X250242733Y-151394608D01*
X248742733Y-152894633D02*
G75*
G03*
X250242733Y-151394608I-33J1500033D01*
G01*
%TO.N,Net-(D35-Pad2)*%
X232242733Y-142194608D02*
X232242733Y-151394608D01*
X230742733Y-152894608D02*
X229448733Y-152894608D01*
X230742733Y-152894633D02*
G75*
G03*
X232242733Y-151394608I-33J1500033D01*
G01*
%TO.N,Net-(D36-Pad2)*%
X212742733Y-152894608D02*
X211448733Y-152894608D01*
X214242733Y-142194608D02*
X214242733Y-151394608D01*
X212742733Y-152894633D02*
G75*
G03*
X214242733Y-151394608I-33J1500033D01*
G01*
D25*
%TO.N,/VCC*%
X210422844Y-99094608D02*
X210068733Y-99094608D01*
X203718733Y-124444608D02*
X203718733Y-124832404D01*
X211922844Y-124832404D02*
X211922844Y-100594608D01*
X205218733Y-126332404D02*
X210422844Y-126332404D01*
X210422844Y-126332444D02*
G75*
G03*
X211922844Y-124832404I-44J1500044D01*
G01*
X211922792Y-100594608D02*
G75*
G03*
X210422844Y-99094608I-1499992J8D01*
G01*
X203718696Y-124832404D02*
G75*
G03*
X205218733Y-126332404I1500004J4D01*
G01*
D26*
%TO.N,/SCL*%
X204983235Y-121402836D02*
X204983235Y-104181961D01*
X202178733Y-123122559D02*
X203263512Y-123122559D01*
X201178733Y-124444608D02*
X201178733Y-124122559D01*
X203263512Y-123122535D02*
G75*
G03*
X204983235Y-121402836I-12J1719735D01*
G01*
X202178733Y-123122633D02*
G75*
G03*
X201178733Y-124122559I-33J-999967D01*
G01*
%TO.N,/SDA*%
X200138733Y-122691736D02*
X202753576Y-122691736D01*
X198638733Y-124444608D02*
X198638733Y-124191736D01*
X204253576Y-121191736D02*
X204253576Y-101630293D01*
X202753576Y-122691676D02*
G75*
G03*
X204253576Y-121191736I24J1499976D01*
G01*
X200138733Y-122691733D02*
G75*
G03*
X198638733Y-124191736I-33J-1499967D01*
G01*
D25*
%TO.N,/RAW*%
X210060447Y-91482894D02*
X210068733Y-91474608D01*
X204912019Y-91482894D02*
X210060447Y-91482894D01*
D27*
X204698733Y-91269608D02*
X204912019Y-91482894D01*
D26*
%TO.N,/RST*%
X211765742Y-96554608D02*
X210068733Y-96554608D01*
X213278618Y-135837308D02*
X213265742Y-135824432D01*
X213265742Y-135824432D02*
X213265742Y-98054608D01*
X213265692Y-98054608D02*
G75*
G03*
X211765742Y-96554608I-1499992J8D01*
G01*
%TO.N,/col0*%
X296448733Y-116694608D02*
X297259392Y-117505267D01*
X99698732Y-123735712D02*
X99698732Y-131823289D01*
X297259392Y-132883949D02*
X296448733Y-133694608D01*
X191106716Y-123099763D02*
X191106716Y-120914608D01*
X98448733Y-99694608D02*
X99259392Y-100505267D01*
X192606716Y-119414608D02*
X194828733Y-119414608D01*
X297698732Y-123506027D02*
X297698732Y-131823289D01*
X297698732Y-118565927D02*
X297698732Y-123506027D01*
X297698732Y-101565927D02*
X297698732Y-114823289D01*
X99259392Y-117505267D02*
X98448733Y-116694608D01*
X296448733Y-99694608D02*
X297259392Y-100505267D01*
X99698732Y-123735712D02*
X99698732Y-118565927D01*
X99259392Y-132883949D02*
X98448733Y-133694608D01*
X99259392Y-115883949D02*
X98448733Y-116694608D01*
X99698732Y-101565927D02*
X99698732Y-114823289D01*
X297259392Y-115883949D02*
X296448733Y-116694608D01*
X99698774Y-118565927D02*
G75*
G03*
X99259392Y-117505267I-1500074J-73D01*
G01*
X192606716Y-119414616D02*
G75*
G03*
X191106716Y-120914608I-16J-1499984D01*
G01*
X297698703Y-118565927D02*
G75*
G03*
X297259392Y-117505267I-1500003J27D01*
G01*
X297698703Y-101565927D02*
G75*
G03*
X297259392Y-100505267I-1500003J27D01*
G01*
X297259404Y-115883961D02*
G75*
G03*
X297698732Y-114823289I-1060704J1060661D01*
G01*
X99259404Y-132883961D02*
G75*
G03*
X99698732Y-131823289I-1060704J1060661D01*
G01*
X99698703Y-101565927D02*
G75*
G03*
X99259392Y-100505267I-1500003J27D01*
G01*
X99259404Y-115883961D02*
G75*
G03*
X99698732Y-114823289I-1060704J1060661D01*
G01*
X297259404Y-132883961D02*
G75*
G03*
X297698732Y-131823289I-1060704J1060661D01*
G01*
%TO.N,/col1*%
X279259392Y-115883949D02*
X278448733Y-116694608D01*
X279698732Y-118565927D02*
X279698732Y-122516831D01*
X278448733Y-116694608D02*
X279259392Y-117505267D01*
X117259392Y-115883949D02*
X116448733Y-116694608D01*
X117259392Y-117505267D02*
X116448733Y-116694608D01*
X116448733Y-99694608D02*
X117259392Y-100505267D01*
X279698732Y-122516831D02*
X279698732Y-131823289D01*
X117698732Y-122516769D02*
X117698732Y-131823289D01*
X278448733Y-99694608D02*
X279259392Y-100505267D01*
X279259392Y-132883949D02*
X278448733Y-133694608D01*
X190490712Y-122522134D02*
X190490712Y-118374608D01*
X279698732Y-101565927D02*
X279698732Y-114823289D01*
X117698732Y-122516769D02*
X117698732Y-118565927D01*
X191990712Y-116874608D02*
X194828733Y-116874608D01*
X117698732Y-101565927D02*
X117698732Y-114823289D01*
X117259392Y-132883949D02*
X116448733Y-133694608D01*
X191990712Y-116874612D02*
G75*
G03*
X190490712Y-118374608I-12J-1499988D01*
G01*
X279259404Y-115883961D02*
G75*
G03*
X279698732Y-114823289I-1060704J1060661D01*
G01*
X117698703Y-101565927D02*
G75*
G03*
X117259392Y-100505267I-1500003J27D01*
G01*
X279259404Y-132883961D02*
G75*
G03*
X279698732Y-131823289I-1060704J1060661D01*
G01*
X279698703Y-118565927D02*
G75*
G03*
X279259392Y-117505267I-1500003J27D01*
G01*
X279698703Y-101565927D02*
G75*
G03*
X279259392Y-100505267I-1500003J27D01*
G01*
X117259404Y-132883961D02*
G75*
G03*
X117698732Y-131823289I-1060704J1060661D01*
G01*
X117259404Y-115883961D02*
G75*
G03*
X117698732Y-114823289I-1060704J1060661D01*
G01*
X117698774Y-118565927D02*
G75*
G03*
X117259392Y-117505267I-1500074J-73D01*
G01*
%TO.N,/col2*%
X134448733Y-99694608D02*
X135259392Y-100505267D01*
X251224312Y-150697564D02*
X251224312Y-135194608D01*
X189911904Y-121985788D02*
X189911904Y-115834608D01*
X260448733Y-116694608D02*
X261259392Y-117505267D01*
X261698732Y-121983515D02*
X261698732Y-131823289D01*
X135259392Y-115883949D02*
X134448733Y-116694608D01*
X135698732Y-121993278D02*
X135698732Y-131823289D01*
X135259392Y-132883949D02*
X134448733Y-133694608D01*
X261698732Y-118565927D02*
X261698732Y-121983515D01*
X191411904Y-114334608D02*
X194828733Y-114334608D01*
X135698732Y-121993278D02*
X135698732Y-118565927D01*
X134448733Y-133694608D02*
X134448733Y-136277445D01*
X252724312Y-133694608D02*
X260448733Y-133694608D01*
X261259392Y-115883949D02*
X260448733Y-116694608D01*
X135948733Y-137777445D02*
X148471419Y-137777445D01*
X261259392Y-132883949D02*
X260448733Y-133694608D01*
X149971419Y-139277445D02*
X149971419Y-149194608D01*
X261698732Y-101565927D02*
X261698732Y-114823289D01*
X135698732Y-101565927D02*
X135698732Y-114823289D01*
X260448733Y-99694608D02*
X261259392Y-100505267D01*
X135259392Y-117505267D02*
X134448733Y-116694608D01*
X151471419Y-150694608D02*
X152448733Y-150694608D01*
X134448655Y-136277445D02*
G75*
G03*
X135948733Y-137777445I1500045J45D01*
G01*
X261698703Y-118565927D02*
G75*
G03*
X261259392Y-117505267I-1500003J27D01*
G01*
X261259404Y-132883961D02*
G75*
G03*
X261698732Y-131823289I-1060704J1060661D01*
G01*
X252724312Y-133694612D02*
G75*
G03*
X251224312Y-135194608I-12J-1499988D01*
G01*
X261698703Y-101565927D02*
G75*
G03*
X261259392Y-100505267I-1500003J27D01*
G01*
X191411904Y-114334604D02*
G75*
G03*
X189911904Y-115834608I-4J-1499996D01*
G01*
X135698732Y-118565927D02*
G75*
G03*
X135259392Y-117505267I-1499932J27D01*
G01*
X135259404Y-115883961D02*
G75*
G03*
X135698732Y-114823289I-1060704J1060661D01*
G01*
X149971392Y-149194608D02*
G75*
G03*
X151471419Y-150694608I1500008J8D01*
G01*
X149971355Y-139277445D02*
G75*
G03*
X148471419Y-137777445I-1499955J45D01*
G01*
X135698703Y-101565927D02*
G75*
G03*
X135259392Y-100505267I-1500003J27D01*
G01*
X135259384Y-132883941D02*
G75*
G03*
X135698732Y-131823289I-1060584J1060641D01*
G01*
X261259404Y-115883961D02*
G75*
G03*
X261698732Y-114823289I-1060704J1060661D01*
G01*
%TO.N,/col3*%
X153259392Y-117505267D02*
X152448733Y-116694608D01*
X190716755Y-111794608D02*
X194828733Y-111794608D01*
X153698732Y-121370801D02*
X153696704Y-121368773D01*
X153259392Y-115883949D02*
X152448733Y-116694608D01*
X233161853Y-150697963D02*
X233161853Y-135194608D01*
X161367003Y-139293494D02*
X161367003Y-149194608D01*
X234661853Y-133694608D02*
X242448733Y-133694608D01*
X162867003Y-150694608D02*
X170448733Y-150694608D01*
X242448733Y-99694608D02*
X243259392Y-100505267D01*
X153698732Y-101565927D02*
X153698732Y-114823289D01*
X243698732Y-118565927D02*
X243698732Y-131823289D01*
X189216755Y-121458788D02*
X189216755Y-113294608D01*
X153259392Y-132883949D02*
X152448733Y-133694608D01*
X153698732Y-121370801D02*
X153698732Y-131823289D01*
X243259392Y-132883949D02*
X242448733Y-133694608D01*
X153696704Y-121368773D02*
X153696704Y-118448034D01*
X243698732Y-101565927D02*
X243698732Y-114823289D01*
X152448733Y-99694608D02*
X153259392Y-100505267D01*
X152448733Y-133694608D02*
X152448733Y-136293494D01*
X242448733Y-116694608D02*
X243259392Y-117505267D01*
X243259392Y-115883949D02*
X242448733Y-116694608D01*
X153948733Y-137793494D02*
X159867003Y-137793494D01*
X243259404Y-132883961D02*
G75*
G03*
X243698732Y-131823289I-1060704J1060661D01*
G01*
X243259404Y-115883961D02*
G75*
G03*
X243698732Y-114823289I-1060704J1060661D01*
G01*
X152448706Y-136293494D02*
G75*
G03*
X153948733Y-137793494I1499994J-6D01*
G01*
X243698703Y-118565927D02*
G75*
G03*
X243259392Y-117505267I-1500003J27D01*
G01*
X161366992Y-149194608D02*
G75*
G03*
X162867003Y-150694608I1500008J8D01*
G01*
X190716755Y-111794555D02*
G75*
G03*
X189216755Y-113294608I45J-1500045D01*
G01*
X243698703Y-101565927D02*
G75*
G03*
X243259392Y-100505267I-1500003J27D01*
G01*
X161367006Y-139293494D02*
G75*
G03*
X159867003Y-137793494I-1500006J-6D01*
G01*
X234661853Y-133694553D02*
G75*
G03*
X233161853Y-135194608I47J-1500047D01*
G01*
X153696737Y-118448031D02*
G75*
G03*
X153259392Y-117505267I-1515837J-130369D01*
G01*
X153259404Y-132883961D02*
G75*
G03*
X153698732Y-131823289I-1060704J1060661D01*
G01*
X153259404Y-115883961D02*
G75*
G03*
X153698732Y-114823289I-1060704J1060661D01*
G01*
X153698703Y-101565927D02*
G75*
G03*
X153259392Y-100505267I-1500003J27D01*
G01*
%TO.N,/col4*%
X170448733Y-99694608D02*
X171259392Y-100505267D01*
X171259392Y-115883949D02*
X170448733Y-116694608D01*
X171698732Y-120779748D02*
X171696704Y-120777720D01*
X224448784Y-139988942D02*
X224448733Y-139987541D01*
X190071864Y-109254608D02*
X194828733Y-109254608D01*
X215094780Y-139977020D02*
X215101717Y-150664450D01*
X171698732Y-101565927D02*
X171698732Y-114823289D01*
X224448733Y-99694608D02*
X225259392Y-100505267D01*
X225259392Y-115883949D02*
X224448733Y-116694608D01*
X171259392Y-117505267D02*
X170448733Y-116694608D01*
X188571864Y-120804955D02*
X188571864Y-110754608D01*
X225698732Y-120800566D02*
X225698732Y-131823289D01*
X170448733Y-133694608D02*
X170448733Y-136276819D01*
X225698732Y-101565927D02*
X225698732Y-114823289D01*
X179176657Y-139276819D02*
X179176657Y-149194608D01*
X171696704Y-120777720D02*
X171696704Y-118448034D01*
X171948733Y-137776819D02*
X177676657Y-137776819D01*
X171259392Y-132883949D02*
X170448733Y-133694608D01*
X171698732Y-120779748D02*
X171698732Y-131823289D01*
X225698732Y-118565927D02*
X225698732Y-120800566D01*
X224448733Y-116694608D02*
X225259392Y-117505267D01*
X225259392Y-132883949D02*
X224448733Y-133694608D01*
X180676657Y-150694608D02*
X188448733Y-150694608D01*
X224448733Y-133694608D02*
X224448784Y-139988942D01*
X215101717Y-139987541D02*
X215094780Y-139977020D01*
X171696737Y-118448031D02*
G75*
G03*
X171259392Y-117505267I-1515837J-130369D01*
G01*
X179176692Y-149194608D02*
G75*
G03*
X180676657Y-150694608I1500008J8D01*
G01*
X171698703Y-101565927D02*
G75*
G03*
X171259392Y-100505267I-1500003J27D01*
G01*
X190071864Y-109254564D02*
G75*
G03*
X188571864Y-110754608I36J-1500036D01*
G01*
X170448681Y-136276819D02*
G75*
G03*
X171948733Y-137776819I1500019J19D01*
G01*
X171259404Y-132883961D02*
G75*
G03*
X171698732Y-131823289I-1060704J1060661D01*
G01*
X179176681Y-139276819D02*
G75*
G03*
X177676657Y-137776819I-1499981J19D01*
G01*
X225259404Y-115883961D02*
G75*
G03*
X225698732Y-114823289I-1060704J1060661D01*
G01*
X225698703Y-118565927D02*
G75*
G03*
X225259392Y-117505267I-1500003J27D01*
G01*
X171259404Y-115883961D02*
G75*
G03*
X171698732Y-114823289I-1060704J1060661D01*
G01*
X225698703Y-101565927D02*
G75*
G03*
X225259392Y-100505267I-1500003J27D01*
G01*
X225259404Y-132883961D02*
G75*
G03*
X225698732Y-131823289I-1060704J1060661D01*
G01*
%TO.N,/NV_CS*%
X208345808Y-122123080D02*
X208302209Y-122079481D01*
X208793650Y-124444608D02*
X208785148Y-124436106D01*
X207862869Y-121018821D02*
X207862869Y-95406671D01*
X208785148Y-124436106D02*
X208785148Y-123183740D01*
X207862864Y-121018821D02*
G75*
G03*
X208302209Y-122079481I1500036J21D01*
G01*
X208785105Y-123183740D02*
G75*
G03*
X208345808Y-122123080I-1500005J40D01*
G01*
%TD*%
M02*
