%TF.GenerationSoftware,KiCad,Pcbnew,7.0.1*%
%TF.CreationDate,2023-03-24T13:46:13-04:00*%
%TF.ProjectId,kurp,6b757270-2e6b-4696-9361-645f70636258,v1.0.0*%
%TF.SameCoordinates,Original*%
%TF.FileFunction,Legend,Top*%
%TF.FilePolarity,Positive*%
%FSLAX46Y46*%
G04 Gerber Fmt 4.6, Leading zero omitted, Abs format (unit mm)*
G04 Created by KiCad (PCBNEW 7.0.1) date 2023-03-24 13:46:13*
%MOMM*%
%LPD*%
G01*
G04 APERTURE LIST*
G04 Aperture macros list*
%AMRoundRect*
0 Rectangle with rounded corners*
0 $1 Rounding radius*
0 $2 $3 $4 $5 $6 $7 $8 $9 X,Y pos of 4 corners*
0 Add a 4 corners polygon primitive as box body*
4,1,4,$2,$3,$4,$5,$6,$7,$8,$9,$2,$3,0*
0 Add four circle primitives for the rounded corners*
1,1,$1+$1,$2,$3*
1,1,$1+$1,$4,$5*
1,1,$1+$1,$6,$7*
1,1,$1+$1,$8,$9*
0 Add four rect primitives between the rounded corners*
20,1,$1+$1,$2,$3,$4,$5,0*
20,1,$1+$1,$4,$5,$6,$7,0*
20,1,$1+$1,$6,$7,$8,$9,0*
20,1,$1+$1,$8,$9,$2,$3,0*%
%AMFreePoly0*
4,1,14,0.885355,0.885355,0.900000,0.850000,0.900000,-0.850000,0.885355,-0.885355,0.850000,-0.900000,-0.850000,-0.900000,-0.885355,-0.885355,-0.900000,-0.850000,-0.900000,0.510000,-0.885355,0.545355,-0.545355,0.885355,-0.510000,0.900000,0.850000,0.900000,0.885355,0.885355,0.885355,0.885355,$1*%
G04 Aperture macros list end*
%ADD10C,0.150000*%
%ADD11C,0.381000*%
%ADD12C,0.100000*%
%ADD13C,0.360000*%
%ADD14C,0.120000*%
%ADD15C,1.852600*%
%ADD16RoundRect,0.050000X-0.876300X0.876300X-0.876300X-0.876300X0.876300X-0.876300X0.876300X0.876300X0*%
%ADD17RoundRect,0.050000X-0.450000X-0.600000X0.450000X-0.600000X0.450000X0.600000X-0.450000X0.600000X0*%
%ADD18RoundRect,0.050000X0.750000X1.125000X-0.750000X1.125000X-0.750000X-1.125000X0.750000X-1.125000X0*%
%ADD19RoundRect,0.425000X0.375000X0.750000X-0.375000X0.750000X-0.375000X-0.750000X0.375000X-0.750000X0*%
%ADD20C,1.801800*%
%ADD21C,3.529000*%
%ADD22C,3.800000*%
%ADD23FreePoly0,90.000000*%
%ADD24RoundRect,0.475000X-0.425000X0.425000X-0.425000X-0.425000X0.425000X-0.425000X0.425000X0.425000X0*%
%ADD25RoundRect,0.050000X-0.850000X0.850000X-0.850000X-0.850000X0.850000X-0.850000X0.850000X0.850000X0*%
%ADD26O,1.800000X1.800000*%
%ADD27RoundRect,0.050000X-0.850000X-0.500000X0.850000X-0.500000X0.850000X0.500000X-0.850000X0.500000X0*%
%ADD28C,1.100000*%
%ADD29C,0.700000*%
G04 APERTURE END LIST*
D10*
%TO.C,BT1*%
X195753494Y-131079274D02*
X195143971Y-131079274D01*
X195448732Y-130774512D02*
X195448732Y-131384036D01*
X199753494Y-131079274D02*
X199143971Y-131079274D01*
X199448732Y-130774512D02*
X199448732Y-131384036D01*
X197753494Y-131079274D02*
X197143971Y-131079274D01*
%TO.C,J2*%
X208460316Y-120859227D02*
X208460316Y-121573512D01*
X208460316Y-121573512D02*
X208412697Y-121716369D01*
X208412697Y-121716369D02*
X208317459Y-121811608D01*
X208317459Y-121811608D02*
X208174602Y-121859227D01*
X208174602Y-121859227D02*
X208079364Y-121859227D01*
X208888888Y-120954465D02*
X208936507Y-120906846D01*
X208936507Y-120906846D02*
X209031745Y-120859227D01*
X209031745Y-120859227D02*
X209269840Y-120859227D01*
X209269840Y-120859227D02*
X209365078Y-120906846D01*
X209365078Y-120906846D02*
X209412697Y-120954465D01*
X209412697Y-120954465D02*
X209460316Y-121049703D01*
X209460316Y-121049703D02*
X209460316Y-121144941D01*
X209460316Y-121144941D02*
X209412697Y-121287798D01*
X209412697Y-121287798D02*
X208841269Y-121859227D01*
X208841269Y-121859227D02*
X209460316Y-121859227D01*
D11*
%TO.C,U1*%
X208798733Y-90204608D02*
X211338733Y-90204608D01*
X208798733Y-90204608D02*
X208798733Y-92744608D01*
X211338733Y-92744608D02*
X211338733Y-90204608D01*
X208798733Y-92744608D02*
X211338733Y-92744608D01*
G36*
X206372972Y-91284902D02*
G01*
X206398372Y-91383327D01*
X206419803Y-91480958D01*
X206438853Y-91582558D01*
X206246766Y-91582558D01*
X206266609Y-91480958D01*
X206288834Y-91383327D01*
X206314234Y-91284902D01*
X206343603Y-91179333D01*
X206372972Y-91284902D01*
G37*
G36*
X205564538Y-91156711D02*
G01*
X205619703Y-91184096D01*
X205655422Y-91230927D01*
X205667328Y-91298395D01*
X205622878Y-91408727D01*
X205564538Y-91437897D01*
X205478416Y-91447620D01*
X205435553Y-91447620D01*
X205435553Y-91152345D01*
X205467303Y-91148377D01*
X205494291Y-91147583D01*
X205564538Y-91156711D01*
G37*
G36*
X206518228Y-92169933D02*
G01*
X205930853Y-92169933D01*
X205240291Y-92169933D01*
X204909562Y-92169933D01*
X204909562Y-91971496D01*
X205240291Y-91971496D01*
X205435553Y-91971496D01*
X205435553Y-91609545D01*
X205537153Y-91609545D01*
X205590930Y-91699438D01*
X205641134Y-91788139D01*
X205686577Y-91878031D01*
X205726066Y-91971496D01*
X205930853Y-91971496D01*
X205962603Y-91971496D01*
X206165803Y-91971496D01*
X206210253Y-91744483D01*
X206472191Y-91744483D01*
X206518228Y-91971496D01*
X206727778Y-91971496D01*
X206701584Y-91860085D01*
X206675073Y-91751912D01*
X206648245Y-91646979D01*
X206621098Y-91545283D01*
X206593634Y-91446827D01*
X206559057Y-91327417D01*
X206524380Y-91211281D01*
X206489604Y-91098420D01*
X206454728Y-90988833D01*
X206778578Y-90988833D01*
X206782150Y-91110078D01*
X206786516Y-91235689D01*
X206791874Y-91363086D01*
X206798422Y-91489689D01*
X206806161Y-91615102D01*
X206815091Y-91738927D01*
X206825410Y-91858585D01*
X206837316Y-91971496D01*
X206999241Y-91971496D01*
X207032578Y-91867117D01*
X207069091Y-91754008D01*
X207106397Y-91640899D01*
X207142116Y-91536520D01*
X207177041Y-91643875D01*
X207211966Y-91756389D01*
X207246891Y-91867713D01*
X207281816Y-91971496D01*
X207443741Y-91971496D01*
X207454258Y-91858783D01*
X207463585Y-91739721D01*
X207471720Y-91616491D01*
X207478666Y-91491277D01*
X207484619Y-91364674D01*
X207489778Y-91237277D01*
X207494541Y-91111269D01*
X207499303Y-90988833D01*
X207318328Y-90988833D01*
X207318725Y-91084281D01*
X207319916Y-91183302D01*
X207321503Y-91283513D01*
X207323091Y-91382533D01*
X207324678Y-91479966D01*
X207326266Y-91575414D01*
X207327456Y-91666894D01*
X207327853Y-91752420D01*
X207292135Y-91625421D01*
X207258797Y-91509533D01*
X207231016Y-91411108D01*
X207211966Y-91336496D01*
X207069091Y-91336496D01*
X207046866Y-91414283D01*
X207015909Y-91522233D01*
X206980985Y-91641295D01*
X206948441Y-91752420D01*
X206948838Y-91666894D01*
X206950028Y-91575414D01*
X206951616Y-91479767D01*
X206953203Y-91381739D01*
X206954791Y-91282322D01*
X206956378Y-91182508D01*
X206957966Y-91084083D01*
X206959553Y-90988833D01*
X206778578Y-90988833D01*
X206454728Y-90988833D01*
X206242003Y-90988833D01*
X206208368Y-91097527D01*
X206174138Y-91209297D01*
X206139312Y-91324143D01*
X206103891Y-91442064D01*
X206075379Y-91539695D01*
X206046995Y-91641454D01*
X206018737Y-91747341D01*
X205990607Y-91857354D01*
X205962603Y-91971496D01*
X205930853Y-91971496D01*
X205885609Y-91867514D01*
X205830841Y-91757977D01*
X205772103Y-91653202D01*
X205714953Y-91561921D01*
X205784406Y-91517074D01*
X205830841Y-91455558D01*
X205857034Y-91381739D01*
X205865766Y-91299983D01*
X205859217Y-91222791D01*
X205839572Y-91156314D01*
X205764166Y-91055508D01*
X205710191Y-91020980D01*
X205646691Y-90996770D01*
X205574459Y-90982483D01*
X205494291Y-90977720D01*
X205438728Y-90979308D01*
X205372053Y-90983277D01*
X205302997Y-90991214D01*
X205240291Y-91003120D01*
X205240291Y-91971496D01*
X204909562Y-91971496D01*
X204909562Y-90779283D01*
X205240291Y-90779283D01*
X207499303Y-90779283D01*
X207830032Y-90779283D01*
X208293582Y-91474608D01*
X207830032Y-92169933D01*
X207499303Y-92169933D01*
X207443741Y-92169933D01*
X206518228Y-92169933D01*
G37*
D12*
%TO.C,D17*%
X174048733Y-141294608D02*
X176848733Y-141294608D01*
X174048733Y-143094608D02*
X174048733Y-141294608D01*
X174698733Y-142194608D02*
X175098733Y-142194608D01*
X175098733Y-142194608D02*
X175098733Y-141644608D01*
X175098733Y-142194608D02*
X175098733Y-142744608D01*
X175098733Y-142194608D02*
X175698733Y-141794608D01*
X175698733Y-141794608D02*
X175698733Y-142594608D01*
X175698733Y-142194608D02*
X176198733Y-142194608D01*
X175698733Y-142594608D02*
X175098733Y-142194608D01*
X176848733Y-141294608D02*
X176848733Y-143094608D01*
X176848733Y-143094608D02*
X174048733Y-143094608D01*
D13*
X172828733Y-142194608D02*
G75*
G03*
X172828733Y-142194608I-180000J0D01*
G01*
%TO.C,BT1*%
G36*
X195855677Y-135288552D02*
G01*
X195881077Y-135386977D01*
X195902508Y-135484608D01*
X195921558Y-135586208D01*
X195729471Y-135586208D01*
X195749314Y-135484608D01*
X195771539Y-135386977D01*
X195796939Y-135288552D01*
X195826308Y-135182983D01*
X195855677Y-135288552D01*
G37*
G36*
X195144477Y-135575889D02*
G01*
X195189721Y-135678283D01*
X195173846Y-135748927D01*
X195133364Y-135791789D01*
X195077008Y-135812427D01*
X195011921Y-135817983D01*
X194963502Y-135816396D01*
X194918258Y-135811633D01*
X194918258Y-135544933D01*
X195023033Y-135544933D01*
X195144477Y-135575889D01*
G37*
G36*
X195059546Y-135155202D02*
G01*
X195103996Y-135171077D01*
X195134158Y-135204414D01*
X195145271Y-135260770D01*
X195107171Y-135350464D01*
X194994458Y-135383008D01*
X194918258Y-135383008D01*
X194918258Y-135157583D01*
X194961121Y-135152820D01*
X195007158Y-135151233D01*
X195059546Y-135155202D01*
G37*
G36*
X199015992Y-135160361D02*
G01*
X199071158Y-135187745D01*
X199106877Y-135234577D01*
X199118783Y-135302045D01*
X199074333Y-135412377D01*
X199015992Y-135441547D01*
X198929871Y-135451270D01*
X198887008Y-135451270D01*
X198887008Y-135155995D01*
X198918758Y-135152027D01*
X198945746Y-135151233D01*
X199015992Y-135160361D01*
G37*
G36*
X199382308Y-136186283D02*
G01*
X197912283Y-136186283D01*
X197513821Y-136186283D01*
X196720071Y-136186283D01*
X196000933Y-136186283D01*
X194996046Y-136186283D01*
X194722996Y-136186283D01*
X194392266Y-136186283D01*
X194323490Y-136182904D01*
X194255376Y-136172801D01*
X194188581Y-136156069D01*
X194123747Y-136132871D01*
X194061499Y-136103430D01*
X194002437Y-136068029D01*
X193947128Y-136027010D01*
X193896107Y-135980767D01*
X193876624Y-135959271D01*
X194722996Y-135959271D01*
X194791655Y-135971772D01*
X194861108Y-135980702D01*
X194929767Y-135986060D01*
X194996046Y-135987846D01*
X195074428Y-135984075D01*
X195132232Y-135975146D01*
X195445308Y-135975146D01*
X195648508Y-135975146D01*
X195692958Y-135748133D01*
X195954896Y-135748133D01*
X196000933Y-135975146D01*
X196210483Y-135975146D01*
X196184289Y-135863735D01*
X196157778Y-135755562D01*
X196130949Y-135650629D01*
X196103803Y-135548933D01*
X196076339Y-135450477D01*
X196041762Y-135331067D01*
X196007085Y-135214931D01*
X195988435Y-135154408D01*
X196264458Y-135154408D01*
X196523221Y-135154408D01*
X196523221Y-135975146D01*
X196720071Y-135975146D01*
X196720071Y-135154408D01*
X196978833Y-135154408D01*
X197058208Y-135154408D01*
X197316971Y-135154408D01*
X197316971Y-135975146D01*
X197513821Y-135975146D01*
X197513821Y-135154408D01*
X197772583Y-135154408D01*
X197772583Y-134992483D01*
X197912283Y-134992483D01*
X197912283Y-135975146D01*
X198542521Y-135975146D01*
X198691746Y-135975146D01*
X198887008Y-135975146D01*
X198887008Y-135613195D01*
X198988608Y-135613195D01*
X199042385Y-135703088D01*
X199092589Y-135791789D01*
X199138031Y-135881681D01*
X199177521Y-135975146D01*
X199382308Y-135975146D01*
X199337064Y-135871164D01*
X199282296Y-135761627D01*
X199223558Y-135656852D01*
X199166408Y-135565571D01*
X199235861Y-135520724D01*
X199282296Y-135459208D01*
X199308489Y-135385389D01*
X199317221Y-135303633D01*
X199310672Y-135226441D01*
X199291027Y-135159964D01*
X199215621Y-135059158D01*
X199161646Y-135024630D01*
X199098146Y-135000420D01*
X199058018Y-134992483D01*
X199420408Y-134992483D01*
X199461242Y-135098757D01*
X199503311Y-135201680D01*
X199546614Y-135301252D01*
X199592916Y-135399941D01*
X199643981Y-135500218D01*
X199699808Y-135602083D01*
X199699808Y-135975146D01*
X199896658Y-135975146D01*
X199896658Y-135600495D01*
X199939521Y-135523700D01*
X199979208Y-135448889D01*
X200016117Y-135374872D01*
X200050646Y-135300458D01*
X200083189Y-135225449D01*
X200114146Y-135149645D01*
X200144308Y-135072255D01*
X200174471Y-134992483D01*
X199972858Y-134992483D01*
X199933964Y-135106783D01*
X199912136Y-135169886D01*
X199889514Y-135232195D01*
X199843477Y-135349671D01*
X199802996Y-135441746D01*
X199756164Y-135338360D01*
X199710921Y-135225052D01*
X199668455Y-135107775D01*
X199629958Y-134992483D01*
X199420408Y-134992483D01*
X199058018Y-134992483D01*
X199025914Y-134986133D01*
X198945746Y-134981370D01*
X198890183Y-134982958D01*
X198823508Y-134986927D01*
X198754452Y-134994864D01*
X198691746Y-135006770D01*
X198691746Y-135975146D01*
X198542521Y-135975146D01*
X198542521Y-135813221D01*
X198107546Y-135813221D01*
X198107546Y-135536995D01*
X198455208Y-135536995D01*
X198455208Y-135375070D01*
X198107546Y-135375070D01*
X198107546Y-135154408D01*
X198507596Y-135154408D01*
X198507596Y-134992483D01*
X197912283Y-134992483D01*
X197772583Y-134992483D01*
X197058208Y-134992483D01*
X197058208Y-135154408D01*
X196978833Y-135154408D01*
X196978833Y-134992483D01*
X196264458Y-134992483D01*
X196264458Y-135154408D01*
X195988435Y-135154408D01*
X195972308Y-135102070D01*
X195937433Y-134992483D01*
X195724708Y-134992483D01*
X195691073Y-135101177D01*
X195656842Y-135212947D01*
X195622017Y-135327793D01*
X195586596Y-135445714D01*
X195558084Y-135543345D01*
X195529700Y-135645104D01*
X195501442Y-135750991D01*
X195473312Y-135861004D01*
X195445308Y-135975146D01*
X195132232Y-135975146D01*
X195147652Y-135972764D01*
X195213533Y-135952524D01*
X195269889Y-135921964D01*
X195351646Y-135826714D01*
X195374267Y-135759841D01*
X195381808Y-135678283D01*
X195372878Y-135611608D01*
X195346089Y-135548108D01*
X195294297Y-135492546D01*
X195210358Y-135449683D01*
X195301639Y-135363958D01*
X195327238Y-135306014D01*
X195335771Y-135240133D01*
X195321483Y-135148058D01*
X195267508Y-135064714D01*
X195157971Y-135004389D01*
X195077802Y-134987125D01*
X194976996Y-134981370D01*
X194845233Y-134988514D01*
X194722996Y-135005183D01*
X194722996Y-135959271D01*
X193876624Y-135959271D01*
X193849864Y-135929746D01*
X193808845Y-135874438D01*
X193773444Y-135815375D01*
X193744003Y-135753127D01*
X193720805Y-135688294D01*
X193704074Y-135621498D01*
X193693970Y-135553384D01*
X193690591Y-135484608D01*
X193693970Y-135415832D01*
X193704074Y-135347718D01*
X193720805Y-135280922D01*
X193744003Y-135216089D01*
X193773444Y-135153841D01*
X193808845Y-135094778D01*
X193849864Y-135039470D01*
X193896107Y-134988449D01*
X193947128Y-134942206D01*
X194002437Y-134901187D01*
X194061499Y-134865786D01*
X194123747Y-134836345D01*
X194188581Y-134813147D01*
X194255376Y-134796415D01*
X194323490Y-134786312D01*
X194392266Y-134782933D01*
X194722996Y-134782933D01*
X200174471Y-134782933D01*
X200505200Y-134782933D01*
X200573976Y-134786312D01*
X200642090Y-134796416D01*
X200708885Y-134813147D01*
X200773719Y-134836345D01*
X200835967Y-134865786D01*
X200895029Y-134901187D01*
X200950338Y-134942206D01*
X201001359Y-134988449D01*
X201047602Y-135039470D01*
X201088621Y-135094778D01*
X201124022Y-135153841D01*
X201153463Y-135216089D01*
X201176661Y-135280923D01*
X201193392Y-135347718D01*
X201203496Y-135415832D01*
X201206875Y-135484608D01*
X201203496Y-135553384D01*
X201193392Y-135621498D01*
X201176661Y-135688293D01*
X201153463Y-135753127D01*
X201124022Y-135815375D01*
X201088621Y-135874438D01*
X201047602Y-135929746D01*
X201001359Y-135980767D01*
X200950338Y-136027010D01*
X200895029Y-136068029D01*
X200835967Y-136103430D01*
X200773719Y-136132871D01*
X200708885Y-136156069D01*
X200642090Y-136172800D01*
X200573976Y-136182904D01*
X200505200Y-136186283D01*
X200174471Y-136186283D01*
X199896658Y-136186283D01*
X199382308Y-136186283D01*
G37*
D10*
%TO.C,SW15*%
X168448733Y-89944608D02*
X168448733Y-88944608D01*
X168448733Y-89944608D02*
X168448733Y-88944608D01*
X168448733Y-102944608D02*
X168448733Y-101944608D01*
X168448733Y-102944608D02*
X168448733Y-101944608D01*
X168448733Y-102944608D02*
X169448733Y-102944608D01*
X168448733Y-102944608D02*
X169448733Y-102944608D01*
X169448733Y-88944608D02*
X168448733Y-88944608D01*
X169448733Y-88944608D02*
X168448733Y-88944608D01*
X181448733Y-102944608D02*
X182448733Y-102944608D01*
X181448733Y-102944608D02*
X182448733Y-102944608D01*
X182448733Y-88944608D02*
X181448733Y-88944608D01*
X182448733Y-88944608D02*
X181448733Y-88944608D01*
X182448733Y-88944608D02*
X182448733Y-89944608D01*
X182448733Y-88944608D02*
X182448733Y-89944608D01*
X182448733Y-101944608D02*
X182448733Y-102944608D01*
X182448733Y-101944608D02*
X182448733Y-102944608D01*
X182448733Y-102944608D02*
X181448733Y-102944608D01*
D12*
%TO.C,D35*%
X228048733Y-141294608D02*
X230848733Y-141294608D01*
X228048733Y-143094608D02*
X228048733Y-141294608D01*
X228698733Y-142194608D02*
X229098733Y-142194608D01*
X229098733Y-142194608D02*
X229098733Y-141644608D01*
X229098733Y-142194608D02*
X229098733Y-142744608D01*
X229098733Y-142194608D02*
X229698733Y-141794608D01*
X229698733Y-141794608D02*
X229698733Y-142594608D01*
X229698733Y-142194608D02*
X230198733Y-142194608D01*
X229698733Y-142594608D02*
X229098733Y-142194608D01*
X230848733Y-141294608D02*
X230848733Y-143094608D01*
X230848733Y-143094608D02*
X228048733Y-143094608D01*
D13*
X226828733Y-142194608D02*
G75*
G03*
X226828733Y-142194608I-180000J0D01*
G01*
D10*
%TO.C,SW33*%
X222448733Y-89944608D02*
X222448733Y-88944608D01*
X222448733Y-89944608D02*
X222448733Y-88944608D01*
X222448733Y-102944608D02*
X222448733Y-101944608D01*
X222448733Y-102944608D02*
X222448733Y-101944608D01*
X222448733Y-102944608D02*
X223448733Y-102944608D01*
X222448733Y-102944608D02*
X223448733Y-102944608D01*
X223448733Y-88944608D02*
X222448733Y-88944608D01*
X223448733Y-88944608D02*
X222448733Y-88944608D01*
X235448733Y-102944608D02*
X236448733Y-102944608D01*
X235448733Y-102944608D02*
X236448733Y-102944608D01*
X236448733Y-88944608D02*
X235448733Y-88944608D01*
X236448733Y-88944608D02*
X235448733Y-88944608D01*
X236448733Y-88944608D02*
X236448733Y-89944608D01*
X236448733Y-88944608D02*
X236448733Y-89944608D01*
X236448733Y-101944608D02*
X236448733Y-102944608D01*
X236448733Y-101944608D02*
X236448733Y-102944608D01*
X236448733Y-102944608D02*
X235448733Y-102944608D01*
D12*
%TO.C,D32*%
X228048733Y-107294608D02*
X230848733Y-107294608D01*
X228048733Y-109094608D02*
X228048733Y-107294608D01*
X228698733Y-108194608D02*
X229098733Y-108194608D01*
X229098733Y-108194608D02*
X229098733Y-107644608D01*
X229098733Y-108194608D02*
X229098733Y-108744608D01*
X229098733Y-108194608D02*
X229698733Y-107794608D01*
X229698733Y-107794608D02*
X229698733Y-108594608D01*
X229698733Y-108194608D02*
X230198733Y-108194608D01*
X229698733Y-108594608D02*
X229098733Y-108194608D01*
X230848733Y-107294608D02*
X230848733Y-109094608D01*
X230848733Y-109094608D02*
X228048733Y-109094608D01*
D13*
X226828733Y-108194608D02*
G75*
G03*
X226828733Y-108194608I-180000J0D01*
G01*
D12*
%TO.C,D27*%
X264048733Y-90294608D02*
X266848733Y-90294608D01*
X264048733Y-92094608D02*
X264048733Y-90294608D01*
X264698733Y-91194608D02*
X265098733Y-91194608D01*
X265098733Y-91194608D02*
X265098733Y-90644608D01*
X265098733Y-91194608D02*
X265098733Y-91744608D01*
X265098733Y-91194608D02*
X265698733Y-90794608D01*
X265698733Y-90794608D02*
X265698733Y-91594608D01*
X265698733Y-91194608D02*
X266198733Y-91194608D01*
X265698733Y-91594608D02*
X265098733Y-91194608D01*
X266848733Y-90294608D02*
X266848733Y-92094608D01*
X266848733Y-92094608D02*
X264048733Y-92094608D01*
D13*
X262828733Y-91194608D02*
G75*
G03*
X262828733Y-91194608I-180000J0D01*
G01*
D10*
%TO.C,SW20*%
X294448733Y-106944608D02*
X294448733Y-105944608D01*
X294448733Y-106944608D02*
X294448733Y-105944608D01*
X294448733Y-119944608D02*
X294448733Y-118944608D01*
X294448733Y-119944608D02*
X294448733Y-118944608D01*
X294448733Y-119944608D02*
X295448733Y-119944608D01*
X294448733Y-119944608D02*
X295448733Y-119944608D01*
X295448733Y-105944608D02*
X294448733Y-105944608D01*
X295448733Y-105944608D02*
X294448733Y-105944608D01*
X307448733Y-119944608D02*
X308448733Y-119944608D01*
X307448733Y-119944608D02*
X308448733Y-119944608D01*
X308448733Y-105944608D02*
X307448733Y-105944608D01*
X308448733Y-105944608D02*
X307448733Y-105944608D01*
X308448733Y-105944608D02*
X308448733Y-106944608D01*
X308448733Y-105944608D02*
X308448733Y-106944608D01*
X308448733Y-118944608D02*
X308448733Y-119944608D01*
X308448733Y-118944608D02*
X308448733Y-119944608D01*
X308448733Y-119944608D02*
X307448733Y-119944608D01*
%TO.C,SW26*%
X258448733Y-106944608D02*
X258448733Y-105944608D01*
X258448733Y-106944608D02*
X258448733Y-105944608D01*
X258448733Y-119944608D02*
X258448733Y-118944608D01*
X258448733Y-119944608D02*
X258448733Y-118944608D01*
X258448733Y-119944608D02*
X259448733Y-119944608D01*
X258448733Y-119944608D02*
X259448733Y-119944608D01*
X259448733Y-105944608D02*
X258448733Y-105944608D01*
X259448733Y-105944608D02*
X258448733Y-105944608D01*
X271448733Y-119944608D02*
X272448733Y-119944608D01*
X271448733Y-119944608D02*
X272448733Y-119944608D01*
X272448733Y-105944608D02*
X271448733Y-105944608D01*
X272448733Y-105944608D02*
X271448733Y-105944608D01*
X272448733Y-105944608D02*
X272448733Y-106944608D01*
X272448733Y-105944608D02*
X272448733Y-106944608D01*
X272448733Y-118944608D02*
X272448733Y-119944608D01*
X272448733Y-118944608D02*
X272448733Y-119944608D01*
X272448733Y-119944608D02*
X271448733Y-119944608D01*
D12*
%TO.C,D15*%
X174048733Y-90294608D02*
X176848733Y-90294608D01*
X174048733Y-92094608D02*
X174048733Y-90294608D01*
X174698733Y-91194608D02*
X175098733Y-91194608D01*
X175098733Y-91194608D02*
X175098733Y-90644608D01*
X175098733Y-91194608D02*
X175098733Y-91744608D01*
X175098733Y-91194608D02*
X175698733Y-90794608D01*
X175698733Y-90794608D02*
X175698733Y-91594608D01*
X175698733Y-91194608D02*
X176198733Y-91194608D01*
X175698733Y-91594608D02*
X175098733Y-91194608D01*
X176848733Y-90294608D02*
X176848733Y-92094608D01*
X176848733Y-92094608D02*
X174048733Y-92094608D01*
D13*
X172828733Y-91194608D02*
G75*
G03*
X172828733Y-91194608I-180000J0D01*
G01*
D12*
%TO.C,D31*%
X228048733Y-124294608D02*
X230848733Y-124294608D01*
X228048733Y-126094608D02*
X228048733Y-124294608D01*
X228698733Y-125194608D02*
X229098733Y-125194608D01*
X229098733Y-125194608D02*
X229098733Y-124644608D01*
X229098733Y-125194608D02*
X229098733Y-125744608D01*
X229098733Y-125194608D02*
X229698733Y-124794608D01*
X229698733Y-124794608D02*
X229698733Y-125594608D01*
X229698733Y-125194608D02*
X230198733Y-125194608D01*
X229698733Y-125594608D02*
X229098733Y-125194608D01*
X230848733Y-124294608D02*
X230848733Y-126094608D01*
X230848733Y-126094608D02*
X228048733Y-126094608D01*
D13*
X226828733Y-125194608D02*
G75*
G03*
X226828733Y-125194608I-180000J0D01*
G01*
D10*
%TO.C,SW28*%
X240448733Y-123944608D02*
X240448733Y-122944608D01*
X240448733Y-123944608D02*
X240448733Y-122944608D01*
X240448733Y-136944608D02*
X240448733Y-135944608D01*
X240448733Y-136944608D02*
X240448733Y-135944608D01*
X240448733Y-136944608D02*
X241448733Y-136944608D01*
X240448733Y-136944608D02*
X241448733Y-136944608D01*
X241448733Y-122944608D02*
X240448733Y-122944608D01*
X241448733Y-122944608D02*
X240448733Y-122944608D01*
X253448733Y-136944608D02*
X254448733Y-136944608D01*
X253448733Y-136944608D02*
X254448733Y-136944608D01*
X254448733Y-122944608D02*
X253448733Y-122944608D01*
X254448733Y-122944608D02*
X253448733Y-122944608D01*
X254448733Y-122944608D02*
X254448733Y-123944608D01*
X254448733Y-122944608D02*
X254448733Y-123944608D01*
X254448733Y-135944608D02*
X254448733Y-136944608D01*
X254448733Y-135944608D02*
X254448733Y-136944608D01*
X254448733Y-136944608D02*
X253448733Y-136944608D01*
D12*
%TO.C,D10*%
X156048733Y-124294608D02*
X158848733Y-124294608D01*
X156048733Y-126094608D02*
X156048733Y-124294608D01*
X156698733Y-125194608D02*
X157098733Y-125194608D01*
X157098733Y-125194608D02*
X157098733Y-124644608D01*
X157098733Y-125194608D02*
X157098733Y-125744608D01*
X157098733Y-125194608D02*
X157698733Y-124794608D01*
X157698733Y-124794608D02*
X157698733Y-125594608D01*
X157698733Y-125194608D02*
X158198733Y-125194608D01*
X157698733Y-125594608D02*
X157098733Y-125194608D01*
X158848733Y-124294608D02*
X158848733Y-126094608D01*
X158848733Y-126094608D02*
X156048733Y-126094608D01*
D13*
X154828733Y-125194608D02*
G75*
G03*
X154828733Y-125194608I-180000J0D01*
G01*
D12*
%TO.C,D21*%
X300048733Y-90294608D02*
X302848733Y-90294608D01*
X300048733Y-92094608D02*
X300048733Y-90294608D01*
X300698733Y-91194608D02*
X301098733Y-91194608D01*
X301098733Y-91194608D02*
X301098733Y-90644608D01*
X301098733Y-91194608D02*
X301098733Y-91744608D01*
X301098733Y-91194608D02*
X301698733Y-90794608D01*
X301698733Y-90794608D02*
X301698733Y-91594608D01*
X301698733Y-91194608D02*
X302198733Y-91194608D01*
X301698733Y-91594608D02*
X301098733Y-91194608D01*
X302848733Y-90294608D02*
X302848733Y-92094608D01*
X302848733Y-92094608D02*
X300048733Y-92094608D01*
D13*
X298828733Y-91194608D02*
G75*
G03*
X298828733Y-91194608I-180000J0D01*
G01*
D10*
%TO.C,SW13*%
X168448733Y-123944608D02*
X168448733Y-122944608D01*
X168448733Y-123944608D02*
X168448733Y-122944608D01*
X168448733Y-136944608D02*
X168448733Y-135944608D01*
X168448733Y-136944608D02*
X168448733Y-135944608D01*
X168448733Y-136944608D02*
X169448733Y-136944608D01*
X168448733Y-136944608D02*
X169448733Y-136944608D01*
X169448733Y-122944608D02*
X168448733Y-122944608D01*
X169448733Y-122944608D02*
X168448733Y-122944608D01*
X181448733Y-136944608D02*
X182448733Y-136944608D01*
X181448733Y-136944608D02*
X182448733Y-136944608D01*
X182448733Y-122944608D02*
X181448733Y-122944608D01*
X182448733Y-122944608D02*
X181448733Y-122944608D01*
X182448733Y-122944608D02*
X182448733Y-123944608D01*
X182448733Y-122944608D02*
X182448733Y-123944608D01*
X182448733Y-135944608D02*
X182448733Y-136944608D01*
X182448733Y-135944608D02*
X182448733Y-136944608D01*
X182448733Y-136944608D02*
X181448733Y-136944608D01*
%TO.C,SW11*%
X150448733Y-106944608D02*
X150448733Y-105944608D01*
X150448733Y-106944608D02*
X150448733Y-105944608D01*
X150448733Y-119944608D02*
X150448733Y-118944608D01*
X150448733Y-119944608D02*
X150448733Y-118944608D01*
X150448733Y-119944608D02*
X151448733Y-119944608D01*
X150448733Y-119944608D02*
X151448733Y-119944608D01*
X151448733Y-105944608D02*
X150448733Y-105944608D01*
X151448733Y-105944608D02*
X150448733Y-105944608D01*
X163448733Y-119944608D02*
X164448733Y-119944608D01*
X163448733Y-119944608D02*
X164448733Y-119944608D01*
X164448733Y-105944608D02*
X163448733Y-105944608D01*
X164448733Y-105944608D02*
X163448733Y-105944608D01*
X164448733Y-105944608D02*
X164448733Y-106944608D01*
X164448733Y-105944608D02*
X164448733Y-106944608D01*
X164448733Y-118944608D02*
X164448733Y-119944608D01*
X164448733Y-118944608D02*
X164448733Y-119944608D01*
X164448733Y-119944608D02*
X163448733Y-119944608D01*
%TO.C,SW19*%
X294448733Y-123944608D02*
X294448733Y-122944608D01*
X294448733Y-123944608D02*
X294448733Y-122944608D01*
X294448733Y-136944608D02*
X294448733Y-135944608D01*
X294448733Y-136944608D02*
X294448733Y-135944608D01*
X294448733Y-136944608D02*
X295448733Y-136944608D01*
X294448733Y-136944608D02*
X295448733Y-136944608D01*
X295448733Y-122944608D02*
X294448733Y-122944608D01*
X295448733Y-122944608D02*
X294448733Y-122944608D01*
X307448733Y-136944608D02*
X308448733Y-136944608D01*
X307448733Y-136944608D02*
X308448733Y-136944608D01*
X308448733Y-122944608D02*
X307448733Y-122944608D01*
X308448733Y-122944608D02*
X307448733Y-122944608D01*
X308448733Y-122944608D02*
X308448733Y-123944608D01*
X308448733Y-122944608D02*
X308448733Y-123944608D01*
X308448733Y-135944608D02*
X308448733Y-136944608D01*
X308448733Y-135944608D02*
X308448733Y-136944608D01*
X308448733Y-136944608D02*
X307448733Y-136944608D01*
%TO.C,SW30*%
X240448733Y-89944608D02*
X240448733Y-88944608D01*
X240448733Y-89944608D02*
X240448733Y-88944608D01*
X240448733Y-102944608D02*
X240448733Y-101944608D01*
X240448733Y-102944608D02*
X240448733Y-101944608D01*
X240448733Y-102944608D02*
X241448733Y-102944608D01*
X240448733Y-102944608D02*
X241448733Y-102944608D01*
X241448733Y-88944608D02*
X240448733Y-88944608D01*
X241448733Y-88944608D02*
X240448733Y-88944608D01*
X253448733Y-102944608D02*
X254448733Y-102944608D01*
X253448733Y-102944608D02*
X254448733Y-102944608D01*
X254448733Y-88944608D02*
X253448733Y-88944608D01*
X254448733Y-88944608D02*
X253448733Y-88944608D01*
X254448733Y-88944608D02*
X254448733Y-89944608D01*
X254448733Y-88944608D02*
X254448733Y-89944608D01*
X254448733Y-101944608D02*
X254448733Y-102944608D01*
X254448733Y-101944608D02*
X254448733Y-102944608D01*
X254448733Y-102944608D02*
X253448733Y-102944608D01*
%TO.C,SW36*%
X204448733Y-140944608D02*
X204448733Y-139944608D01*
X204448733Y-140944608D02*
X204448733Y-139944608D01*
X204448733Y-153944608D02*
X204448733Y-152944608D01*
X204448733Y-153944608D02*
X204448733Y-152944608D01*
X204448733Y-153944608D02*
X205448733Y-153944608D01*
X204448733Y-153944608D02*
X205448733Y-153944608D01*
X205448733Y-139944608D02*
X204448733Y-139944608D01*
X205448733Y-139944608D02*
X204448733Y-139944608D01*
X217448733Y-153944608D02*
X218448733Y-153944608D01*
X217448733Y-153944608D02*
X218448733Y-153944608D01*
X218448733Y-139944608D02*
X217448733Y-139944608D01*
X218448733Y-139944608D02*
X217448733Y-139944608D01*
X218448733Y-139944608D02*
X218448733Y-140944608D01*
X218448733Y-139944608D02*
X218448733Y-140944608D01*
X218448733Y-152944608D02*
X218448733Y-153944608D01*
X218448733Y-152944608D02*
X218448733Y-153944608D01*
X218448733Y-153944608D02*
X217448733Y-153944608D01*
D12*
%TO.C,D20*%
X300048733Y-107294608D02*
X302848733Y-107294608D01*
X300048733Y-109094608D02*
X300048733Y-107294608D01*
X300698733Y-108194608D02*
X301098733Y-108194608D01*
X301098733Y-108194608D02*
X301098733Y-107644608D01*
X301098733Y-108194608D02*
X301098733Y-108744608D01*
X301098733Y-108194608D02*
X301698733Y-107794608D01*
X301698733Y-107794608D02*
X301698733Y-108594608D01*
X301698733Y-108194608D02*
X302198733Y-108194608D01*
X301698733Y-108594608D02*
X301098733Y-108194608D01*
X302848733Y-107294608D02*
X302848733Y-109094608D01*
X302848733Y-109094608D02*
X300048733Y-109094608D01*
D13*
X298828733Y-108194608D02*
G75*
G03*
X298828733Y-108194608I-180000J0D01*
G01*
D12*
%TO.C,D11*%
X156048733Y-107294608D02*
X158848733Y-107294608D01*
X156048733Y-109094608D02*
X156048733Y-107294608D01*
X156698733Y-108194608D02*
X157098733Y-108194608D01*
X157098733Y-108194608D02*
X157098733Y-107644608D01*
X157098733Y-108194608D02*
X157098733Y-108744608D01*
X157098733Y-108194608D02*
X157698733Y-107794608D01*
X157698733Y-107794608D02*
X157698733Y-108594608D01*
X157698733Y-108194608D02*
X158198733Y-108194608D01*
X157698733Y-108594608D02*
X157098733Y-108194608D01*
X158848733Y-107294608D02*
X158848733Y-109094608D01*
X158848733Y-109094608D02*
X156048733Y-109094608D01*
D13*
X154828733Y-108194608D02*
G75*
G03*
X154828733Y-108194608I-180000J0D01*
G01*
D10*
%TO.C,SW8*%
X132448733Y-106944608D02*
X132448733Y-105944608D01*
X132448733Y-106944608D02*
X132448733Y-105944608D01*
X132448733Y-119944608D02*
X132448733Y-118944608D01*
X132448733Y-119944608D02*
X132448733Y-118944608D01*
X132448733Y-119944608D02*
X133448733Y-119944608D01*
X132448733Y-119944608D02*
X133448733Y-119944608D01*
X133448733Y-105944608D02*
X132448733Y-105944608D01*
X133448733Y-105944608D02*
X132448733Y-105944608D01*
X145448733Y-119944608D02*
X146448733Y-119944608D01*
X145448733Y-119944608D02*
X146448733Y-119944608D01*
X146448733Y-105944608D02*
X145448733Y-105944608D01*
X146448733Y-105944608D02*
X145448733Y-105944608D01*
X146448733Y-105944608D02*
X146448733Y-106944608D01*
X146448733Y-105944608D02*
X146448733Y-106944608D01*
X146448733Y-118944608D02*
X146448733Y-119944608D01*
X146448733Y-118944608D02*
X146448733Y-119944608D01*
X146448733Y-119944608D02*
X145448733Y-119944608D01*
%TO.C,SW14*%
X168448733Y-106944608D02*
X168448733Y-105944608D01*
X168448733Y-106944608D02*
X168448733Y-105944608D01*
X168448733Y-119944608D02*
X168448733Y-118944608D01*
X168448733Y-119944608D02*
X168448733Y-118944608D01*
X168448733Y-119944608D02*
X169448733Y-119944608D01*
X168448733Y-119944608D02*
X169448733Y-119944608D01*
X169448733Y-105944608D02*
X168448733Y-105944608D01*
X169448733Y-105944608D02*
X168448733Y-105944608D01*
X181448733Y-119944608D02*
X182448733Y-119944608D01*
X181448733Y-119944608D02*
X182448733Y-119944608D01*
X182448733Y-105944608D02*
X181448733Y-105944608D01*
X182448733Y-105944608D02*
X181448733Y-105944608D01*
X182448733Y-105944608D02*
X182448733Y-106944608D01*
X182448733Y-105944608D02*
X182448733Y-106944608D01*
X182448733Y-118944608D02*
X182448733Y-119944608D01*
X182448733Y-118944608D02*
X182448733Y-119944608D01*
X182448733Y-119944608D02*
X181448733Y-119944608D01*
%TO.C,SW34*%
X240448733Y-140944608D02*
X240448733Y-139944608D01*
X240448733Y-140944608D02*
X240448733Y-139944608D01*
X240448733Y-153944608D02*
X240448733Y-152944608D01*
X240448733Y-153944608D02*
X240448733Y-152944608D01*
X240448733Y-153944608D02*
X241448733Y-153944608D01*
X240448733Y-153944608D02*
X241448733Y-153944608D01*
X241448733Y-139944608D02*
X240448733Y-139944608D01*
X241448733Y-139944608D02*
X240448733Y-139944608D01*
X253448733Y-153944608D02*
X254448733Y-153944608D01*
X253448733Y-153944608D02*
X254448733Y-153944608D01*
X254448733Y-139944608D02*
X253448733Y-139944608D01*
X254448733Y-139944608D02*
X253448733Y-139944608D01*
X254448733Y-139944608D02*
X254448733Y-140944608D01*
X254448733Y-139944608D02*
X254448733Y-140944608D01*
X254448733Y-152944608D02*
X254448733Y-153944608D01*
X254448733Y-152944608D02*
X254448733Y-153944608D01*
X254448733Y-153944608D02*
X253448733Y-153944608D01*
D12*
%TO.C,D33*%
X228048733Y-90294608D02*
X230848733Y-90294608D01*
X228048733Y-92094608D02*
X228048733Y-90294608D01*
X228698733Y-91194608D02*
X229098733Y-91194608D01*
X229098733Y-91194608D02*
X229098733Y-90644608D01*
X229098733Y-91194608D02*
X229098733Y-91744608D01*
X229098733Y-91194608D02*
X229698733Y-90794608D01*
X229698733Y-90794608D02*
X229698733Y-91594608D01*
X229698733Y-91194608D02*
X230198733Y-91194608D01*
X229698733Y-91594608D02*
X229098733Y-91194608D01*
X230848733Y-90294608D02*
X230848733Y-92094608D01*
X230848733Y-92094608D02*
X228048733Y-92094608D01*
D13*
X226828733Y-91194608D02*
G75*
G03*
X226828733Y-91194608I-180000J0D01*
G01*
D10*
%TO.C,SW4*%
X114448733Y-123944608D02*
X114448733Y-122944608D01*
X114448733Y-123944608D02*
X114448733Y-122944608D01*
X114448733Y-136944608D02*
X114448733Y-135944608D01*
X114448733Y-136944608D02*
X114448733Y-135944608D01*
X114448733Y-136944608D02*
X115448733Y-136944608D01*
X114448733Y-136944608D02*
X115448733Y-136944608D01*
X115448733Y-122944608D02*
X114448733Y-122944608D01*
X115448733Y-122944608D02*
X114448733Y-122944608D01*
X127448733Y-136944608D02*
X128448733Y-136944608D01*
X127448733Y-136944608D02*
X128448733Y-136944608D01*
X128448733Y-122944608D02*
X127448733Y-122944608D01*
X128448733Y-122944608D02*
X127448733Y-122944608D01*
X128448733Y-122944608D02*
X128448733Y-123944608D01*
X128448733Y-122944608D02*
X128448733Y-123944608D01*
X128448733Y-135944608D02*
X128448733Y-136944608D01*
X128448733Y-135944608D02*
X128448733Y-136944608D01*
X128448733Y-136944608D02*
X127448733Y-136944608D01*
%TO.C,SW6*%
X114448733Y-89944608D02*
X114448733Y-88944608D01*
X114448733Y-89944608D02*
X114448733Y-88944608D01*
X114448733Y-102944608D02*
X114448733Y-101944608D01*
X114448733Y-102944608D02*
X114448733Y-101944608D01*
X114448733Y-102944608D02*
X115448733Y-102944608D01*
X114448733Y-102944608D02*
X115448733Y-102944608D01*
X115448733Y-88944608D02*
X114448733Y-88944608D01*
X115448733Y-88944608D02*
X114448733Y-88944608D01*
X127448733Y-102944608D02*
X128448733Y-102944608D01*
X127448733Y-102944608D02*
X128448733Y-102944608D01*
X128448733Y-88944608D02*
X127448733Y-88944608D01*
X128448733Y-88944608D02*
X127448733Y-88944608D01*
X128448733Y-88944608D02*
X128448733Y-89944608D01*
X128448733Y-88944608D02*
X128448733Y-89944608D01*
X128448733Y-101944608D02*
X128448733Y-102944608D01*
X128448733Y-101944608D02*
X128448733Y-102944608D01*
X128448733Y-102944608D02*
X127448733Y-102944608D01*
D12*
%TO.C,D14*%
X174048733Y-107294608D02*
X176848733Y-107294608D01*
X174048733Y-109094608D02*
X174048733Y-107294608D01*
X174698733Y-108194608D02*
X175098733Y-108194608D01*
X175098733Y-108194608D02*
X175098733Y-107644608D01*
X175098733Y-108194608D02*
X175098733Y-108744608D01*
X175098733Y-108194608D02*
X175698733Y-107794608D01*
X175698733Y-107794608D02*
X175698733Y-108594608D01*
X175698733Y-108194608D02*
X176198733Y-108194608D01*
X175698733Y-108594608D02*
X175098733Y-108194608D01*
X176848733Y-107294608D02*
X176848733Y-109094608D01*
X176848733Y-109094608D02*
X174048733Y-109094608D01*
D13*
X172828733Y-108194608D02*
G75*
G03*
X172828733Y-108194608I-180000J0D01*
G01*
D10*
%TO.C,SW22*%
X276448733Y-123944608D02*
X276448733Y-122944608D01*
X276448733Y-123944608D02*
X276448733Y-122944608D01*
X276448733Y-136944608D02*
X276448733Y-135944608D01*
X276448733Y-136944608D02*
X276448733Y-135944608D01*
X276448733Y-136944608D02*
X277448733Y-136944608D01*
X276448733Y-136944608D02*
X277448733Y-136944608D01*
X277448733Y-122944608D02*
X276448733Y-122944608D01*
X277448733Y-122944608D02*
X276448733Y-122944608D01*
X289448733Y-136944608D02*
X290448733Y-136944608D01*
X289448733Y-136944608D02*
X290448733Y-136944608D01*
X290448733Y-122944608D02*
X289448733Y-122944608D01*
X290448733Y-122944608D02*
X289448733Y-122944608D01*
X290448733Y-122944608D02*
X290448733Y-123944608D01*
X290448733Y-122944608D02*
X290448733Y-123944608D01*
X290448733Y-135944608D02*
X290448733Y-136944608D01*
X290448733Y-135944608D02*
X290448733Y-136944608D01*
X290448733Y-136944608D02*
X289448733Y-136944608D01*
D12*
%TO.C,D28*%
X246048733Y-124294608D02*
X248848733Y-124294608D01*
X246048733Y-126094608D02*
X246048733Y-124294608D01*
X246698733Y-125194608D02*
X247098733Y-125194608D01*
X247098733Y-125194608D02*
X247098733Y-124644608D01*
X247098733Y-125194608D02*
X247098733Y-125744608D01*
X247098733Y-125194608D02*
X247698733Y-124794608D01*
X247698733Y-124794608D02*
X247698733Y-125594608D01*
X247698733Y-125194608D02*
X248198733Y-125194608D01*
X247698733Y-125594608D02*
X247098733Y-125194608D01*
X248848733Y-124294608D02*
X248848733Y-126094608D01*
X248848733Y-126094608D02*
X246048733Y-126094608D01*
D13*
X244828733Y-125194608D02*
G75*
G03*
X244828733Y-125194608I-180000J0D01*
G01*
D10*
%TO.C,SW25*%
X258448733Y-123944608D02*
X258448733Y-122944608D01*
X258448733Y-123944608D02*
X258448733Y-122944608D01*
X258448733Y-136944608D02*
X258448733Y-135944608D01*
X258448733Y-136944608D02*
X258448733Y-135944608D01*
X258448733Y-136944608D02*
X259448733Y-136944608D01*
X258448733Y-136944608D02*
X259448733Y-136944608D01*
X259448733Y-122944608D02*
X258448733Y-122944608D01*
X259448733Y-122944608D02*
X258448733Y-122944608D01*
X271448733Y-136944608D02*
X272448733Y-136944608D01*
X271448733Y-136944608D02*
X272448733Y-136944608D01*
X272448733Y-122944608D02*
X271448733Y-122944608D01*
X272448733Y-122944608D02*
X271448733Y-122944608D01*
X272448733Y-122944608D02*
X272448733Y-123944608D01*
X272448733Y-122944608D02*
X272448733Y-123944608D01*
X272448733Y-135944608D02*
X272448733Y-136944608D01*
X272448733Y-135944608D02*
X272448733Y-136944608D01*
X272448733Y-136944608D02*
X271448733Y-136944608D01*
%TO.C,SW7*%
X132448733Y-123944608D02*
X132448733Y-122944608D01*
X132448733Y-123944608D02*
X132448733Y-122944608D01*
X132448733Y-136944608D02*
X132448733Y-135944608D01*
X132448733Y-136944608D02*
X132448733Y-135944608D01*
X132448733Y-136944608D02*
X133448733Y-136944608D01*
X132448733Y-136944608D02*
X133448733Y-136944608D01*
X133448733Y-122944608D02*
X132448733Y-122944608D01*
X133448733Y-122944608D02*
X132448733Y-122944608D01*
X145448733Y-136944608D02*
X146448733Y-136944608D01*
X145448733Y-136944608D02*
X146448733Y-136944608D01*
X146448733Y-122944608D02*
X145448733Y-122944608D01*
X146448733Y-122944608D02*
X145448733Y-122944608D01*
X146448733Y-122944608D02*
X146448733Y-123944608D01*
X146448733Y-122944608D02*
X146448733Y-123944608D01*
X146448733Y-135944608D02*
X146448733Y-136944608D01*
X146448733Y-135944608D02*
X146448733Y-136944608D01*
X146448733Y-136944608D02*
X145448733Y-136944608D01*
%TO.C,SW24*%
X276448733Y-89944608D02*
X276448733Y-88944608D01*
X276448733Y-89944608D02*
X276448733Y-88944608D01*
X276448733Y-102944608D02*
X276448733Y-101944608D01*
X276448733Y-102944608D02*
X276448733Y-101944608D01*
X276448733Y-102944608D02*
X277448733Y-102944608D01*
X276448733Y-102944608D02*
X277448733Y-102944608D01*
X277448733Y-88944608D02*
X276448733Y-88944608D01*
X277448733Y-88944608D02*
X276448733Y-88944608D01*
X289448733Y-102944608D02*
X290448733Y-102944608D01*
X289448733Y-102944608D02*
X290448733Y-102944608D01*
X290448733Y-88944608D02*
X289448733Y-88944608D01*
X290448733Y-88944608D02*
X289448733Y-88944608D01*
X290448733Y-88944608D02*
X290448733Y-89944608D01*
X290448733Y-88944608D02*
X290448733Y-89944608D01*
X290448733Y-101944608D02*
X290448733Y-102944608D01*
X290448733Y-101944608D02*
X290448733Y-102944608D01*
X290448733Y-102944608D02*
X289448733Y-102944608D01*
%TO.C,SW9*%
X132448733Y-89944608D02*
X132448733Y-88944608D01*
X132448733Y-89944608D02*
X132448733Y-88944608D01*
X132448733Y-102944608D02*
X132448733Y-101944608D01*
X132448733Y-102944608D02*
X132448733Y-101944608D01*
X132448733Y-102944608D02*
X133448733Y-102944608D01*
X132448733Y-102944608D02*
X133448733Y-102944608D01*
X133448733Y-88944608D02*
X132448733Y-88944608D01*
X133448733Y-88944608D02*
X132448733Y-88944608D01*
X145448733Y-102944608D02*
X146448733Y-102944608D01*
X145448733Y-102944608D02*
X146448733Y-102944608D01*
X146448733Y-88944608D02*
X145448733Y-88944608D01*
X146448733Y-88944608D02*
X145448733Y-88944608D01*
X146448733Y-88944608D02*
X146448733Y-89944608D01*
X146448733Y-88944608D02*
X146448733Y-89944608D01*
X146448733Y-101944608D02*
X146448733Y-102944608D01*
X146448733Y-101944608D02*
X146448733Y-102944608D01*
X146448733Y-102944608D02*
X145448733Y-102944608D01*
D12*
%TO.C,D12*%
X156048733Y-90294608D02*
X158848733Y-90294608D01*
X156048733Y-92094608D02*
X156048733Y-90294608D01*
X156698733Y-91194608D02*
X157098733Y-91194608D01*
X157098733Y-91194608D02*
X157098733Y-90644608D01*
X157098733Y-91194608D02*
X157098733Y-91744608D01*
X157098733Y-91194608D02*
X157698733Y-90794608D01*
X157698733Y-90794608D02*
X157698733Y-91594608D01*
X157698733Y-91194608D02*
X158198733Y-91194608D01*
X157698733Y-91594608D02*
X157098733Y-91194608D01*
X158848733Y-90294608D02*
X158848733Y-92094608D01*
X158848733Y-92094608D02*
X156048733Y-92094608D01*
D13*
X154828733Y-91194608D02*
G75*
G03*
X154828733Y-91194608I-180000J0D01*
G01*
D12*
%TO.C,D29*%
X246048733Y-107294608D02*
X248848733Y-107294608D01*
X246048733Y-109094608D02*
X246048733Y-107294608D01*
X246698733Y-108194608D02*
X247098733Y-108194608D01*
X247098733Y-108194608D02*
X247098733Y-107644608D01*
X247098733Y-108194608D02*
X247098733Y-108744608D01*
X247098733Y-108194608D02*
X247698733Y-107794608D01*
X247698733Y-107794608D02*
X247698733Y-108594608D01*
X247698733Y-108194608D02*
X248198733Y-108194608D01*
X247698733Y-108594608D02*
X247098733Y-108194608D01*
X248848733Y-107294608D02*
X248848733Y-109094608D01*
X248848733Y-109094608D02*
X246048733Y-109094608D01*
D13*
X244828733Y-108194608D02*
G75*
G03*
X244828733Y-108194608I-180000J0D01*
G01*
D10*
%TO.C,SW16*%
X150448733Y-140944608D02*
X150448733Y-139944608D01*
X150448733Y-140944608D02*
X150448733Y-139944608D01*
X150448733Y-153944608D02*
X150448733Y-152944608D01*
X150448733Y-153944608D02*
X150448733Y-152944608D01*
X150448733Y-153944608D02*
X151448733Y-153944608D01*
X150448733Y-153944608D02*
X151448733Y-153944608D01*
X151448733Y-139944608D02*
X150448733Y-139944608D01*
X151448733Y-139944608D02*
X150448733Y-139944608D01*
X163448733Y-153944608D02*
X164448733Y-153944608D01*
X163448733Y-153944608D02*
X164448733Y-153944608D01*
X164448733Y-139944608D02*
X163448733Y-139944608D01*
X164448733Y-139944608D02*
X163448733Y-139944608D01*
X164448733Y-139944608D02*
X164448733Y-140944608D01*
X164448733Y-139944608D02*
X164448733Y-140944608D01*
X164448733Y-152944608D02*
X164448733Y-153944608D01*
X164448733Y-152944608D02*
X164448733Y-153944608D01*
X164448733Y-153944608D02*
X163448733Y-153944608D01*
D12*
%TO.C,D18*%
X192048733Y-141294608D02*
X194848733Y-141294608D01*
X192048733Y-143094608D02*
X192048733Y-141294608D01*
X192698733Y-142194608D02*
X193098733Y-142194608D01*
X193098733Y-142194608D02*
X193098733Y-141644608D01*
X193098733Y-142194608D02*
X193098733Y-142744608D01*
X193098733Y-142194608D02*
X193698733Y-141794608D01*
X193698733Y-141794608D02*
X193698733Y-142594608D01*
X193698733Y-142194608D02*
X194198733Y-142194608D01*
X193698733Y-142594608D02*
X193098733Y-142194608D01*
X194848733Y-141294608D02*
X194848733Y-143094608D01*
X194848733Y-143094608D02*
X192048733Y-143094608D01*
D13*
X190828733Y-142194608D02*
G75*
G03*
X190828733Y-142194608I-180000J0D01*
G01*
D12*
%TO.C,D16*%
X156048733Y-141294608D02*
X158848733Y-141294608D01*
X156048733Y-143094608D02*
X156048733Y-141294608D01*
X156698733Y-142194608D02*
X157098733Y-142194608D01*
X157098733Y-142194608D02*
X157098733Y-141644608D01*
X157098733Y-142194608D02*
X157098733Y-142744608D01*
X157098733Y-142194608D02*
X157698733Y-141794608D01*
X157698733Y-141794608D02*
X157698733Y-142594608D01*
X157698733Y-142194608D02*
X158198733Y-142194608D01*
X157698733Y-142594608D02*
X157098733Y-142194608D01*
X158848733Y-141294608D02*
X158848733Y-143094608D01*
X158848733Y-143094608D02*
X156048733Y-143094608D01*
D13*
X154828733Y-142194608D02*
G75*
G03*
X154828733Y-142194608I-180000J0D01*
G01*
D12*
%TO.C,D13*%
X174048733Y-124294608D02*
X176848733Y-124294608D01*
X174048733Y-126094608D02*
X174048733Y-124294608D01*
X174698733Y-125194608D02*
X175098733Y-125194608D01*
X175098733Y-125194608D02*
X175098733Y-124644608D01*
X175098733Y-125194608D02*
X175098733Y-125744608D01*
X175098733Y-125194608D02*
X175698733Y-124794608D01*
X175698733Y-124794608D02*
X175698733Y-125594608D01*
X175698733Y-125194608D02*
X176198733Y-125194608D01*
X175698733Y-125594608D02*
X175098733Y-125194608D01*
X176848733Y-124294608D02*
X176848733Y-126094608D01*
X176848733Y-126094608D02*
X174048733Y-126094608D01*
D13*
X172828733Y-125194608D02*
G75*
G03*
X172828733Y-125194608I-180000J0D01*
G01*
D12*
%TO.C,D1*%
X102048733Y-124294608D02*
X104848733Y-124294608D01*
X102048733Y-126094608D02*
X102048733Y-124294608D01*
X102698733Y-125194608D02*
X103098733Y-125194608D01*
X103098733Y-125194608D02*
X103098733Y-124644608D01*
X103098733Y-125194608D02*
X103098733Y-125744608D01*
X103098733Y-125194608D02*
X103698733Y-124794608D01*
X103698733Y-124794608D02*
X103698733Y-125594608D01*
X103698733Y-125194608D02*
X104198733Y-125194608D01*
X103698733Y-125594608D02*
X103098733Y-125194608D01*
X104848733Y-124294608D02*
X104848733Y-126094608D01*
X104848733Y-126094608D02*
X102048733Y-126094608D01*
D13*
X100828733Y-125194608D02*
G75*
G03*
X100828733Y-125194608I-180000J0D01*
G01*
D12*
%TO.C,D3*%
X102048733Y-90294608D02*
X104848733Y-90294608D01*
X102048733Y-92094608D02*
X102048733Y-90294608D01*
X102698733Y-91194608D02*
X103098733Y-91194608D01*
X103098733Y-91194608D02*
X103098733Y-90644608D01*
X103098733Y-91194608D02*
X103098733Y-91744608D01*
X103098733Y-91194608D02*
X103698733Y-90794608D01*
X103698733Y-90794608D02*
X103698733Y-91594608D01*
X103698733Y-91194608D02*
X104198733Y-91194608D01*
X103698733Y-91594608D02*
X103098733Y-91194608D01*
X104848733Y-90294608D02*
X104848733Y-92094608D01*
X104848733Y-92094608D02*
X102048733Y-92094608D01*
D13*
X100828733Y-91194608D02*
G75*
G03*
X100828733Y-91194608I-180000J0D01*
G01*
D10*
%TO.C,SW21*%
X294448733Y-89944608D02*
X294448733Y-88944608D01*
X294448733Y-89944608D02*
X294448733Y-88944608D01*
X294448733Y-102944608D02*
X294448733Y-101944608D01*
X294448733Y-102944608D02*
X294448733Y-101944608D01*
X294448733Y-102944608D02*
X295448733Y-102944608D01*
X294448733Y-102944608D02*
X295448733Y-102944608D01*
X295448733Y-88944608D02*
X294448733Y-88944608D01*
X295448733Y-88944608D02*
X294448733Y-88944608D01*
X307448733Y-102944608D02*
X308448733Y-102944608D01*
X307448733Y-102944608D02*
X308448733Y-102944608D01*
X308448733Y-88944608D02*
X307448733Y-88944608D01*
X308448733Y-88944608D02*
X307448733Y-88944608D01*
X308448733Y-88944608D02*
X308448733Y-89944608D01*
X308448733Y-88944608D02*
X308448733Y-89944608D01*
X308448733Y-101944608D02*
X308448733Y-102944608D01*
X308448733Y-101944608D02*
X308448733Y-102944608D01*
X308448733Y-102944608D02*
X307448733Y-102944608D01*
D12*
%TO.C,D9*%
X138048733Y-90294608D02*
X140848733Y-90294608D01*
X138048733Y-92094608D02*
X138048733Y-90294608D01*
X138698733Y-91194608D02*
X139098733Y-91194608D01*
X139098733Y-91194608D02*
X139098733Y-90644608D01*
X139098733Y-91194608D02*
X139098733Y-91744608D01*
X139098733Y-91194608D02*
X139698733Y-90794608D01*
X139698733Y-90794608D02*
X139698733Y-91594608D01*
X139698733Y-91194608D02*
X140198733Y-91194608D01*
X139698733Y-91594608D02*
X139098733Y-91194608D01*
X140848733Y-90294608D02*
X140848733Y-92094608D01*
X140848733Y-92094608D02*
X138048733Y-92094608D01*
D13*
X136828733Y-91194608D02*
G75*
G03*
X136828733Y-91194608I-180000J0D01*
G01*
D10*
%TO.C,SW23*%
X276448733Y-106944608D02*
X276448733Y-105944608D01*
X276448733Y-106944608D02*
X276448733Y-105944608D01*
X276448733Y-119944608D02*
X276448733Y-118944608D01*
X276448733Y-119944608D02*
X276448733Y-118944608D01*
X276448733Y-119944608D02*
X277448733Y-119944608D01*
X276448733Y-119944608D02*
X277448733Y-119944608D01*
X277448733Y-105944608D02*
X276448733Y-105944608D01*
X277448733Y-105944608D02*
X276448733Y-105944608D01*
X289448733Y-119944608D02*
X290448733Y-119944608D01*
X289448733Y-119944608D02*
X290448733Y-119944608D01*
X290448733Y-105944608D02*
X289448733Y-105944608D01*
X290448733Y-105944608D02*
X289448733Y-105944608D01*
X290448733Y-105944608D02*
X290448733Y-106944608D01*
X290448733Y-105944608D02*
X290448733Y-106944608D01*
X290448733Y-118944608D02*
X290448733Y-119944608D01*
X290448733Y-118944608D02*
X290448733Y-119944608D01*
X290448733Y-119944608D02*
X289448733Y-119944608D01*
D12*
%TO.C,D34*%
X246048733Y-141294608D02*
X248848733Y-141294608D01*
X246048733Y-143094608D02*
X246048733Y-141294608D01*
X246698733Y-142194608D02*
X247098733Y-142194608D01*
X247098733Y-142194608D02*
X247098733Y-141644608D01*
X247098733Y-142194608D02*
X247098733Y-142744608D01*
X247098733Y-142194608D02*
X247698733Y-141794608D01*
X247698733Y-141794608D02*
X247698733Y-142594608D01*
X247698733Y-142194608D02*
X248198733Y-142194608D01*
X247698733Y-142594608D02*
X247098733Y-142194608D01*
X248848733Y-141294608D02*
X248848733Y-143094608D01*
X248848733Y-143094608D02*
X246048733Y-143094608D01*
D13*
X244828733Y-142194608D02*
G75*
G03*
X244828733Y-142194608I-180000J0D01*
G01*
D10*
%TO.C,SW12*%
X150448733Y-89944608D02*
X150448733Y-88944608D01*
X150448733Y-89944608D02*
X150448733Y-88944608D01*
X150448733Y-102944608D02*
X150448733Y-101944608D01*
X150448733Y-102944608D02*
X150448733Y-101944608D01*
X150448733Y-102944608D02*
X151448733Y-102944608D01*
X150448733Y-102944608D02*
X151448733Y-102944608D01*
X151448733Y-88944608D02*
X150448733Y-88944608D01*
X151448733Y-88944608D02*
X150448733Y-88944608D01*
X163448733Y-102944608D02*
X164448733Y-102944608D01*
X163448733Y-102944608D02*
X164448733Y-102944608D01*
X164448733Y-88944608D02*
X163448733Y-88944608D01*
X164448733Y-88944608D02*
X163448733Y-88944608D01*
X164448733Y-88944608D02*
X164448733Y-89944608D01*
X164448733Y-88944608D02*
X164448733Y-89944608D01*
X164448733Y-101944608D02*
X164448733Y-102944608D01*
X164448733Y-101944608D02*
X164448733Y-102944608D01*
X164448733Y-102944608D02*
X163448733Y-102944608D01*
D12*
%TO.C,D36*%
X210048733Y-141294608D02*
X212848733Y-141294608D01*
X210048733Y-143094608D02*
X210048733Y-141294608D01*
X210698733Y-142194608D02*
X211098733Y-142194608D01*
X211098733Y-142194608D02*
X211098733Y-141644608D01*
X211098733Y-142194608D02*
X211098733Y-142744608D01*
X211098733Y-142194608D02*
X211698733Y-141794608D01*
X211698733Y-141794608D02*
X211698733Y-142594608D01*
X211698733Y-142194608D02*
X212198733Y-142194608D01*
X211698733Y-142594608D02*
X211098733Y-142194608D01*
X212848733Y-141294608D02*
X212848733Y-143094608D01*
X212848733Y-143094608D02*
X210048733Y-143094608D01*
D13*
X208828733Y-142194608D02*
G75*
G03*
X208828733Y-142194608I-180000J0D01*
G01*
D10*
%TO.C,SW17*%
X168448733Y-140944608D02*
X168448733Y-139944608D01*
X168448733Y-140944608D02*
X168448733Y-139944608D01*
X168448733Y-153944608D02*
X168448733Y-152944608D01*
X168448733Y-153944608D02*
X168448733Y-152944608D01*
X168448733Y-153944608D02*
X169448733Y-153944608D01*
X168448733Y-153944608D02*
X169448733Y-153944608D01*
X169448733Y-139944608D02*
X168448733Y-139944608D01*
X169448733Y-139944608D02*
X168448733Y-139944608D01*
X181448733Y-153944608D02*
X182448733Y-153944608D01*
X181448733Y-153944608D02*
X182448733Y-153944608D01*
X182448733Y-139944608D02*
X181448733Y-139944608D01*
X182448733Y-139944608D02*
X181448733Y-139944608D01*
X182448733Y-139944608D02*
X182448733Y-140944608D01*
X182448733Y-139944608D02*
X182448733Y-140944608D01*
X182448733Y-152944608D02*
X182448733Y-153944608D01*
X182448733Y-152944608D02*
X182448733Y-153944608D01*
X182448733Y-153944608D02*
X181448733Y-153944608D01*
D12*
%TO.C,D6*%
X120048733Y-90294608D02*
X122848733Y-90294608D01*
X120048733Y-92094608D02*
X120048733Y-90294608D01*
X120698733Y-91194608D02*
X121098733Y-91194608D01*
X121098733Y-91194608D02*
X121098733Y-90644608D01*
X121098733Y-91194608D02*
X121098733Y-91744608D01*
X121098733Y-91194608D02*
X121698733Y-90794608D01*
X121698733Y-90794608D02*
X121698733Y-91594608D01*
X121698733Y-91194608D02*
X122198733Y-91194608D01*
X121698733Y-91594608D02*
X121098733Y-91194608D01*
X122848733Y-90294608D02*
X122848733Y-92094608D01*
X122848733Y-92094608D02*
X120048733Y-92094608D01*
D13*
X118828733Y-91194608D02*
G75*
G03*
X118828733Y-91194608I-180000J0D01*
G01*
D10*
%TO.C,SW35*%
X222448733Y-140944608D02*
X222448733Y-139944608D01*
X222448733Y-140944608D02*
X222448733Y-139944608D01*
X222448733Y-153944608D02*
X222448733Y-152944608D01*
X222448733Y-153944608D02*
X222448733Y-152944608D01*
X222448733Y-153944608D02*
X223448733Y-153944608D01*
X222448733Y-153944608D02*
X223448733Y-153944608D01*
X223448733Y-139944608D02*
X222448733Y-139944608D01*
X223448733Y-139944608D02*
X222448733Y-139944608D01*
X235448733Y-153944608D02*
X236448733Y-153944608D01*
X235448733Y-153944608D02*
X236448733Y-153944608D01*
X236448733Y-139944608D02*
X235448733Y-139944608D01*
X236448733Y-139944608D02*
X235448733Y-139944608D01*
X236448733Y-139944608D02*
X236448733Y-140944608D01*
X236448733Y-139944608D02*
X236448733Y-140944608D01*
X236448733Y-152944608D02*
X236448733Y-153944608D01*
X236448733Y-152944608D02*
X236448733Y-153944608D01*
X236448733Y-153944608D02*
X235448733Y-153944608D01*
%TO.C,J2*%
G36*
X211511185Y-125155808D02*
G01*
X211084148Y-125155808D01*
X210753419Y-125155808D01*
X210279285Y-124444608D01*
X211084148Y-124444608D01*
X211090994Y-124560595D01*
X211111532Y-124662492D01*
X211145763Y-124750301D01*
X211193685Y-124824020D01*
X211277647Y-124898104D01*
X211383480Y-124942554D01*
X211511185Y-124957370D01*
X211597903Y-124952013D01*
X211673904Y-124935939D01*
X211785823Y-124889108D01*
X211783794Y-124882758D01*
X211898535Y-124882758D01*
X212008073Y-124931177D01*
X212093401Y-124950822D01*
X212203335Y-124957370D01*
X212314725Y-124948992D01*
X212405477Y-124923857D01*
X212475592Y-124881964D01*
X212542862Y-124790881D01*
X212565285Y-124668445D01*
X212558539Y-124594428D01*
X212538298Y-124534302D01*
X212469242Y-124445402D01*
X212377167Y-124388252D01*
X212281123Y-124349358D01*
X212220004Y-124325545D01*
X212164442Y-124296177D01*
X212123960Y-124258077D01*
X212108085Y-124208070D01*
X212125372Y-124145452D01*
X212177230Y-124107882D01*
X212263660Y-124095358D01*
X212375579Y-124111233D01*
X212463685Y-124149333D01*
X212520835Y-123998520D01*
X212407329Y-123952483D01*
X212334106Y-123937005D01*
X212249373Y-123931845D01*
X212152094Y-123940489D01*
X212069809Y-123966418D01*
X212002517Y-124009633D01*
X211935246Y-124102502D01*
X211912823Y-124225533D01*
X211938223Y-124342214D01*
X212002517Y-124420795D01*
X212089035Y-124473183D01*
X212181110Y-124509695D01*
X212247785Y-124537477D01*
X212308110Y-124570814D01*
X212352560Y-124612883D01*
X212370023Y-124666858D01*
X212362879Y-124713689D01*
X212336685Y-124754964D01*
X212285092Y-124783539D01*
X212203335Y-124793858D01*
X212124159Y-124788302D01*
X212058079Y-124771633D01*
X211955685Y-124724008D01*
X211898535Y-124882758D01*
X211783794Y-124882758D01*
X211736610Y-124735120D01*
X211656442Y-124770045D01*
X211530235Y-124787508D01*
X211416928Y-124765085D01*
X211340529Y-124697814D01*
X211308338Y-124629287D01*
X211289024Y-124543298D01*
X211282585Y-124439845D01*
X211287943Y-124350945D01*
X211304017Y-124277920D01*
X211359579Y-124173939D01*
X211437367Y-124118377D01*
X211527060Y-124101708D01*
X211645329Y-124118377D01*
X211733435Y-124158858D01*
X211784235Y-124003283D01*
X211751692Y-123984233D01*
X211698510Y-123960420D01*
X211624692Y-123940577D01*
X211530235Y-123931845D01*
X211437168Y-123940378D01*
X211351642Y-123965977D01*
X211275442Y-124008045D01*
X211210354Y-124065989D01*
X211157371Y-124139213D01*
X211117485Y-124227120D01*
X211092482Y-124329117D01*
X211084148Y-124444608D01*
X210279285Y-124444608D01*
X210753419Y-123733408D01*
X211084148Y-123733408D01*
X212565285Y-123733408D01*
X212896015Y-123733408D01*
X212896015Y-125155808D01*
X212565285Y-125155808D01*
X212203335Y-125155808D01*
X211511185Y-125155808D01*
G37*
D12*
%TO.C,D24*%
X282048733Y-90294608D02*
X284848733Y-90294608D01*
X282048733Y-92094608D02*
X282048733Y-90294608D01*
X282698733Y-91194608D02*
X283098733Y-91194608D01*
X283098733Y-91194608D02*
X283098733Y-90644608D01*
X283098733Y-91194608D02*
X283098733Y-91744608D01*
X283098733Y-91194608D02*
X283698733Y-90794608D01*
X283698733Y-90794608D02*
X283698733Y-91594608D01*
X283698733Y-91194608D02*
X284198733Y-91194608D01*
X283698733Y-91594608D02*
X283098733Y-91194608D01*
X284848733Y-90294608D02*
X284848733Y-92094608D01*
X284848733Y-92094608D02*
X282048733Y-92094608D01*
D13*
X280828733Y-91194608D02*
G75*
G03*
X280828733Y-91194608I-180000J0D01*
G01*
D10*
%TO.C,SW1*%
X96448733Y-123944608D02*
X96448733Y-122944608D01*
X96448733Y-123944608D02*
X96448733Y-122944608D01*
X96448733Y-136944608D02*
X96448733Y-135944608D01*
X96448733Y-136944608D02*
X96448733Y-135944608D01*
X96448733Y-136944608D02*
X97448733Y-136944608D01*
X96448733Y-136944608D02*
X97448733Y-136944608D01*
X97448733Y-122944608D02*
X96448733Y-122944608D01*
X97448733Y-122944608D02*
X96448733Y-122944608D01*
X109448733Y-136944608D02*
X110448733Y-136944608D01*
X109448733Y-136944608D02*
X110448733Y-136944608D01*
X110448733Y-122944608D02*
X109448733Y-122944608D01*
X110448733Y-122944608D02*
X109448733Y-122944608D01*
X110448733Y-122944608D02*
X110448733Y-123944608D01*
X110448733Y-122944608D02*
X110448733Y-123944608D01*
X110448733Y-135944608D02*
X110448733Y-136944608D01*
X110448733Y-135944608D02*
X110448733Y-136944608D01*
X110448733Y-136944608D02*
X109448733Y-136944608D01*
%TO.C,SW31*%
X222448733Y-123944608D02*
X222448733Y-122944608D01*
X222448733Y-123944608D02*
X222448733Y-122944608D01*
X222448733Y-136944608D02*
X222448733Y-135944608D01*
X222448733Y-136944608D02*
X222448733Y-135944608D01*
X222448733Y-136944608D02*
X223448733Y-136944608D01*
X222448733Y-136944608D02*
X223448733Y-136944608D01*
X223448733Y-122944608D02*
X222448733Y-122944608D01*
X223448733Y-122944608D02*
X222448733Y-122944608D01*
X235448733Y-136944608D02*
X236448733Y-136944608D01*
X235448733Y-136944608D02*
X236448733Y-136944608D01*
X236448733Y-122944608D02*
X235448733Y-122944608D01*
X236448733Y-122944608D02*
X235448733Y-122944608D01*
X236448733Y-122944608D02*
X236448733Y-123944608D01*
X236448733Y-122944608D02*
X236448733Y-123944608D01*
X236448733Y-135944608D02*
X236448733Y-136944608D01*
X236448733Y-135944608D02*
X236448733Y-136944608D01*
X236448733Y-136944608D02*
X235448733Y-136944608D01*
%TO.C,SW5*%
X114448733Y-106944608D02*
X114448733Y-105944608D01*
X114448733Y-106944608D02*
X114448733Y-105944608D01*
X114448733Y-119944608D02*
X114448733Y-118944608D01*
X114448733Y-119944608D02*
X114448733Y-118944608D01*
X114448733Y-119944608D02*
X115448733Y-119944608D01*
X114448733Y-119944608D02*
X115448733Y-119944608D01*
X115448733Y-105944608D02*
X114448733Y-105944608D01*
X115448733Y-105944608D02*
X114448733Y-105944608D01*
X127448733Y-119944608D02*
X128448733Y-119944608D01*
X127448733Y-119944608D02*
X128448733Y-119944608D01*
X128448733Y-105944608D02*
X127448733Y-105944608D01*
X128448733Y-105944608D02*
X127448733Y-105944608D01*
X128448733Y-105944608D02*
X128448733Y-106944608D01*
X128448733Y-105944608D02*
X128448733Y-106944608D01*
X128448733Y-118944608D02*
X128448733Y-119944608D01*
X128448733Y-118944608D02*
X128448733Y-119944608D01*
X128448733Y-119944608D02*
X127448733Y-119944608D01*
%TO.C,SW32*%
X222448733Y-106944608D02*
X222448733Y-105944608D01*
X222448733Y-106944608D02*
X222448733Y-105944608D01*
X222448733Y-119944608D02*
X222448733Y-118944608D01*
X222448733Y-119944608D02*
X222448733Y-118944608D01*
X222448733Y-119944608D02*
X223448733Y-119944608D01*
X222448733Y-119944608D02*
X223448733Y-119944608D01*
X223448733Y-105944608D02*
X222448733Y-105944608D01*
X223448733Y-105944608D02*
X222448733Y-105944608D01*
X235448733Y-119944608D02*
X236448733Y-119944608D01*
X235448733Y-119944608D02*
X236448733Y-119944608D01*
X236448733Y-105944608D02*
X235448733Y-105944608D01*
X236448733Y-105944608D02*
X235448733Y-105944608D01*
X236448733Y-105944608D02*
X236448733Y-106944608D01*
X236448733Y-105944608D02*
X236448733Y-106944608D01*
X236448733Y-118944608D02*
X236448733Y-119944608D01*
X236448733Y-118944608D02*
X236448733Y-119944608D01*
X236448733Y-119944608D02*
X235448733Y-119944608D01*
%TO.C,SW27*%
X258448733Y-89944608D02*
X258448733Y-88944608D01*
X258448733Y-89944608D02*
X258448733Y-88944608D01*
X258448733Y-102944608D02*
X258448733Y-101944608D01*
X258448733Y-102944608D02*
X258448733Y-101944608D01*
X258448733Y-102944608D02*
X259448733Y-102944608D01*
X258448733Y-102944608D02*
X259448733Y-102944608D01*
X259448733Y-88944608D02*
X258448733Y-88944608D01*
X259448733Y-88944608D02*
X258448733Y-88944608D01*
X271448733Y-102944608D02*
X272448733Y-102944608D01*
X271448733Y-102944608D02*
X272448733Y-102944608D01*
X272448733Y-88944608D02*
X271448733Y-88944608D01*
X272448733Y-88944608D02*
X271448733Y-88944608D01*
X272448733Y-88944608D02*
X272448733Y-89944608D01*
X272448733Y-88944608D02*
X272448733Y-89944608D01*
X272448733Y-101944608D02*
X272448733Y-102944608D01*
X272448733Y-101944608D02*
X272448733Y-102944608D01*
X272448733Y-102944608D02*
X271448733Y-102944608D01*
D12*
%TO.C,D2*%
X102048733Y-107294608D02*
X104848733Y-107294608D01*
X102048733Y-109094608D02*
X102048733Y-107294608D01*
X102698733Y-108194608D02*
X103098733Y-108194608D01*
X103098733Y-108194608D02*
X103098733Y-107644608D01*
X103098733Y-108194608D02*
X103098733Y-108744608D01*
X103098733Y-108194608D02*
X103698733Y-107794608D01*
X103698733Y-107794608D02*
X103698733Y-108594608D01*
X103698733Y-108194608D02*
X104198733Y-108194608D01*
X103698733Y-108594608D02*
X103098733Y-108194608D01*
X104848733Y-107294608D02*
X104848733Y-109094608D01*
X104848733Y-109094608D02*
X102048733Y-109094608D01*
D13*
X100828733Y-108194608D02*
G75*
G03*
X100828733Y-108194608I-180000J0D01*
G01*
%TO.C,J1*%
G36*
X198638346Y-128360764D02*
G01*
X198735977Y-128382989D01*
X198834402Y-128408389D01*
X198939971Y-128437758D01*
X198834402Y-128467127D01*
X198735977Y-128492527D01*
X198638346Y-128513958D01*
X198536746Y-128533008D01*
X198536746Y-128340920D01*
X198638346Y-128360764D01*
G37*
G36*
X206590646Y-128373487D02*
G01*
X206591440Y-128402062D01*
X206563658Y-128508425D01*
X206489840Y-128573512D01*
X206383477Y-128606850D01*
X206259652Y-128616375D01*
X206189604Y-128613398D01*
X206125508Y-128604468D01*
X206019940Y-128564781D01*
X205950090Y-128491756D01*
X205924690Y-128379837D01*
X205924690Y-128362375D01*
X205926277Y-128344912D01*
X206586677Y-128344912D01*
X206590646Y-128373487D01*
G37*
G36*
X198970927Y-127558283D02*
G01*
X198971721Y-127586858D01*
X198943939Y-127693220D01*
X198870121Y-127758308D01*
X198763758Y-127791645D01*
X198639933Y-127801170D01*
X198569885Y-127798194D01*
X198505789Y-127789264D01*
X198400221Y-127749577D01*
X198330371Y-127676552D01*
X198304971Y-127564633D01*
X198304971Y-127547170D01*
X198306558Y-127529708D01*
X198966958Y-127529708D01*
X198970927Y-127558283D01*
G37*
G36*
X205548452Y-126920925D02*
G01*
X205746890Y-126920925D01*
X205750858Y-127017961D01*
X205762765Y-127099518D01*
X205791340Y-127208262D01*
X206281877Y-127208262D01*
X206281877Y-127013000D01*
X205923102Y-127013000D01*
X205918340Y-126974900D01*
X205916752Y-126936800D01*
X205937588Y-126841947D01*
X206000096Y-126773287D01*
X206065977Y-126742419D01*
X206152496Y-126723898D01*
X206259652Y-126717725D01*
X206332479Y-126721098D01*
X206398558Y-126731218D01*
X206506508Y-126775668D01*
X206577152Y-126854250D01*
X206602552Y-126971725D01*
X206585090Y-127076500D01*
X206545402Y-127162225D01*
X206700977Y-127213025D01*
X206720027Y-127180481D01*
X206743840Y-127125712D01*
X206763683Y-127047131D01*
X206772415Y-126944737D01*
X206764279Y-126858615D01*
X206739871Y-126778050D01*
X206699191Y-126705422D01*
X206642240Y-126643112D01*
X206569413Y-126591915D01*
X206481108Y-126552625D01*
X206377722Y-126527622D01*
X206259652Y-126519287D01*
X206140391Y-126526431D01*
X206036608Y-126547862D01*
X205948502Y-126582390D01*
X205876271Y-126628825D01*
X205819915Y-126686570D01*
X205779433Y-126755031D01*
X205755025Y-126833414D01*
X205746890Y-126920925D01*
X205548452Y-126920925D01*
X205548452Y-126519287D01*
X205548452Y-126188558D01*
X206259652Y-125714425D01*
X206970852Y-126188558D01*
X206970852Y-126519287D01*
X206970852Y-128814812D01*
X206970852Y-129272541D01*
X205548452Y-129272541D01*
X205548452Y-128814812D01*
X205548452Y-128359200D01*
X205754827Y-128359200D01*
X205761772Y-128455045D01*
X205782608Y-128542556D01*
X205818525Y-128620145D01*
X205870715Y-128686225D01*
X205939969Y-128740001D01*
X206027083Y-128780681D01*
X206133247Y-128806279D01*
X206259652Y-128814812D01*
X206383279Y-128807073D01*
X206487458Y-128783856D01*
X206573580Y-128746748D01*
X206643033Y-128697337D01*
X206696016Y-128635623D01*
X206732727Y-128561606D01*
X206754158Y-128477270D01*
X206761302Y-128384600D01*
X206756540Y-128275062D01*
X206737490Y-128149650D01*
X205778640Y-128149650D01*
X205760383Y-128256806D01*
X205754827Y-128359200D01*
X205548452Y-128359200D01*
X205548452Y-127833737D01*
X205548452Y-127519412D01*
X205767527Y-127519412D01*
X206419990Y-127519412D01*
X206311069Y-127578414D01*
X206202326Y-127634770D01*
X206093758Y-127688481D01*
X205985191Y-127739545D01*
X205876447Y-127787964D01*
X205767527Y-127833737D01*
X205767527Y-127990900D01*
X206750190Y-127990900D01*
X206750190Y-127814687D01*
X206145352Y-127814687D01*
X206207265Y-127786707D01*
X206278702Y-127753568D01*
X206356093Y-127716262D01*
X206435865Y-127675781D01*
X206517025Y-127633117D01*
X206598583Y-127589262D01*
X206677363Y-127544812D01*
X206750190Y-127500362D01*
X206750190Y-127343200D01*
X205767527Y-127343200D01*
X205767527Y-127519412D01*
X205548452Y-127519412D01*
X205548452Y-126920925D01*
G37*
G36*
X200468733Y-126824721D02*
G01*
X200667171Y-126824721D01*
X200675549Y-126936110D01*
X200700684Y-127026862D01*
X200742577Y-127096977D01*
X200833660Y-127164247D01*
X200956096Y-127186671D01*
X201030113Y-127179924D01*
X201090239Y-127159683D01*
X201179139Y-127090627D01*
X201236289Y-126998552D01*
X201275183Y-126902508D01*
X201298996Y-126841389D01*
X201328364Y-126785827D01*
X201366464Y-126745346D01*
X201416471Y-126729471D01*
X201479089Y-126746757D01*
X201516659Y-126798615D01*
X201529183Y-126885046D01*
X201513308Y-126996964D01*
X201475208Y-127085071D01*
X201626021Y-127142221D01*
X201672058Y-127028714D01*
X201687536Y-126955491D01*
X201692696Y-126870758D01*
X201684052Y-126773480D01*
X201658123Y-126691194D01*
X201614908Y-126623902D01*
X201522039Y-126556632D01*
X201399008Y-126534208D01*
X201282327Y-126559608D01*
X201203746Y-126623902D01*
X201151358Y-126710421D01*
X201114846Y-126802496D01*
X201087064Y-126869171D01*
X201053727Y-126929496D01*
X201011658Y-126973946D01*
X200957683Y-126991408D01*
X200910852Y-126984264D01*
X200869577Y-126958071D01*
X200841002Y-126906477D01*
X200830683Y-126824721D01*
X200836239Y-126745544D01*
X200852908Y-126679464D01*
X200900533Y-126577071D01*
X200741783Y-126519921D01*
X200693364Y-126629458D01*
X200673719Y-126714786D01*
X200667171Y-126824721D01*
X200468733Y-126824721D01*
X200468733Y-126519921D01*
X200468733Y-126189191D01*
X201179933Y-125715058D01*
X201891133Y-126189191D01*
X201891133Y-126519921D01*
X201891133Y-128774171D01*
X201891133Y-129271058D01*
X200468733Y-129271058D01*
X200468733Y-128774171D01*
X200468733Y-128156633D01*
X200687808Y-128156633D01*
X200687808Y-128774171D01*
X200849733Y-128774171D01*
X200849733Y-128353483D01*
X201670471Y-128353483D01*
X201670471Y-128156633D01*
X200687808Y-128156633D01*
X200468733Y-128156633D01*
X200468733Y-127720071D01*
X200667171Y-127720071D01*
X200672528Y-127806788D01*
X200688602Y-127882789D01*
X200735433Y-127994708D01*
X200889421Y-127945496D01*
X200854496Y-127865327D01*
X200837033Y-127739121D01*
X200859456Y-127625813D01*
X200926727Y-127549414D01*
X200995254Y-127517223D01*
X201081243Y-127497909D01*
X201184696Y-127491471D01*
X201273596Y-127496828D01*
X201346621Y-127512902D01*
X201450602Y-127568464D01*
X201506164Y-127646252D01*
X201522833Y-127735946D01*
X201506164Y-127854214D01*
X201465683Y-127942321D01*
X201621258Y-127993121D01*
X201640308Y-127960577D01*
X201664121Y-127907396D01*
X201683964Y-127833577D01*
X201692696Y-127739121D01*
X201684163Y-127646053D01*
X201658564Y-127560527D01*
X201616496Y-127484327D01*
X201558552Y-127419239D01*
X201485328Y-127366257D01*
X201397421Y-127326371D01*
X201295424Y-127301368D01*
X201179933Y-127293033D01*
X201063946Y-127299879D01*
X200962049Y-127320418D01*
X200874240Y-127354648D01*
X200800521Y-127402571D01*
X200726437Y-127486532D01*
X200681987Y-127592365D01*
X200667171Y-127720071D01*
X200468733Y-127720071D01*
X200468733Y-126824721D01*
G37*
G36*
X197928733Y-126823270D02*
G01*
X198127171Y-126823270D01*
X198135549Y-126934660D01*
X198160684Y-127025412D01*
X198202577Y-127095527D01*
X198293660Y-127162797D01*
X198416096Y-127185220D01*
X198490113Y-127178474D01*
X198550239Y-127158233D01*
X198639139Y-127089177D01*
X198696289Y-126997102D01*
X198735183Y-126901058D01*
X198758996Y-126839939D01*
X198788364Y-126784377D01*
X198826464Y-126743895D01*
X198876471Y-126728020D01*
X198939089Y-126745307D01*
X198976659Y-126797165D01*
X198989183Y-126883595D01*
X198973308Y-126995514D01*
X198935208Y-127083620D01*
X199086021Y-127140770D01*
X199132058Y-127027264D01*
X199147536Y-126954041D01*
X199152696Y-126869308D01*
X199144052Y-126772029D01*
X199118123Y-126689744D01*
X199074908Y-126622452D01*
X198982039Y-126555181D01*
X198859008Y-126532758D01*
X198742327Y-126558158D01*
X198663746Y-126622452D01*
X198611358Y-126708970D01*
X198574846Y-126801045D01*
X198547064Y-126867720D01*
X198513727Y-126928045D01*
X198471658Y-126972495D01*
X198417683Y-126989958D01*
X198370852Y-126982814D01*
X198329577Y-126956620D01*
X198301002Y-126905027D01*
X198290683Y-126823270D01*
X198296239Y-126744094D01*
X198312908Y-126678014D01*
X198360533Y-126575620D01*
X198201783Y-126518470D01*
X198153364Y-126628008D01*
X198133719Y-126713336D01*
X198127171Y-126823270D01*
X197928733Y-126823270D01*
X197928733Y-126518470D01*
X197928733Y-126187741D01*
X198639933Y-125713608D01*
X199351133Y-126187741D01*
X199351133Y-126518470D01*
X199351133Y-128821933D01*
X199351133Y-129269608D01*
X197928733Y-129269608D01*
X197928733Y-128821933D01*
X197928733Y-128612383D01*
X197928733Y-128259958D01*
X198147808Y-128259958D01*
X198374820Y-128304408D01*
X198374820Y-128566345D01*
X198147808Y-128612383D01*
X198147808Y-128821933D01*
X198259219Y-128795739D01*
X198367391Y-128769228D01*
X198472325Y-128742399D01*
X198574020Y-128715253D01*
X198672477Y-128687789D01*
X198791887Y-128653211D01*
X198908022Y-128618534D01*
X199020883Y-128583758D01*
X199130471Y-128548883D01*
X199130471Y-128336158D01*
X199021776Y-128302523D01*
X198910006Y-128268292D01*
X198795161Y-128233467D01*
X198677239Y-128198045D01*
X198579608Y-128169534D01*
X198477849Y-128141149D01*
X198371963Y-128112892D01*
X198261949Y-128084761D01*
X198147808Y-128056758D01*
X198147808Y-128259958D01*
X197928733Y-128259958D01*
X197928733Y-127543995D01*
X198135108Y-127543995D01*
X198142053Y-127639841D01*
X198162889Y-127727352D01*
X198198806Y-127804941D01*
X198250996Y-127871020D01*
X198320250Y-127924797D01*
X198407364Y-127965477D01*
X198513528Y-127991075D01*
X198639933Y-127999608D01*
X198763560Y-127991869D01*
X198867739Y-127968652D01*
X198953861Y-127931544D01*
X199023314Y-127882133D01*
X199076297Y-127820419D01*
X199113008Y-127746402D01*
X199134439Y-127662066D01*
X199141583Y-127569395D01*
X199136821Y-127459858D01*
X199117771Y-127334445D01*
X198158921Y-127334445D01*
X198140664Y-127441602D01*
X198135108Y-127543995D01*
X197928733Y-127543995D01*
X197928733Y-126823270D01*
G37*
G36*
X203008733Y-126794108D02*
G01*
X203008733Y-126519471D01*
X203008733Y-126188741D01*
X203719933Y-125714608D01*
X204431133Y-126188741D01*
X204431133Y-126519471D01*
X204431133Y-128830871D01*
X204431133Y-129270608D01*
X203008733Y-129270608D01*
X203008733Y-128830871D01*
X203008733Y-128556233D01*
X203207171Y-128556233D01*
X203212528Y-128642950D01*
X203228602Y-128718952D01*
X203275433Y-128830871D01*
X203429421Y-128781658D01*
X203394496Y-128701489D01*
X203377033Y-128575283D01*
X203399456Y-128461975D01*
X203466727Y-128385577D01*
X203535254Y-128353386D01*
X203621243Y-128334071D01*
X203724696Y-128327633D01*
X203813596Y-128332991D01*
X203886621Y-128349064D01*
X203990602Y-128404627D01*
X204046164Y-128482414D01*
X204062833Y-128572108D01*
X204046164Y-128690377D01*
X204005683Y-128778483D01*
X204161258Y-128829283D01*
X204180308Y-128796739D01*
X204204121Y-128743558D01*
X204223964Y-128669739D01*
X204232696Y-128575283D01*
X204224163Y-128482216D01*
X204198564Y-128396689D01*
X204156496Y-128320489D01*
X204098552Y-128255402D01*
X204025328Y-128202419D01*
X203937421Y-128162533D01*
X203835424Y-128137530D01*
X203719933Y-128129196D01*
X203603946Y-128136042D01*
X203502049Y-128156580D01*
X203414240Y-128190811D01*
X203340521Y-128238733D01*
X203266437Y-128322694D01*
X203221987Y-128428528D01*
X203207171Y-128556233D01*
X203008733Y-128556233D01*
X203008733Y-127762483D01*
X203207171Y-127762483D01*
X203212528Y-127849200D01*
X203228602Y-127925202D01*
X203275433Y-128037121D01*
X203429421Y-127987908D01*
X203394496Y-127907739D01*
X203377033Y-127781533D01*
X203399456Y-127668225D01*
X203466727Y-127591827D01*
X203535254Y-127559636D01*
X203621243Y-127540321D01*
X203724696Y-127533883D01*
X203813596Y-127539241D01*
X203886621Y-127555314D01*
X203990602Y-127610877D01*
X204046164Y-127688664D01*
X204062833Y-127778358D01*
X204046164Y-127896627D01*
X204005683Y-127984733D01*
X204161258Y-128035533D01*
X204180308Y-128002989D01*
X204204121Y-127949808D01*
X204223964Y-127875989D01*
X204232696Y-127781533D01*
X204224163Y-127688466D01*
X204198564Y-127602939D01*
X204156496Y-127526739D01*
X204098552Y-127461652D01*
X204025328Y-127408669D01*
X203937421Y-127368783D01*
X203835424Y-127343780D01*
X203719933Y-127335446D01*
X203603946Y-127342292D01*
X203502049Y-127362830D01*
X203414240Y-127397061D01*
X203340521Y-127444983D01*
X203266437Y-127528944D01*
X203221987Y-127634778D01*
X203207171Y-127762483D01*
X203008733Y-127762483D01*
X203008733Y-126995721D01*
X203227808Y-126995721D01*
X203312386Y-127026060D01*
X203398905Y-127055693D01*
X203487364Y-127084621D01*
X203576264Y-127112402D01*
X203664106Y-127138596D01*
X203750889Y-127163202D01*
X203877294Y-127196936D01*
X203997746Y-127226702D01*
X204109664Y-127252300D01*
X204210471Y-127273533D01*
X204210471Y-127068746D01*
X204127921Y-127054458D01*
X204032671Y-127036996D01*
X203929681Y-127017152D01*
X203823914Y-126995721D01*
X203717552Y-126972702D01*
X203612777Y-126948096D01*
X203514550Y-126922696D01*
X203427833Y-126897296D01*
X203515741Y-126871697D01*
X203614364Y-126845702D01*
X203719139Y-126820302D01*
X203825502Y-126796489D01*
X203931071Y-126774463D01*
X204033464Y-126754421D01*
X204128119Y-126737752D01*
X204210471Y-126725846D01*
X204210471Y-126519471D01*
X204121571Y-126537727D01*
X204010446Y-126563921D01*
X203927278Y-126584911D01*
X203840759Y-126607665D01*
X203750889Y-126632183D01*
X203659255Y-126658112D01*
X203567445Y-126685100D01*
X203475458Y-126713146D01*
X203344489Y-126754818D01*
X203227808Y-126794108D01*
X203227808Y-126995721D01*
X203008733Y-126995721D01*
X203008733Y-126794108D01*
G37*
D12*
%TO.C,D26*%
X264048733Y-107294608D02*
X266848733Y-107294608D01*
X264048733Y-109094608D02*
X264048733Y-107294608D01*
X264698733Y-108194608D02*
X265098733Y-108194608D01*
X265098733Y-108194608D02*
X265098733Y-107644608D01*
X265098733Y-108194608D02*
X265098733Y-108744608D01*
X265098733Y-108194608D02*
X265698733Y-107794608D01*
X265698733Y-107794608D02*
X265698733Y-108594608D01*
X265698733Y-108194608D02*
X266198733Y-108194608D01*
X265698733Y-108594608D02*
X265098733Y-108194608D01*
X266848733Y-107294608D02*
X266848733Y-109094608D01*
X266848733Y-109094608D02*
X264048733Y-109094608D01*
D13*
X262828733Y-108194608D02*
G75*
G03*
X262828733Y-108194608I-180000J0D01*
G01*
D12*
%TO.C,D23*%
X282048733Y-107294608D02*
X284848733Y-107294608D01*
X282048733Y-109094608D02*
X282048733Y-107294608D01*
X282698733Y-108194608D02*
X283098733Y-108194608D01*
X283098733Y-108194608D02*
X283098733Y-107644608D01*
X283098733Y-108194608D02*
X283098733Y-108744608D01*
X283098733Y-108194608D02*
X283698733Y-107794608D01*
X283698733Y-107794608D02*
X283698733Y-108594608D01*
X283698733Y-108194608D02*
X284198733Y-108194608D01*
X283698733Y-108594608D02*
X283098733Y-108194608D01*
X284848733Y-107294608D02*
X284848733Y-109094608D01*
X284848733Y-109094608D02*
X282048733Y-109094608D01*
D13*
X280828733Y-108194608D02*
G75*
G03*
X280828733Y-108194608I-180000J0D01*
G01*
D10*
%TO.C,SW2*%
X96448733Y-106944608D02*
X96448733Y-105944608D01*
X96448733Y-106944608D02*
X96448733Y-105944608D01*
X96448733Y-119944608D02*
X96448733Y-118944608D01*
X96448733Y-119944608D02*
X96448733Y-118944608D01*
X96448733Y-119944608D02*
X97448733Y-119944608D01*
X96448733Y-119944608D02*
X97448733Y-119944608D01*
X97448733Y-105944608D02*
X96448733Y-105944608D01*
X97448733Y-105944608D02*
X96448733Y-105944608D01*
X109448733Y-119944608D02*
X110448733Y-119944608D01*
X109448733Y-119944608D02*
X110448733Y-119944608D01*
X110448733Y-105944608D02*
X109448733Y-105944608D01*
X110448733Y-105944608D02*
X109448733Y-105944608D01*
X110448733Y-105944608D02*
X110448733Y-106944608D01*
X110448733Y-105944608D02*
X110448733Y-106944608D01*
X110448733Y-118944608D02*
X110448733Y-119944608D01*
X110448733Y-118944608D02*
X110448733Y-119944608D01*
X110448733Y-119944608D02*
X109448733Y-119944608D01*
D12*
%TO.C,D7*%
X138048733Y-124294608D02*
X140848733Y-124294608D01*
X138048733Y-126094608D02*
X138048733Y-124294608D01*
X138698733Y-125194608D02*
X139098733Y-125194608D01*
X139098733Y-125194608D02*
X139098733Y-124644608D01*
X139098733Y-125194608D02*
X139098733Y-125744608D01*
X139098733Y-125194608D02*
X139698733Y-124794608D01*
X139698733Y-124794608D02*
X139698733Y-125594608D01*
X139698733Y-125194608D02*
X140198733Y-125194608D01*
X139698733Y-125594608D02*
X139098733Y-125194608D01*
X140848733Y-124294608D02*
X140848733Y-126094608D01*
X140848733Y-126094608D02*
X138048733Y-126094608D01*
D13*
X136828733Y-125194608D02*
G75*
G03*
X136828733Y-125194608I-180000J0D01*
G01*
D10*
%TO.C,SW18*%
X186448733Y-140944608D02*
X186448733Y-139944608D01*
X186448733Y-140944608D02*
X186448733Y-139944608D01*
X186448733Y-153944608D02*
X186448733Y-152944608D01*
X186448733Y-153944608D02*
X186448733Y-152944608D01*
X186448733Y-153944608D02*
X187448733Y-153944608D01*
X186448733Y-153944608D02*
X187448733Y-153944608D01*
X187448733Y-139944608D02*
X186448733Y-139944608D01*
X187448733Y-139944608D02*
X186448733Y-139944608D01*
X199448733Y-153944608D02*
X200448733Y-153944608D01*
X199448733Y-153944608D02*
X200448733Y-153944608D01*
X200448733Y-139944608D02*
X199448733Y-139944608D01*
X200448733Y-139944608D02*
X199448733Y-139944608D01*
X200448733Y-139944608D02*
X200448733Y-140944608D01*
X200448733Y-139944608D02*
X200448733Y-140944608D01*
X200448733Y-152944608D02*
X200448733Y-153944608D01*
X200448733Y-152944608D02*
X200448733Y-153944608D01*
X200448733Y-153944608D02*
X199448733Y-153944608D01*
D12*
%TO.C,D5*%
X120048733Y-107294608D02*
X122848733Y-107294608D01*
X120048733Y-109094608D02*
X120048733Y-107294608D01*
X120698733Y-108194608D02*
X121098733Y-108194608D01*
X121098733Y-108194608D02*
X121098733Y-107644608D01*
X121098733Y-108194608D02*
X121098733Y-108744608D01*
X121098733Y-108194608D02*
X121698733Y-107794608D01*
X121698733Y-107794608D02*
X121698733Y-108594608D01*
X121698733Y-108194608D02*
X122198733Y-108194608D01*
X121698733Y-108594608D02*
X121098733Y-108194608D01*
X122848733Y-107294608D02*
X122848733Y-109094608D01*
X122848733Y-109094608D02*
X120048733Y-109094608D01*
D13*
X118828733Y-108194608D02*
G75*
G03*
X118828733Y-108194608I-180000J0D01*
G01*
D10*
%TO.C,SW10*%
X150448733Y-123944608D02*
X150448733Y-122944608D01*
X150448733Y-123944608D02*
X150448733Y-122944608D01*
X150448733Y-136944608D02*
X150448733Y-135944608D01*
X150448733Y-136944608D02*
X150448733Y-135944608D01*
X150448733Y-136944608D02*
X151448733Y-136944608D01*
X150448733Y-136944608D02*
X151448733Y-136944608D01*
X151448733Y-122944608D02*
X150448733Y-122944608D01*
X151448733Y-122944608D02*
X150448733Y-122944608D01*
X163448733Y-136944608D02*
X164448733Y-136944608D01*
X163448733Y-136944608D02*
X164448733Y-136944608D01*
X164448733Y-122944608D02*
X163448733Y-122944608D01*
X164448733Y-122944608D02*
X163448733Y-122944608D01*
X164448733Y-122944608D02*
X164448733Y-123944608D01*
X164448733Y-122944608D02*
X164448733Y-123944608D01*
X164448733Y-135944608D02*
X164448733Y-136944608D01*
X164448733Y-135944608D02*
X164448733Y-136944608D01*
X164448733Y-136944608D02*
X163448733Y-136944608D01*
D12*
%TO.C,D25*%
X264048733Y-124294608D02*
X266848733Y-124294608D01*
X264048733Y-126094608D02*
X264048733Y-124294608D01*
X264698733Y-125194608D02*
X265098733Y-125194608D01*
X265098733Y-125194608D02*
X265098733Y-124644608D01*
X265098733Y-125194608D02*
X265098733Y-125744608D01*
X265098733Y-125194608D02*
X265698733Y-124794608D01*
X265698733Y-124794608D02*
X265698733Y-125594608D01*
X265698733Y-125194608D02*
X266198733Y-125194608D01*
X265698733Y-125594608D02*
X265098733Y-125194608D01*
X266848733Y-124294608D02*
X266848733Y-126094608D01*
X266848733Y-126094608D02*
X264048733Y-126094608D01*
D13*
X262828733Y-125194608D02*
G75*
G03*
X262828733Y-125194608I-180000J0D01*
G01*
D12*
%TO.C,D8*%
X138048733Y-107294608D02*
X140848733Y-107294608D01*
X138048733Y-109094608D02*
X138048733Y-107294608D01*
X138698733Y-108194608D02*
X139098733Y-108194608D01*
X139098733Y-108194608D02*
X139098733Y-107644608D01*
X139098733Y-108194608D02*
X139098733Y-108744608D01*
X139098733Y-108194608D02*
X139698733Y-107794608D01*
X139698733Y-107794608D02*
X139698733Y-108594608D01*
X139698733Y-108194608D02*
X140198733Y-108194608D01*
X139698733Y-108594608D02*
X139098733Y-108194608D01*
X140848733Y-107294608D02*
X140848733Y-109094608D01*
X140848733Y-109094608D02*
X138048733Y-109094608D01*
D13*
X136828733Y-108194608D02*
G75*
G03*
X136828733Y-108194608I-180000J0D01*
G01*
D10*
%TO.C,SW3*%
X96448733Y-89944608D02*
X96448733Y-88944608D01*
X96448733Y-89944608D02*
X96448733Y-88944608D01*
X96448733Y-102944608D02*
X96448733Y-101944608D01*
X96448733Y-102944608D02*
X96448733Y-101944608D01*
X96448733Y-102944608D02*
X97448733Y-102944608D01*
X96448733Y-102944608D02*
X97448733Y-102944608D01*
X97448733Y-88944608D02*
X96448733Y-88944608D01*
X97448733Y-88944608D02*
X96448733Y-88944608D01*
X109448733Y-102944608D02*
X110448733Y-102944608D01*
X109448733Y-102944608D02*
X110448733Y-102944608D01*
X110448733Y-88944608D02*
X109448733Y-88944608D01*
X110448733Y-88944608D02*
X109448733Y-88944608D01*
X110448733Y-88944608D02*
X110448733Y-89944608D01*
X110448733Y-88944608D02*
X110448733Y-89944608D01*
X110448733Y-101944608D02*
X110448733Y-102944608D01*
X110448733Y-101944608D02*
X110448733Y-102944608D01*
X110448733Y-102944608D02*
X109448733Y-102944608D01*
D12*
%TO.C,D22*%
X282048733Y-124294608D02*
X284848733Y-124294608D01*
X282048733Y-126094608D02*
X282048733Y-124294608D01*
X282698733Y-125194608D02*
X283098733Y-125194608D01*
X283098733Y-125194608D02*
X283098733Y-124644608D01*
X283098733Y-125194608D02*
X283098733Y-125744608D01*
X283098733Y-125194608D02*
X283698733Y-124794608D01*
X283698733Y-124794608D02*
X283698733Y-125594608D01*
X283698733Y-125194608D02*
X284198733Y-125194608D01*
X283698733Y-125594608D02*
X283098733Y-125194608D01*
X284848733Y-124294608D02*
X284848733Y-126094608D01*
X284848733Y-126094608D02*
X282048733Y-126094608D01*
D13*
X280828733Y-125194608D02*
G75*
G03*
X280828733Y-125194608I-180000J0D01*
G01*
D12*
%TO.C,D30*%
X246048733Y-90294608D02*
X248848733Y-90294608D01*
X246048733Y-92094608D02*
X246048733Y-90294608D01*
X246698733Y-91194608D02*
X247098733Y-91194608D01*
X247098733Y-91194608D02*
X247098733Y-90644608D01*
X247098733Y-91194608D02*
X247098733Y-91744608D01*
X247098733Y-91194608D02*
X247698733Y-90794608D01*
X247698733Y-90794608D02*
X247698733Y-91594608D01*
X247698733Y-91194608D02*
X248198733Y-91194608D01*
X247698733Y-91594608D02*
X247098733Y-91194608D01*
X248848733Y-90294608D02*
X248848733Y-92094608D01*
X248848733Y-92094608D02*
X246048733Y-92094608D01*
D13*
X244828733Y-91194608D02*
G75*
G03*
X244828733Y-91194608I-180000J0D01*
G01*
D12*
%TO.C,D19*%
X300048733Y-124294608D02*
X302848733Y-124294608D01*
X300048733Y-126094608D02*
X300048733Y-124294608D01*
X300698733Y-125194608D02*
X301098733Y-125194608D01*
X301098733Y-125194608D02*
X301098733Y-124644608D01*
X301098733Y-125194608D02*
X301098733Y-125744608D01*
X301098733Y-125194608D02*
X301698733Y-124794608D01*
X301698733Y-124794608D02*
X301698733Y-125594608D01*
X301698733Y-125194608D02*
X302198733Y-125194608D01*
X301698733Y-125594608D02*
X301098733Y-125194608D01*
X302848733Y-124294608D02*
X302848733Y-126094608D01*
X302848733Y-126094608D02*
X300048733Y-126094608D01*
D13*
X298828733Y-125194608D02*
G75*
G03*
X298828733Y-125194608I-180000J0D01*
G01*
D14*
%TO.C,RESET1*%
X204698733Y-132944608D02*
X204698733Y-134944608D01*
X205748733Y-131644608D02*
X206198733Y-131194608D01*
X205748733Y-136244608D02*
X206198733Y-136694608D01*
X206198733Y-131194608D02*
X208698733Y-131194608D01*
X206198733Y-136694608D02*
X208698733Y-136694608D01*
X209148733Y-131644608D02*
X208698733Y-131194608D01*
X209148733Y-136244608D02*
X208698733Y-136694608D01*
X210198733Y-132944608D02*
X210198733Y-134944608D01*
D12*
%TO.C,D4*%
X120048733Y-124294608D02*
X122848733Y-124294608D01*
X120048733Y-126094608D02*
X120048733Y-124294608D01*
X120698733Y-125194608D02*
X121098733Y-125194608D01*
X121098733Y-125194608D02*
X121098733Y-124644608D01*
X121098733Y-125194608D02*
X121098733Y-125744608D01*
X121098733Y-125194608D02*
X121698733Y-124794608D01*
X121698733Y-124794608D02*
X121698733Y-125594608D01*
X121698733Y-125194608D02*
X122198733Y-125194608D01*
X121698733Y-125594608D02*
X121098733Y-125194608D01*
X122848733Y-124294608D02*
X122848733Y-126094608D01*
X122848733Y-126094608D02*
X120048733Y-126094608D01*
D13*
X118828733Y-125194608D02*
G75*
G03*
X118828733Y-125194608I-180000J0D01*
G01*
D10*
%TO.C,SW29*%
X240448733Y-106944608D02*
X240448733Y-105944608D01*
X240448733Y-106944608D02*
X240448733Y-105944608D01*
X240448733Y-119944608D02*
X240448733Y-118944608D01*
X240448733Y-119944608D02*
X240448733Y-118944608D01*
X240448733Y-119944608D02*
X241448733Y-119944608D01*
X240448733Y-119944608D02*
X241448733Y-119944608D01*
X241448733Y-105944608D02*
X240448733Y-105944608D01*
X241448733Y-105944608D02*
X240448733Y-105944608D01*
X253448733Y-119944608D02*
X254448733Y-119944608D01*
X253448733Y-119944608D02*
X254448733Y-119944608D01*
X254448733Y-105944608D02*
X253448733Y-105944608D01*
X254448733Y-105944608D02*
X253448733Y-105944608D01*
X254448733Y-105944608D02*
X254448733Y-106944608D01*
X254448733Y-105944608D02*
X254448733Y-106944608D01*
X254448733Y-118944608D02*
X254448733Y-119944608D01*
X254448733Y-118944608D02*
X254448733Y-119944608D01*
X254448733Y-119944608D02*
X253448733Y-119944608D01*
%TD*%
%LPC*%
D15*
%TO.C,U1*%
X194828733Y-91474608D03*
X194828733Y-94014608D03*
X194828733Y-96554608D03*
X194828733Y-99094608D03*
X194828733Y-101634608D03*
X194828733Y-104174608D03*
X194828733Y-106714608D03*
X194828733Y-109254608D03*
X194828733Y-111794608D03*
X194828733Y-114334608D03*
X194828733Y-116874608D03*
X194828733Y-119414608D03*
X210068733Y-119414608D03*
X210068733Y-116874608D03*
X210068733Y-114334608D03*
X210068733Y-111794608D03*
X210068733Y-109254608D03*
X210068733Y-106714608D03*
X210068733Y-104174608D03*
X210068733Y-101634608D03*
X210068733Y-99094608D03*
X210068733Y-96554608D03*
X210068733Y-94014608D03*
D16*
X210068733Y-91474608D03*
%TD*%
D17*
%TO.C,D17*%
X173798733Y-142194608D03*
X177098733Y-142194608D03*
%TD*%
D18*
%TO.C,BT1*%
X195448733Y-132944608D03*
X199448733Y-132944608D03*
D19*
X197448733Y-132944608D03*
%TD*%
D20*
%TO.C,SW15*%
X169948733Y-95944608D03*
D21*
X175448733Y-95944608D03*
D20*
X180948733Y-95944608D03*
%TD*%
D17*
%TO.C,D35*%
X227798733Y-142194608D03*
X231098733Y-142194608D03*
%TD*%
D20*
%TO.C,SW33*%
X223948733Y-95944608D03*
D21*
X229448733Y-95944608D03*
D20*
X234948733Y-95944608D03*
%TD*%
D22*
%TO.C,H6*%
X215948733Y-90544608D03*
%TD*%
D17*
%TO.C,D32*%
X227798733Y-108194608D03*
X231098733Y-108194608D03*
%TD*%
%TO.C,D27*%
X263798733Y-91194608D03*
X267098733Y-91194608D03*
%TD*%
D20*
%TO.C,SW20*%
X295948733Y-112944608D03*
D21*
X301448733Y-112944608D03*
D20*
X306948733Y-112944608D03*
%TD*%
D22*
%TO.C,H10*%
X238448733Y-104444608D03*
%TD*%
D20*
%TO.C,SW26*%
X259948733Y-112944608D03*
D21*
X265448733Y-112944608D03*
D20*
X270948733Y-112944608D03*
%TD*%
D17*
%TO.C,D15*%
X173798733Y-91194608D03*
X177098733Y-91194608D03*
%TD*%
%TO.C,D31*%
X227798733Y-125194608D03*
X231098733Y-125194608D03*
%TD*%
D20*
%TO.C,SW28*%
X241948733Y-129944608D03*
D21*
X247448733Y-129944608D03*
D20*
X252948733Y-129944608D03*
%TD*%
D17*
%TO.C,D10*%
X155798733Y-125194608D03*
X159098733Y-125194608D03*
%TD*%
%TO.C,D21*%
X299798733Y-91194608D03*
X303098733Y-91194608D03*
%TD*%
D20*
%TO.C,SW13*%
X169948733Y-129944608D03*
D21*
X175448733Y-129944608D03*
D20*
X180948733Y-129944608D03*
%TD*%
%TO.C,SW11*%
X151948733Y-112944608D03*
D21*
X157448733Y-112944608D03*
D20*
X162948733Y-112944608D03*
%TD*%
D22*
%TO.C,H1*%
X112448733Y-104444608D03*
%TD*%
%TO.C,H12*%
X238448733Y-138444608D03*
%TD*%
%TO.C,H7*%
X188948733Y-134144608D03*
%TD*%
%TO.C,H5*%
X188948733Y-90544608D03*
%TD*%
D20*
%TO.C,SW19*%
X295948733Y-129944608D03*
D21*
X301448733Y-129944608D03*
D20*
X306948733Y-129944608D03*
%TD*%
%TO.C,SW30*%
X241948733Y-95944608D03*
D21*
X247448733Y-95944608D03*
D20*
X252948733Y-95944608D03*
%TD*%
%TO.C,SW36*%
X205948733Y-146944608D03*
D21*
X211448733Y-146944608D03*
D20*
X216948733Y-146944608D03*
%TD*%
D22*
%TO.C,H9*%
X166448733Y-104444608D03*
%TD*%
D17*
%TO.C,D20*%
X299798733Y-108194608D03*
X303098733Y-108194608D03*
%TD*%
%TO.C,D11*%
X155798733Y-108194608D03*
X159098733Y-108194608D03*
%TD*%
D20*
%TO.C,SW8*%
X133948733Y-112944608D03*
D21*
X139448733Y-112944608D03*
D20*
X144948733Y-112944608D03*
%TD*%
D22*
%TO.C,H2*%
X292448733Y-104444608D03*
%TD*%
D20*
%TO.C,SW14*%
X169948733Y-112944608D03*
D21*
X175448733Y-112944608D03*
D20*
X180948733Y-112944608D03*
%TD*%
%TO.C,SW34*%
X241948733Y-146944608D03*
D21*
X247448733Y-146944608D03*
D20*
X252948733Y-146944608D03*
%TD*%
D17*
%TO.C,D33*%
X227798733Y-91194608D03*
X231098733Y-91194608D03*
%TD*%
D20*
%TO.C,SW4*%
X115948733Y-129944608D03*
D21*
X121448733Y-129944608D03*
D20*
X126948733Y-129944608D03*
%TD*%
%TO.C,SW6*%
X115948733Y-95944608D03*
D21*
X121448733Y-95944608D03*
D20*
X126948733Y-95944608D03*
%TD*%
D17*
%TO.C,D14*%
X173798733Y-108194608D03*
X177098733Y-108194608D03*
%TD*%
D20*
%TO.C,SW22*%
X277948733Y-129944608D03*
D21*
X283448733Y-129944608D03*
D20*
X288948733Y-129944608D03*
%TD*%
D17*
%TO.C,D28*%
X245798733Y-125194608D03*
X249098733Y-125194608D03*
%TD*%
D20*
%TO.C,SW25*%
X259948733Y-129944608D03*
D21*
X265448733Y-129944608D03*
D20*
X270948733Y-129944608D03*
%TD*%
%TO.C,SW7*%
X133948733Y-129944608D03*
D21*
X139448733Y-129944608D03*
D20*
X144948733Y-129944608D03*
%TD*%
%TO.C,SW24*%
X277948733Y-95944608D03*
D21*
X283448733Y-95944608D03*
D20*
X288948733Y-95944608D03*
%TD*%
%TO.C,SW9*%
X133948733Y-95944608D03*
D21*
X139448733Y-95944608D03*
D20*
X144948733Y-95944608D03*
%TD*%
D17*
%TO.C,D12*%
X155798733Y-91194608D03*
X159098733Y-91194608D03*
%TD*%
%TO.C,D29*%
X245798733Y-108194608D03*
X249098733Y-108194608D03*
%TD*%
D20*
%TO.C,SW16*%
X151948733Y-146944608D03*
D21*
X157448733Y-146944608D03*
D20*
X162948733Y-146944608D03*
%TD*%
D17*
%TO.C,D18*%
X191798733Y-142194608D03*
X195098733Y-142194608D03*
%TD*%
%TO.C,D16*%
X155798733Y-142194608D03*
X159098733Y-142194608D03*
%TD*%
%TO.C,D13*%
X173798733Y-125194608D03*
X177098733Y-125194608D03*
%TD*%
%TO.C,D1*%
X101798733Y-125194608D03*
X105098733Y-125194608D03*
%TD*%
%TO.C,D3*%
X101798733Y-91194608D03*
X105098733Y-91194608D03*
%TD*%
D20*
%TO.C,SW21*%
X295948733Y-95944608D03*
D21*
X301448733Y-95944608D03*
D20*
X306948733Y-95944608D03*
%TD*%
D17*
%TO.C,D9*%
X137798733Y-91194608D03*
X141098733Y-91194608D03*
%TD*%
D20*
%TO.C,SW23*%
X277948733Y-112944608D03*
D21*
X283448733Y-112944608D03*
D20*
X288948733Y-112944608D03*
%TD*%
D17*
%TO.C,D34*%
X245798733Y-142194608D03*
X249098733Y-142194608D03*
%TD*%
D20*
%TO.C,SW12*%
X151948733Y-95944608D03*
D21*
X157448733Y-95944608D03*
D20*
X162948733Y-95944608D03*
%TD*%
D17*
%TO.C,D36*%
X209798733Y-142194608D03*
X213098733Y-142194608D03*
%TD*%
D20*
%TO.C,SW17*%
X169948733Y-146944608D03*
D21*
X175448733Y-146944608D03*
D20*
X180948733Y-146944608D03*
%TD*%
D17*
%TO.C,D6*%
X119798733Y-91194608D03*
X123098733Y-91194608D03*
%TD*%
D20*
%TO.C,SW35*%
X223948733Y-146944608D03*
D21*
X229448733Y-146944608D03*
D20*
X234948733Y-146944608D03*
%TD*%
D23*
%TO.C,J2*%
X208793650Y-124444608D03*
%TD*%
D17*
%TO.C,D24*%
X281798733Y-91194608D03*
X285098733Y-91194608D03*
%TD*%
D20*
%TO.C,SW1*%
X97948733Y-129944608D03*
D21*
X103448733Y-129944608D03*
D20*
X108948733Y-129944608D03*
%TD*%
%TO.C,SW31*%
X223948733Y-129944608D03*
D21*
X229448733Y-129944608D03*
D20*
X234948733Y-129944608D03*
%TD*%
%TO.C,SW5*%
X115948733Y-112944608D03*
D21*
X121448733Y-112944608D03*
D20*
X126948733Y-112944608D03*
%TD*%
%TO.C,SW32*%
X223948733Y-112944608D03*
D21*
X229448733Y-112944608D03*
D20*
X234948733Y-112944608D03*
%TD*%
D22*
%TO.C,H4*%
X292448733Y-121444608D03*
%TD*%
D20*
%TO.C,SW27*%
X259948733Y-95944608D03*
D21*
X265448733Y-95944608D03*
D20*
X270948733Y-95944608D03*
%TD*%
D22*
%TO.C,H3*%
X112448733Y-121444608D03*
%TD*%
D17*
%TO.C,D2*%
X101798733Y-108194608D03*
X105098733Y-108194608D03*
%TD*%
D24*
%TO.C,J1*%
X206258733Y-124444608D03*
D25*
X203718733Y-124444608D03*
D26*
X201178733Y-124444608D03*
X198638733Y-124444608D03*
%TD*%
D17*
%TO.C,D26*%
X263798733Y-108194608D03*
X267098733Y-108194608D03*
%TD*%
%TO.C,D23*%
X281798733Y-108194608D03*
X285098733Y-108194608D03*
%TD*%
D20*
%TO.C,SW2*%
X97948733Y-112944608D03*
D21*
X103448733Y-112944608D03*
D20*
X108948733Y-112944608D03*
%TD*%
D17*
%TO.C,D7*%
X137798733Y-125194608D03*
X141098733Y-125194608D03*
%TD*%
D22*
%TO.C,H11*%
X166448733Y-138444608D03*
%TD*%
D20*
%TO.C,SW18*%
X187948733Y-146944608D03*
D21*
X193448733Y-146944608D03*
D20*
X198948733Y-146944608D03*
%TD*%
D22*
%TO.C,H8*%
X215948733Y-134144608D03*
%TD*%
D17*
%TO.C,D5*%
X119798733Y-108194608D03*
X123098733Y-108194608D03*
%TD*%
D20*
%TO.C,SW10*%
X151948733Y-129944608D03*
D21*
X157448733Y-129944608D03*
D20*
X162948733Y-129944608D03*
%TD*%
D17*
%TO.C,D25*%
X263798733Y-125194608D03*
X267098733Y-125194608D03*
%TD*%
%TO.C,D8*%
X137798733Y-108194608D03*
X141098733Y-108194608D03*
%TD*%
D20*
%TO.C,SW3*%
X97948733Y-95944608D03*
D21*
X103448733Y-95944608D03*
D20*
X108948733Y-95944608D03*
%TD*%
D17*
%TO.C,D22*%
X281798733Y-125194608D03*
X285098733Y-125194608D03*
%TD*%
%TO.C,D30*%
X245798733Y-91194608D03*
X249098733Y-91194608D03*
%TD*%
%TO.C,D19*%
X299798733Y-125194608D03*
X303098733Y-125194608D03*
%TD*%
D27*
%TO.C,RESET1*%
X204298733Y-132044608D03*
X210598733Y-132044608D03*
X204298733Y-135844608D03*
X210598733Y-135844608D03*
%TD*%
D17*
%TO.C,D4*%
X119798733Y-125194608D03*
X123098733Y-125194608D03*
%TD*%
D20*
%TO.C,SW29*%
X241948733Y-112944608D03*
D21*
X247448733Y-112944608D03*
D20*
X252948733Y-112944608D03*
%TD*%
D28*
%TO.C,PWR1*%
X200948733Y-89194608D03*
X203948733Y-89194608D03*
%TD*%
D29*
X206258733Y-96501235D03*
X179239417Y-107962423D03*
X179243948Y-124369355D03*
X182421430Y-141367608D03*
X182418157Y-110689899D03*
X220556390Y-124375171D03*
X220557835Y-116871891D03*
X219717983Y-119467582D03*
X219717983Y-141375297D03*
X204983235Y-104181961D03*
X204253576Y-101630293D03*
X213278618Y-135837308D03*
X191106716Y-123099763D03*
X297698732Y-123506027D03*
X99698732Y-123735712D03*
X117698732Y-122516769D03*
X279698732Y-122516831D03*
X190490712Y-122522134D03*
X189911904Y-121985788D03*
X261698732Y-121983515D03*
X135698732Y-121993278D03*
X251224312Y-150697564D03*
X153698732Y-121370801D03*
X233161853Y-150697963D03*
X189216755Y-121458788D03*
X243698732Y-121459288D03*
X224448784Y-139988942D03*
X188571864Y-120804955D03*
X215094780Y-139977020D03*
X171698732Y-120779748D03*
X225698732Y-120800566D03*
X215101717Y-150664450D03*
X207862869Y-95406671D03*
M02*
