%TF.GenerationSoftware,KiCad,Pcbnew,7.0.1*%
%TF.CreationDate,2023-03-24T13:46:13-04:00*%
%TF.ProjectId,kurp,6b757270-2e6b-4696-9361-645f70636258,v1.0.0*%
%TF.SameCoordinates,Original*%
%TF.FileFunction,Paste,Top*%
%TF.FilePolarity,Positive*%
%FSLAX46Y46*%
G04 Gerber Fmt 4.6, Leading zero omitted, Abs format (unit mm)*
G04 Created by KiCad (PCBNEW 7.0.1) date 2023-03-24 13:46:13*
%MOMM*%
%LPD*%
G01*
G04 APERTURE LIST*
%ADD10R,0.900000X1.200000*%
%ADD11R,1.700000X1.000000*%
G04 APERTURE END LIST*
D10*
%TO.C,D17*%
X173798733Y-142194608D03*
X177098733Y-142194608D03*
%TD*%
%TO.C,D35*%
X227798733Y-142194608D03*
X231098733Y-142194608D03*
%TD*%
%TO.C,D32*%
X227798733Y-108194608D03*
X231098733Y-108194608D03*
%TD*%
%TO.C,D27*%
X263798733Y-91194608D03*
X267098733Y-91194608D03*
%TD*%
%TO.C,D15*%
X173798733Y-91194608D03*
X177098733Y-91194608D03*
%TD*%
%TO.C,D31*%
X227798733Y-125194608D03*
X231098733Y-125194608D03*
%TD*%
%TO.C,D10*%
X155798733Y-125194608D03*
X159098733Y-125194608D03*
%TD*%
%TO.C,D21*%
X299798733Y-91194608D03*
X303098733Y-91194608D03*
%TD*%
%TO.C,D20*%
X299798733Y-108194608D03*
X303098733Y-108194608D03*
%TD*%
%TO.C,D11*%
X155798733Y-108194608D03*
X159098733Y-108194608D03*
%TD*%
%TO.C,D33*%
X227798733Y-91194608D03*
X231098733Y-91194608D03*
%TD*%
%TO.C,D14*%
X173798733Y-108194608D03*
X177098733Y-108194608D03*
%TD*%
%TO.C,D28*%
X245798733Y-125194608D03*
X249098733Y-125194608D03*
%TD*%
%TO.C,D12*%
X155798733Y-91194608D03*
X159098733Y-91194608D03*
%TD*%
%TO.C,D29*%
X245798733Y-108194608D03*
X249098733Y-108194608D03*
%TD*%
%TO.C,D18*%
X191798733Y-142194608D03*
X195098733Y-142194608D03*
%TD*%
%TO.C,D16*%
X155798733Y-142194608D03*
X159098733Y-142194608D03*
%TD*%
%TO.C,D13*%
X173798733Y-125194608D03*
X177098733Y-125194608D03*
%TD*%
%TO.C,D1*%
X101798733Y-125194608D03*
X105098733Y-125194608D03*
%TD*%
%TO.C,D3*%
X101798733Y-91194608D03*
X105098733Y-91194608D03*
%TD*%
%TO.C,D9*%
X137798733Y-91194608D03*
X141098733Y-91194608D03*
%TD*%
%TO.C,D34*%
X245798733Y-142194608D03*
X249098733Y-142194608D03*
%TD*%
%TO.C,D36*%
X209798733Y-142194608D03*
X213098733Y-142194608D03*
%TD*%
%TO.C,D6*%
X119798733Y-91194608D03*
X123098733Y-91194608D03*
%TD*%
%TO.C,D24*%
X281798733Y-91194608D03*
X285098733Y-91194608D03*
%TD*%
%TO.C,D2*%
X101798733Y-108194608D03*
X105098733Y-108194608D03*
%TD*%
%TO.C,D26*%
X263798733Y-108194608D03*
X267098733Y-108194608D03*
%TD*%
%TO.C,D23*%
X281798733Y-108194608D03*
X285098733Y-108194608D03*
%TD*%
%TO.C,D7*%
X137798733Y-125194608D03*
X141098733Y-125194608D03*
%TD*%
%TO.C,D5*%
X119798733Y-108194608D03*
X123098733Y-108194608D03*
%TD*%
%TO.C,D25*%
X263798733Y-125194608D03*
X267098733Y-125194608D03*
%TD*%
%TO.C,D8*%
X137798733Y-108194608D03*
X141098733Y-108194608D03*
%TD*%
%TO.C,D22*%
X281798733Y-125194608D03*
X285098733Y-125194608D03*
%TD*%
%TO.C,D30*%
X245798733Y-91194608D03*
X249098733Y-91194608D03*
%TD*%
%TO.C,D19*%
X299798733Y-125194608D03*
X303098733Y-125194608D03*
%TD*%
D11*
%TO.C,RESET1*%
X204298733Y-132044608D03*
X210598733Y-132044608D03*
X204298733Y-135844608D03*
X210598733Y-135844608D03*
%TD*%
D10*
%TO.C,D4*%
X119798733Y-125194608D03*
X123098733Y-125194608D03*
%TD*%
M02*
